<svg version="1.1" xmlns="http://www.w3.org/2000/svg" viewBox="0 0 353 54" fill="none" class="kNGOui" data-v-cece4b30=""><mask id="mask0_360_595" maskUnits="userSpaceOnUse" x="0" y="2" width="32" height="46" style="mask-type:alpha;"><path fill-rule="evenodd" clip-rule="evenodd" d="M0 47.7429V2.4043L31.6675 2.4043V47.7429H0Z" fill="white"></path></mask> <g mask="url(#mask0_360_595)"><path fill-rule="evenodd" clip-rule="evenodd" d="M19.7243 22.1515L13.9753 20.4117C10.0447 19.2435 8.20434 17.3525 8.34844 14.635C8.43353 13.0043 9.32284 11.5562 10.8531 10.5549C12.3353 9.58509 14.2745 9.10677 16.3015 9.20401C19.9041 9.37878 22.561 11.0621 23.4051 13.7086C23.8868 15.2185 25.2262 16.2448 26.8347 16.3223C28.0589 16.3814 29.2089 15.8847 29.9747 14.9596C30.7323 14.045 30.9725 12.8808 30.6376 11.7678C29.0017 6.34198 23.696 2.7651 16.7914 2.43001C8.08631 1.99374 1.24489 7.15538 0.863362 14.3998C0.550454 20.3486 4.20379 24.5523 11.7273 26.8953L17.4173 28.5694C22.255 29.9058 24.5002 32.3315 24.0954 35.7639C23.5395 38.5313 20.9663 41.3933 15.4136 41.1266C11.5846 40.9413 8.40196 38.869 7.30541 35.8454C6.79076 34.4288 5.47051 33.4643 3.9444 33.3907C2.69414 33.3368 1.48506 33.8743 0.734356 34.848C-0.0149751 35.8191 -0.204366 37.0753 0.22794 38.2067C2.30164 43.6483 8.12611 47.3802 15.065 47.7153C15.4465 47.7337 15.8239 47.7429 16.1958 47.7429C24.3822 47.7429 30.4606 43.3447 31.4803 36.5576C32.618 29.8467 28.5543 24.865 19.7243 22.1515" fill="#333333"></path></g> <mask id="mask1_360_595" maskUnits="userSpaceOnUse" x="36" y="16" width="34" height="46" style="mask-type:alpha;"><path fill-rule="evenodd" clip-rule="evenodd" d="M69.9818 61.5146H36.9755L36.9755 16.394H69.9818V61.5146V61.5146Z" fill="white"></path></mask> <g mask="url(#mask1_360_595)"><path fill-rule="evenodd" clip-rule="evenodd" d="M62.5598 32.2272C62.5598 37.3205 58.7555 41.0183 53.5116 41.0183C48.9497 41.0183 44.3302 37.9986 44.3302 32.2272C44.3302 26.2889 48.9497 23.1825 53.5116 23.1825C58.7555 23.1825 62.5598 26.9867 62.5598 32.2272M54.3735 16.394C50.1739 16.394 46.3024 18.1326 44.2643 20.8776V20.5176C44.2643 18.5938 42.6298 17.0287 40.6192 17.0287C38.6101 17.0287 36.9755 18.5938 36.9755 20.5176V58.0249C36.9755 59.9487 38.6101 61.5151 40.6192 61.5151C42.6298 61.5151 44.2643 59.9487 44.2643 58.0249V43.4046C46.2255 46.0985 50.0133 47.7437 54.3735 47.7437C63.4162 47.7437 69.9818 41.1642 69.9818 32.0997C69.9818 23.1457 63.2721 16.394 54.3735 16.394" fill="#333333"></path></g> <path fill-rule="evenodd" clip-rule="evenodd" d="M98.9952 31.9733C98.9952 36.4359 95.7961 40.955 89.6807 40.955C84.4093 40.955 80.4348 37.0929 80.4348 31.9733C80.4348 26.88 84.3228 23.1823 89.6807 23.1823C94.1959 23.1823 98.9952 26.2637 98.9952 31.9733M102.016 17.085C100.258 17.3833 99.061 18.9786 99.061 20.6882V20.7092C96.6319 17.5383 92.1414 16.3938 88.8861 16.3938C79.798 16.3938 72.9456 23.1192 72.9456 32.0364C72.9456 40.9918 79.798 47.7434 88.8861 47.7434C92.361 47.7434 96.728 46.3821 99.061 43.3597V43.4491C99.061 45.1587 100.258 46.7539 102.016 47.0522C104.295 47.4399 106.284 45.7631 106.284 43.6501V20.4871C106.284 18.3741 104.295 16.6973 102.016 17.085" fill="#333333"></path> <path fill-rule="evenodd" clip-rule="evenodd" d="M136.762 39.7508C135.558 38.8546 133.87 38.7981 132.562 39.6115C131.105 40.5182 129.308 41.0176 127.505 41.0176C122.17 41.0176 117.993 37.0451 117.993 31.9729C117.993 26.2632 122.894 23.1831 127.505 23.1831C129.348 23.1831 131.092 23.6483 132.546 24.53C133.87 25.3329 135.562 25.258 136.773 24.3329C137.945 23.4354 138.443 21.9006 137.921 20.4722C137.604 19.6075 136.866 18.9571 136.036 18.4998C133.539 17.12 130.602 16.3933 127.505 16.3933C117.809 16.3933 110.771 22.9466 110.771 31.9729C110.771 40.9637 117.964 47.7429 127.505 47.7429C130.62 47.7429 133.583 47.0005 136.106 45.5905C136.936 45.1266 137.672 44.4617 137.972 43.5866C138.463 42.1516 137.945 40.6312 136.762 39.7508" fill="#333333"></path> <path fill-rule="evenodd" clip-rule="evenodd" d="M148.16 29.4044C148.882 25.2296 152.155 22.5476 156.853 22.5476C161.433 22.5476 164.316 25.1678 165.031 29.4044H148.16ZM156.853 16.3938C147.501 16.3938 140.899 22.9457 140.899 31.9733C140.899 41.1114 147.501 47.7434 156.853 47.7434C161.681 47.7434 166.113 46.0943 169.008 43.2165C169.733 42.499 170.029 41.5213 169.826 40.5358C169.622 39.5555 168.931 38.7303 167.975 38.3308L167.795 38.2546C166.583 37.7487 165.171 38.0364 164.19 38.9839C162.476 40.6396 159.923 41.5897 157.185 41.5897C152.519 41.5897 148.875 38.7276 148.162 34.7487H169.351C170.935 34.7487 172.224 33.5147 172.224 31.9733C172.224 22.8012 166.121 16.3938 156.853 16.3938V16.3938Z" fill="#333333"></path> <path fill-rule="evenodd" clip-rule="evenodd" d="M215.296 36.7904C213.834 35.68 211.766 35.7247 210.38 36.8956C207.606 39.2451 204.009 40.5394 200.247 40.5394C191.469 40.5394 184.594 33.705 184.594 24.9796C184.594 16.2174 191.469 9.35538 200.247 9.35538C203.854 9.35538 207.284 10.5604 210.166 12.8416C211.608 13.9835 213.621 14.0295 215.065 12.9533C215.991 12.2595 216.536 11.2148 216.558 10.0873C216.58 8.98876 216.096 7.95591 215.23 7.25551C211.15 3.95852 205.83 2.1438 200.247 2.1438C193.778 2.1438 187.778 4.6011 183.35 9.06366C178.798 13.6537 176.483 19.7523 176.83 26.2359C177.158 32.3265 180.169 38.1465 185.092 42.2057C189.484 45.8286 194.787 47.7432 200.426 47.7432C201.175 47.7432 201.939 47.7077 202.7 47.638C207.48 47.1912 211.839 45.4422 215.316 42.5789C215.954 42.0533 216.458 41.3621 216.653 40.5776C217.011 39.1255 216.462 37.6748 215.296 36.7904" fill="#333333"></path> <path fill-rule="evenodd" clip-rule="evenodd" d="M226.26 0.908936C224.251 0.908936 222.617 2.47399 222.617 4.39778V43.6187C222.617 45.5424 224.251 47.1088 226.26 47.1088C228.269 47.1088 229.904 45.5424 229.904 43.6187V4.39778C229.904 2.47399 228.269 0.908936 226.26 0.908936" fill="#333333"></path> <path fill-rule="evenodd" clip-rule="evenodd" d="M260.405 31.9733C260.405 37.177 256.557 40.955 251.255 40.955C245.992 40.955 242.171 37.177 242.171 31.9733C242.171 26.9168 245.992 23.2466 251.255 23.2466C256.557 23.2466 260.405 26.9168 260.405 31.9733M251.225 16.3938C241.758 16.3938 234.888 22.9457 234.888 31.9733C234.888 40.9642 241.91 47.7434 251.225 47.7434C260.614 47.7434 267.694 40.9642 267.694 31.9733C267.694 22.9457 260.767 16.3938 251.225 16.3938" fill="#333333"></path> <path fill-rule="evenodd" clip-rule="evenodd" d="M297.169 17.0288H297.102C295.112 17.0288 293.491 18.5794 293.491 20.4861V33.1787C293.491 38.0486 290.605 40.954 285.769 40.954C281.947 40.954 279.571 38.1944 279.571 33.7503V20.4861C279.571 18.5794 277.95 17.0288 275.959 17.0288H275.893C273.902 17.0288 272.281 18.5794 272.281 20.4861V34.5098C272.246 38.8791 273.476 42.3903 275.837 44.6675C277.951 46.7083 280.869 47.7438 284.51 47.7438C287.513 47.7438 291.459 46.3771 293.491 43.3942V43.6504C293.491 45.5571 295.112 47.1091 297.102 47.1091H297.169C299.161 47.1091 300.78 45.5571 300.78 43.6504V20.4861C300.78 18.5794 299.161 17.0288 297.169 17.0288" fill="#333333"></path> <path fill-rule="evenodd" clip-rule="evenodd" d="M330.967 31.9734C330.967 36.436 327.757 40.955 321.619 40.955C316.321 40.955 312.472 37.1771 312.472 31.9734C312.472 26.8801 316.321 23.1823 321.619 23.1823C326.151 23.1823 330.967 26.2638 330.967 31.9734M334.711 0.908936C332.719 0.908936 331.1 2.46085 331.1 4.36755V20.7434C329.106 18.043 325.267 16.3939 320.858 16.3939C311.777 16.3939 305.184 22.9997 305.184 32.1009C305.184 41.0181 311.922 47.7435 320.858 47.7435C325.151 47.7435 329.072 46.0287 331.1 43.3204V43.6502C331.1 45.5569 332.719 47.1088 334.711 47.1088C336.702 47.1088 338.323 45.5569 338.323 43.6502V4.36755C338.323 2.46085 336.702 0.908936 334.711 0.908936" fill="#333333"></path> <path fill-rule="evenodd" clip-rule="evenodd" d="M346.022 42.0349H342.87C342.55 42.0349 342.291 42.2833 342.291 42.5894C342.291 42.8956 342.55 43.144 342.87 43.144H343.825V46.3332C343.825 46.6657 344.098 46.9272 344.445 46.9272C344.794 46.9272 345.068 46.6657 345.068 46.3332V43.144H346.022C346.342 43.144 346.601 42.8956 346.601 42.5894C346.601 42.2833 346.342 42.0349 346.022 42.0349" fill="#333333"></path> <path fill-rule="evenodd" clip-rule="evenodd" d="M351.669 42.0078H351.549C351.307 42.0078 351.125 42.1051 350.996 42.3074L349.756 44.2378L348.523 42.314C348.397 42.1169 348.198 42.0078 347.962 42.0078H347.844C347.495 42.0078 347.222 42.2693 347.222 42.6031V46.3455C347.222 46.6727 347.489 46.9277 347.829 46.9277C348.168 46.9277 348.444 46.6662 348.444 46.3455V44.2759L349.226 45.4296C349.365 45.6294 349.533 45.7266 349.742 45.7266C349.949 45.7266 350.119 45.6294 350.259 45.4296L351.054 44.2562V46.3324C351.054 46.6609 351.33 46.9277 351.669 46.9277C352.017 46.9277 352.289 46.6662 352.289 46.3324V42.6031C352.289 42.2693 352.017 42.0078 351.669 42.0078" fill="#333333"></path></svg>