<?xml version="1.0" encoding="utf-8"?>
<!-- Generator: Adobe Illustrator 25.3.0, SVG Export Plug-In . SVG Version: 6.00 Build 0)  -->
<svg version="1.1" id="Layer_1" xmlns="http://www.w3.org/2000/svg" x="0px"
     y="0px"
     viewBox="0 0 108 108" style="enable-background:new 0 0 108 108;" xml:space="preserve">
<style type="text/css">
	.st0{fill-rule:evenodd;clip-rule:evenodd;fill:NONE;}
	.st1{fill:#FFC800;}
	.st2{fill:#333333;}
	.st3{fill:#632ED8;}
	.st4{fill:#FFFFFF;}
</style>
  <g id="_x32_021">
	<g id="GUEST_PC_Main" transform="translate(-1281.000000, -481.000000)">
		<g id="_x31_5" transform="translate(1281.000000, 481.000000)">
			<path id="Rectangle-2-Copy" class="st0" d="M31.5,0.1h45.1c17.3,0,31.4,14,31.4,31.4v45.1c0,17.3-14,31.4-31.4,31.4H31.5
				C14.1,107.8,0.1,93.8,0.1,76.4v-45C0.1,14.1,14.1,0.1,31.5,0.1z"/>
		</g>
	</g>
</g>
  <g>
	<g>
		<g>
			<g>
				<rect x="59.9" y="26.6" class="st1" width="6.5" height="3.3"/>
        <path class="st2" d="M66.4,30.6h-6.5c-0.4,0-0.7-0.3-0.7-0.7v-3.3c0-0.4,0.3-0.7,0.7-0.7h6.5c0.4,0,0.7,0.3,0.7,0.7v3.3
					C67.1,30.2,66.8,30.6,66.4,30.6z M60.6,29.1h5.1v-1.8h-5.1V29.1z"/>
			</g>
      <path class="st2" d="M59.9,40.6c-0.4,0-0.7-0.3-0.7-0.7V26.6c0-0.4,0.3-0.7,0.7-0.7s0.7,0.3,0.7,0.7v13.3
				C60.6,40.3,60.3,40.6,59.9,40.6z"/>
		</g>
    <g>
			<path class="st1" d="M40.3,39.6L40.3,39.6c-5.4,0-9.8,4.4-9.8,9.8v16.3h9.8h9.8h9.8V39.6H40.3z"/>
      <path class="st2" d="M59.9,66.5H30.5c-0.4,0-0.7-0.3-0.7-0.7V49.4c0-5.8,4.7-10.5,10.5-10.5h19.6c0.4,0,0.7,0.3,0.7,0.7v26.1
				C60.6,66.2,60.3,66.5,59.9,66.5z M31.2,65h27.9V40.4H40.3c-5,0-9.1,4.1-9.1,9.1C31.2,49.5,31.2,65,31.2,65z"/>
		</g>
    <g>
			<path class="st3" d="M69.7,65.8H50.1V49.4c0-5.4,4.4-9.8,9.8-9.8l0,0c5.4,0,9.8,4.4,9.8,9.8V65.8z"/>
      <path class="st2" d="M69.7,66.5H50.1c-0.4,0-0.7-0.3-0.7-0.7V49.4c0-5.8,4.7-10.5,10.5-10.5s10.5,4.7,10.5,10.5v16.3
				C70.4,66.2,70.1,66.5,69.7,66.5z M50.8,65h18.1V49.4c0-5-4.1-9.1-9.1-9.1s-9.1,4.1-9.1,9.1L50.8,65L50.8,65z"/>
		</g>
    <g>
			<path class="st4" d="M50.1,81.4L50.1,81.4c-2.2,0-3.9-1.8-3.9-3.9V65.8H54v11.8C54,79.7,52.2,81.4,50.1,81.4z"/>
      <path class="st2" d="M50.1,82.2c-2.6,0-4.7-2.1-4.7-4.7V65.8c0-0.4,0.3-0.7,0.7-0.7H54c0.4,0,0.7,0.3,0.7,0.7v11.8
				C54.7,80.1,52.6,82.2,50.1,82.2z M46.9,66.5v11c0,1.8,1.4,3.2,3.2,3.2s3.2-1.4,3.2-3.2v-11H46.9z"/>
		</g>
    <g>
			<polygon class="st1" points="77.5,72.1 57.9,72.1 50.1,65.6 69.7,65.6 			"/>
      <path class="st2" d="M77.5,72.8H57.9c-0.2,0-0.3-0.1-0.5-0.2l-7.8-6.5c-0.2-0.2-0.3-0.5-0.2-0.8s0.4-0.5,0.7-0.5h19.6
				c0.2,0,0.3,0.1,0.5,0.2l7.8,6.5c0.2,0.2,0.3,0.5,0.2,0.8C78.1,72.6,77.8,72.8,77.5,72.8z M58.2,71.4h17.3l-6.1-5H52.1L58.2,71.4z
				"/>
		</g>
    <g>
			<g>
				<polygon class="st4" points="72.5,45.5 74.4,61.1 56.9,63.2 50.1,63.9 50.1,51.7 				"/>
        <path class="st2" d="M50.1,64.7c-0.2,0-0.4-0.1-0.5-0.2c-0.2-0.1-0.2-0.3-0.2-0.5V51.7c0-0.3,0.2-0.6,0.5-0.7l22.5-6.1
					c0.2-0.1,0.4,0,0.6,0.1s0.3,0.3,0.3,0.5L75.1,61c0,0.2,0,0.4-0.2,0.5c-0.1,0.2-0.3,0.3-0.5,0.3L50.1,64.7L50.1,64.7z M50.8,52.2
					v10.9l22.7-2.6l-1.6-14L50.8,52.2z"/>
			</g>
      <g>
				<path class="st4" d="M56.9,47.4l-6.7,0.8c-0.1,0.4-0.1,0.8-0.1,1.2v2.3l6.8,4.2l3.3,2.1l12.4-12.4L56.9,47.4z"/>
        <path class="st2" d="M60.2,58.7c-0.1,0-0.3,0-0.4-0.1l-10.1-6.3c-0.2-0.1-0.3-0.4-0.3-0.6v-2.3c0-0.4,0.1-0.9,0.1-1.3
					c0-0.3,0.3-0.6,0.6-0.6l6.7-0.8l0,0l15.7-1.8c0.3,0,0.6,0.1,0.7,0.4c0.1,0.3,0.1,0.6-0.1,0.8L60.7,58.5
					C60.6,58.6,60.4,58.7,60.2,58.7z M50.8,51.3l9.3,5.7l10.5-10.5l-19.7,2.3c0,0.2,0,0.4,0,0.6L50.8,51.3L50.8,51.3z"/>
			</g>
		</g>
	</g>
</g>
</svg>
