<?xml version="1.0" encoding="UTF-8"?>
<svg width="108px" height="108px" viewBox="0 0 108 108" version="1.1" xmlns="http://www.w3.org/2000/svg"
     xmlns:xlink="http://www.w3.org/1999/xlink">
  <title>10</title>
  <defs>
    <polygon id="path-1" points="0.796928 0 24.920608 0 24.920608 24.153864 0.796928 24.153864"></polygon>
    <polygon id="path-3" points="0 62.72098 58.80196 62.72098 58.80196 0.00098 0 0.00098"></polygon>
  </defs>
  <g id="2021" stroke="none" stroke-width="1" fill="none" fill-rule="evenodd">
    <g id="GUEST_PC_Main" transform="translate(-531.000000, -481.000000)">
      <g id="10" transform="translate(531.000000, 481.000000)">
        <rect id="Rectangle-2-Copy-7" fill="NONE" x="0" y="0" width="107.8" height="107.8" rx="31.36"></rect>
        <g id="icon_10_m" transform="translate(25.480000, 23.520000)">
          <path
            d="M9.060296,61.495 L9.060296,61.495 C8.242976,61.13044 7.876456,60.172 8.239056,59.35272 L18.119416,37.11456 L21.079016,38.43364 L11.198656,60.67376 C10.834096,61.49108 9.875656,61.85956 9.060296,61.495"
            id="Fill-1" fill="#FFFFFF"></path>
          <path
            d="M18.488876,38.067904 L8.902516,59.641624 C8.698676,60.100264 8.902516,60.637304 9.359196,60.841144 C9.574796,60.937184 9.811956,60.943064 10.033436,60.860744 C10.256876,60.774504 10.435236,60.605944 10.533236,60.382504 L20.123516,38.797024 L18.488876,38.067904 Z M9.717876,62.354264 C9.392516,62.354264 9.067156,62.285664 8.761396,62.150424 C7.587356,61.625144 7.050316,60.241384 7.573636,59.065384 L17.453996,36.825264 C17.534356,36.648864 17.679396,36.513624 17.857756,36.443064 C18.040036,36.374464 18.239956,36.382304 18.418316,36.460704 L21.375956,37.781744 C21.738556,37.942464 21.901236,38.361904 21.742476,38.724504 L11.864076,60.962664 C11.605356,61.538904 11.138876,61.977944 10.548916,62.201384 C10.280396,62.303304 9.998156,62.354264 9.717876,62.354264 L9.717876,62.354264 Z"
            id="Fill-3" fill="#333333"></path>
          <path
            d="M42.764848,61.495 L42.764848,61.495 C43.582168,61.13044 43.948688,60.172 43.586088,59.35272 L33.705728,37.11456 L30.746128,38.43364 L40.626488,60.67376 C40.991048,61.49108 41.947528,61.85956 42.764848,61.495"
            id="Fill-5" fill="#FFFFFF"></path>
          <path
            d="M31.701628,38.797024 L41.291908,60.384464 C41.389908,60.605944 41.568268,60.774504 41.791708,60.860744 C42.015148,60.943064 42.250348,60.937184 42.465948,60.841144 C42.922628,60.637304 43.124508,60.100264 42.922628,59.639664 L33.334308,38.067904 L31.701628,38.797024 Z M42.107268,62.354264 C41.826988,62.354264 41.542788,62.303304 41.274268,62.201384 C40.684308,61.977944 40.217828,61.538904 39.963028,60.962664 L30.082668,38.724504 C29.923908,38.361904 30.086588,37.942464 30.447228,37.779784 L33.406828,36.460704 C33.585188,36.382304 33.783148,36.376424 33.965428,36.443064 C34.145748,36.511664 34.290788,36.648864 34.371148,36.825264 L44.251508,59.063424 C44.774828,60.241384 44.237788,61.625144 43.063748,62.150424 C42.757988,62.285664 42.432628,62.354264 42.107268,62.354264 L42.107268,62.354264 Z"
            id="Fill-7" fill="#333333"></path>
          <path
            d="M25.921196,62.001268 L25.903556,62.001268 C25.013716,62.001268 24.292436,61.279988 24.292436,60.390148 L24.292436,36.035188 L27.530356,36.035188 L27.530356,60.390148 C27.530356,61.279988 26.811036,62.001268 25.921196,62.001268"
            id="Fill-9" fill="#FFFFFF"></path>
          <path
            d="M25.019596,36.7549 L25.019596,60.39838 C25.019596,60.88838 25.419436,61.2843 25.913356,61.2843 C26.405316,61.2843 26.805156,60.88838 26.805156,60.39838 L26.805156,36.7549 L25.019596,36.7549 Z M25.913356,62.72098 C24.619756,62.72098 23.567236,61.67826 23.567236,60.39838 L23.567236,36.03558 C23.567236,35.63966 23.892596,35.31822 24.292436,35.31822 L27.530356,35.31822 C27.932156,35.31822 28.255556,35.63966 28.255556,36.03558 L28.255556,60.39838 C28.255556,61.67826 27.204996,62.72098 25.913356,62.72098 L25.913356,62.72098 Z"
            id="Fill-11" fill="#333333"></path>
          <path
            d="M22.406916,15.299172 C22.406916,19.781692 18.780916,23.413572 14.308196,23.413572 C9.837436,23.413572 6.211436,19.781692 6.211436,15.299172 C6.211436,10.818612 9.837436,7.184772 14.308196,7.184772 C18.780916,7.184772 22.406916,10.818612 22.406916,15.299172"
            id="Fill-13" fill="#FFC800"></path>
          <path
            d="M14.310548,7.903112 C10.245508,7.903112 6.937028,11.221392 6.937028,15.298192 C6.937028,19.376952 10.245508,22.695232 14.310548,22.695232 C18.373628,22.695232 21.680148,19.376952 21.680148,15.298192 C21.680148,11.221392 18.373628,7.903112 14.310548,7.903112 M14.310548,24.131912 C9.443868,24.131912 5.484668,20.168792 5.484668,15.298192 C5.484668,10.429552 9.443868,6.468392 14.310548,6.468392 C19.171348,6.468392 23.132508,10.429552 23.132508,15.298192 C23.132508,20.168792 19.171348,24.131912 14.310548,24.131912"
            id="Fill-15" fill="#333333"></path>
          <path
            d="M44.7958,12.077716 C44.7958,18.351676 39.7194,23.437876 33.45916,23.437876 C27.19696,23.437876 22.12252,18.351676 22.12252,12.077716 C22.12252,5.803756 27.19696,0.717556 33.45916,0.717556 C39.7194,0.717556 44.7958,5.803756 44.7958,12.077716"
            id="Fill-17" fill="#632ED8"></path>
          <g id="Group-21" transform="translate(20.600000, 0.000980)">
            <mask id="mask-2" fill="white">
              <use xlink:href="#path-1"></use>
            </mask>
            <g id="Clip-20"></g>
            <path
              d="M12.856808,1.435504 C7.010128,1.435504 2.249288,6.210064 2.249288,12.076344 C2.249288,17.944584 7.010128,22.719144 12.856808,22.719144 C18.707408,22.719144 23.468248,17.944584 23.468248,12.076344 C23.468248,6.210064 18.707408,1.435504 12.856808,1.435504 M12.856808,24.153864 C6.206528,24.153864 0.796928,18.736424 0.796928,12.076344 C0.796928,5.416264 6.206528,-0.001176 12.856808,-0.001176 C19.509048,-0.001176 24.920608,5.416264 24.920608,12.076344 C24.920608,18.736424 19.509048,24.153864 12.856808,24.153864"
              id="Fill-19" fill="#333333" mask="url(#mask-2)"></path>
          </g>
          <polygon id="Fill-22" fill="#FFFFFF"
                   points="58.073624 39.28232 49.976864 35.3094 49.976864 28.81788 58.073624 24.6764"></polygon>
          <path
            d="M50.702652,34.863696 L57.349012,38.125136 L57.349012,25.855536 L50.702652,29.256136 L50.702652,34.863696 Z M58.076172,40.000856 C57.964452,40.000856 57.852732,39.975376 57.752772,39.926376 L49.654052,35.953456 C49.407092,35.831936 49.250292,35.583016 49.250292,35.308616 L49.250292,28.817096 C49.250292,28.548576 49.401212,28.303576 49.644252,28.180096 L57.742972,24.038616 C57.966412,23.921016 58.238852,23.934736 58.452492,24.064096 C58.668092,24.193456 58.801372,24.426696 58.801372,24.677576 L58.801372,39.281536 C58.801372,39.530456 58.670052,39.761736 58.456412,39.893056 C58.340772,39.963616 58.207492,40.000856 58.076172,40.000856 L58.076172,40.000856 Z"
            id="Fill-24" fill="#333333"></path>
          <path
            d="M42.09688,42.26054 L9.72748,42.26054 C4.35512,42.26054 0,37.90542 0,32.53306 L0,32.51346 C0,27.1411 4.35512,22.78598 9.72748,22.78598 L42.09688,22.78598 C47.46924,22.78598 51.82436,27.1411 51.82436,32.51346 L51.82436,32.53306 C51.82436,37.90542 47.46924,42.26054 42.09688,42.26054"
            id="Fill-26" fill="#FFFFFF"></path>
          <path
            d="M42.045332,22.78598 L9.779812,22.78598 C4.378052,22.78598 0.001372,27.11758 0.001372,32.46054 L0.001372,32.58598 C0.001372,37.92894 4.378052,42.26054 9.779812,42.26054 L42.045332,42.26054 C47.445132,42.26054 51.823772,37.92894 51.823772,32.58598 L51.823772,32.46054 C51.823772,27.11758 47.445132,22.78598 42.045332,22.78598 M42.045332,24.22266 C46.637612,24.22266 50.371412,27.91922 50.371412,32.46054 L50.371412,32.58598 C50.371412,37.1273 46.637612,40.82386 42.045332,40.82386 L9.779812,40.82386 C5.187532,40.82386 1.451772,37.1273 1.451772,32.58598 L1.451772,32.46054 C1.451772,27.91922 5.187532,24.22266 9.779812,24.22266 L42.045332,24.22266"
            id="Fill-28" fill="#333333"></path>
          <polygon id="Fill-30" fill="#632ED8"
                   points="19.227796 36.696492 19.227796 37.745092 13.267436 37.745092 13.267436 27.304172 14.478716 27.304172 14.478716 36.696492"></polygon>
          <mask id="mask-4" fill="white">
            <use xlink:href="#path-3"></use>
          </mask>
          <g id="Clip-33"></g>
          <polygon id="Fill-32" fill="#632ED8" mask="url(#mask-4)"
                   points="20.5506 37.7447 21.76188 37.7447 21.76188 27.30182 20.5506 27.30182"></polygon>
          <polygon id="Fill-34" fill="#632ED8" mask="url(#mask-4)"
                   points="27.128948 36.58634 27.375908 35.62202 30.102268 27.30378 31.395868 27.30378 27.871788 37.7447 26.399828 37.7447 22.875748 27.30378 24.167388 27.30378 26.893748 35.62202"></polygon>
          <polygon id="Fill-35" fill="#632ED8" mask="url(#mask-4)"
                   points="39.131988 37.745288 32.691428 37.745288 32.691428 27.302408 39.131988 27.302408 39.131988 28.339248 33.887028 28.339248 33.887028 31.537968 38.761548 31.537968 38.761548 32.559128 33.887028 32.559128 33.887028 36.696688 39.131988 36.696688"></polygon>
        </g>
      </g>
    </g>
  </g>
</svg>
