<?xml version="1.0" encoding="UTF-8"?>
<svg width="108px" height="108px" viewBox="0 0 108 108" version="1.1" xmlns="http://www.w3.org/2000/svg"
     xmlns:xlink="http://www.w3.org/1999/xlink">
  <title>14</title>
  <defs>
    <polygon id="path-1" points="0.786774039 0 20.054328 0 20.054328 21.92554 0.786774039 21.92554"></polygon>
    <polygon id="path-3" points="0.786119214 0 20.054524 0 20.054524 21.926128 0.786119214 21.926128"></polygon>
  </defs>
  <g id="2021" stroke="none" stroke-width="1" fill="none" fill-rule="evenodd">
    <g id="GUEST_PC_Main" transform="translate(-1131.000000, -481.000000)">
      <g id="14" transform="translate(1131.000000, 481.000000)">
        <rect id="Rectangle-2-Copy-8" fill="#FFFFF" x="0" y="0" width="107.8" height="107.8" rx="31.36"></rect>
        <g id="icon_14_m" transform="translate(25.480000, 23.520000)">
          <polygon id="Fill-1" fill="#FFFFFF"
                   points="25.378668 16.073372 23.367708 62.721372 35.427588 62.721372 33.418588 16.073372"></polygon>
          <path
            d="M25.378668,16.073372 L23.367708,62.721372 L35.427588,62.721372 L33.418588,16.073372 L25.378668,16.073372 Z M26.785948,17.543372 L32.013268,17.543372 L33.894868,61.249412 L24.904348,61.249412 L26.785948,17.543372 Z"
            id="Fill-2" fill="#333333"></path>
          <g id="Group-49" transform="translate(0.000000, 0.000588)">
            <path
              d="M26.189716,6.195364 C21.618996,2.061724 15.252916,1.175804 9.896236,3.367084 L30.591876,22.083124 C32.261796,16.559844 30.760436,10.329004 26.189716,6.195364"
              id="Fill-3" fill="#FFC800"></path>
            <path
              d="M15.819356,2.204608 C13.802516,2.204608 11.787636,2.594648 9.898196,3.366888 L30.591876,22.084888 C32.261796,16.559648 30.760436,10.330768 26.189716,6.195168 C23.232076,3.519768 19.519836,2.204608 15.819356,2.204608 M15.819356,3.674608 C19.296396,3.674608 22.630356,4.956448 25.203836,7.284928 C28.569156,10.328808 30.205756,14.844648 29.680476,19.276208 L12.791156,3.999968 C13.778996,3.784368 14.792316,3.674608 15.819356,3.674608"
              id="Fill-5" fill="#333333"></path>
            <path
              d="M41.561604,13.226668 C35.391524,13.226668 30.079924,16.835028 27.590724,22.044708 L55.532484,22.044708 C53.045244,16.835028 47.733644,13.226668 41.561604,13.226668"
              id="Fill-7" fill="#FFC800"></path>
            <path
              d="M41.561604,13.226668 C35.391524,13.226668 30.079924,16.835028 27.590724,22.044708 L55.532484,22.044708 C53.045244,16.835028 47.733644,13.226668 41.561604,13.226668 M41.561604,14.696668 C46.104884,14.696668 50.360044,16.942828 52.962924,20.574708 L30.162244,20.574708 C32.763164,16.942828 37.018324,14.696668 41.561604,14.696668"
              id="Fill-9" fill="#333333"></path>
            <g id="Group-13" transform="translate(27.440000, 0.000000)">
              <mask id="mask-2" fill="white">
                <use xlink:href="#path-1"></use>
              </mask>
              <g id="Clip-12"></g>
              <path
                d="M4.331208,5.57522 C0.395528,10.3145 -0.202272,16.6943 2.237928,21.92554 L20.054328,0.47138 C14.442848,-0.94178 8.268848,0.83594 4.331208,5.57522"
                id="Fill-11" fill="#FFC800" mask="url(#mask-2)"></path>
            </g>
            <g id="Group-16" transform="translate(27.440000, 0.000000)">
              <mask id="mask-4" fill="white">
                <use xlink:href="#path-3"></use>
              </mask>
              <g id="Clip-15"></g>
              <path
                d="M16.244284,-0.000392 C11.795084,-0.000392 7.389004,1.892968 4.331404,5.575808 C0.395724,10.315088 -0.204036,16.694888 2.238124,21.926128 L20.054524,0.471968 C18.802084,0.156408 17.522204,-0.000392 16.244284,-0.000392 M16.244284,1.469608 C16.591204,1.469608 16.938124,1.481368 17.281124,1.508808 L2.737924,19.019448 C1.585444,14.705488 2.565444,10.003448 5.462324,6.514648 C8.124004,3.308088 12.053804,1.469608 16.244284,1.469608"
                id="Fill-14" fill="#333333" mask="url(#mask-4)"></path>
            </g>
            <path
              d="M37.75646,8.279824 C32.13126,10.810184 28.7777,16.276624 28.65814,22.042944 L54.1303,10.590664 C49.71442,6.862744 43.38166,5.749464 37.75646,8.279824"
              id="Fill-17" fill="#FFC800"></path>
            <path
              d="M44.091964,6.915076 C41.971244,6.915076 39.817204,7.354116 37.757244,8.279236 C32.130084,10.809596 28.778484,16.276036 28.658924,22.044316 L54.129124,10.590076 C51.330244,8.226316 47.761084,6.915076 44.091964,6.915076 M44.091964,8.385076 C46.590964,8.385076 49.039004,9.055396 51.181284,10.303916 L30.393524,19.653116 C31.265724,15.274476 34.217484,11.483836 38.358964,9.619876 C40.181764,8.800596 42.110404,8.385076 44.091964,8.385076"
              id="Fill-19" fill="#333333"></path>
            <path
              d="M17.235848,13.226668 C11.065768,13.226668 5.754168,16.835028 3.264968,22.044708 L31.206728,22.044708 C28.719488,16.835028 23.405928,13.226668 17.235848,13.226668"
              id="Fill-21" fill="#FFC800"></path>
            <path
              d="M17.235848,13.226668 C11.065768,13.226668 5.754168,16.835028 3.264968,22.044708 L31.206728,22.044708 C28.719488,16.835028 23.405928,13.226668 17.235848,13.226668 M17.235848,14.696668 C21.779128,14.696668 26.034288,16.942828 28.635208,20.574708 L5.836488,20.574708 C8.439368,16.942828 12.692568,14.696668 17.235848,14.696668"
              id="Fill-23" fill="#333333"></path>
            <path
              d="M30.180668,22.471596 C30.180668,24.684436 28.381388,26.477836 26.160708,26.477836 C23.938068,26.477836 22.136828,24.684436 22.136828,22.471596 C22.136828,20.258756 23.938068,18.463396 26.160708,18.463396 C28.381388,18.463396 30.180668,20.258756 30.180668,22.471596"
              id="Fill-25" fill="#632ED8"></path>
            <path
              d="M26.1611,18.463592 C23.93846,18.463592 22.13918,20.258952 22.13918,22.471792 C22.13918,24.684632 23.93846,26.478032 26.1611,26.478032 C28.38178,26.478032 30.18106,24.684632 30.18106,22.471792 C30.18106,20.258952 28.38178,18.463592 26.1611,18.463592 M26.1611,19.933592 C27.56642,19.933592 28.71106,21.072352 28.71106,22.471792 C28.71106,23.871232 27.56642,25.008032 26.1611,25.008032 C24.75382,25.008032 23.60918,23.871232 23.60918,22.471792 C23.60918,21.072352 24.75382,19.933592 26.1611,19.933592"
              id="Fill-27" fill="#333333"></path>
            <path
              d="M36.435812,20.080004 C36.435812,22.292844 34.634572,24.086244 32.413892,24.086244 C30.191252,24.086244 28.391972,22.292844 28.391972,20.080004 C28.391972,17.867164 30.191252,16.071804 32.413892,16.071804 C34.634572,16.071804 36.435812,17.867164 36.435812,20.080004"
              id="Fill-29" fill="#632ED8"></path>
            <path
              d="M32.414284,16.072 C30.193604,16.072 28.394324,17.86736 28.394324,20.0802 C28.394324,22.29304 30.193604,24.08644 32.414284,24.08644 C34.634964,24.08644 36.436204,22.29304 36.436204,20.0802 C36.436204,17.86736 34.634964,16.072 32.414284,16.072 M32.414284,17.542 C33.821564,17.542 34.966204,18.68076 34.966204,20.0802 C34.966204,21.47964 33.821564,22.61644 32.414284,22.61644 C31.007004,22.61644 29.864324,21.47964 29.864324,20.0802 C29.864324,18.68076 31.007004,17.542 32.414284,17.542"
              id="Fill-31" fill="#333333"></path>
            <path
              d="M48.65504,52.312792 L10.143,52.312792 C4.53936,52.312792 0,47.771472 0,42.169792 L0,41.456352 C0,35.854672 4.53936,31.313352 10.143,31.313352 L48.65504,31.313352 C54.25672,31.313352 58.8,35.854672 58.8,41.456352 L58.8,42.169792 C58.8,47.771472 54.25672,52.312792 48.65504,52.312792"
              id="Fill-33" fill="#FFFFFF"></path>
            <path
              d="M48.65504,31.312568 L10.143,31.312568 C4.53936,31.312568 0,35.853888 0,41.457528 L0,42.169008 C0,47.770688 4.53936,52.312008 10.143,52.312008 L48.65504,52.312008 C54.25672,52.312008 58.8,47.770688 58.8,42.169008 L58.8,41.457528 C58.8,35.853888 54.25672,31.312568 48.65504,31.312568 M48.65504,32.782568 C53.43744,32.782568 57.33,36.673168 57.33,41.457528 L57.33,42.169008 C57.33,46.951408 53.43744,50.842008 48.65504,50.842008 L10.143,50.842008 C5.3606,50.842008 1.47,46.951408 1.47,42.169008 L1.47,41.457528 C1.47,36.673168 5.3606,32.782568 10.143,32.782568 L48.65504,32.782568"
              id="Fill-35" fill="#333333"></path>
            <path
              d="M20.912612,44.828728 C21.024332,44.744448 21.094892,44.773848 21.094892,44.883608 L21.094892,46.104688 C20.232492,46.839688 19.125092,47.186608 17.821692,47.186608 C14.826812,47.186608 13.064772,45.022768 13.064772,41.820128 C13.064772,38.478328 15.146292,36.439928 17.988292,36.439928 C19.193692,36.439928 20.163892,36.675128 21.010612,37.341528 L21.010612,38.617488 C21.010612,38.740968 20.926332,38.768408 20.830292,38.672368 C20.109012,37.882488 19.193692,37.478728 18.070612,37.478728 C15.991052,37.478728 14.354452,38.989888 14.354452,41.749568 C14.354452,44.620968 15.671572,46.118408 18.029452,46.118408 C19.138812,46.118408 20.109012,45.673488 20.912612,44.828728"
              id="Fill-37" fill="#632ED8"></path>
            <path
              d="M25.881604,37.438548 L25.603284,38.408748 L24.107804,43.067668 L27.655404,43.067668 L26.159924,38.408748 L25.881604,37.438548 Z M26.644044,36.564388 L30.234764,47.060188 L28.974484,47.060188 L28.031724,44.065308 L23.747164,44.065308 L22.790684,47.060188 L21.528444,47.060188 L25.105444,36.564388 L26.644044,36.564388 Z"
              id="Fill-39" fill="#632ED8"></path>
            <polygon id="Fill-41" fill="#632ED8"
                     points="37.741172 36.56478 37.741172 37.60358 32.778452 37.60358 32.778452 40.87678 37.545172 40.87678 37.545172 41.90382 32.778452 41.90382 32.778452 47.06058 31.557372 47.06058 31.557372 36.56478"></polygon>
            <polygon id="Fill-43" fill="#632ED8"
                     points="45.732288 47.06058 39.242728 47.06058 39.242728 36.56478 45.732288 36.56478 45.732288 37.60358 40.450088 37.60358 40.450088 40.8219 45.357928 40.8219 45.357928 41.84698 40.450088 41.84698 40.450088 46.0061 45.732288 46.0061"></polygon>
            <path
              d="M53.562684,24.085068 C53.076604,25.312028 52.098564,26.290068 50.871604,26.778108 C50.552124,26.903548 50.552124,27.322988 50.871604,27.448428 C52.098564,27.934508 53.076604,28.912548 53.562684,30.141468 C53.686164,30.458988 54.107564,30.458988 54.234964,30.141468 C54.721044,28.912548 55.701044,27.934508 56.928004,27.448428 C57.245524,27.322988 57.245524,26.903548 56.928004,26.778108 C55.701044,26.290068 54.721044,25.312028 54.234964,24.085068 C54.107564,23.765588 53.686164,23.765588 53.562684,24.085068"
              id="Fill-45" fill="#FFFFFF"></path>
            <path
              d="M51.861208,27.113268 C52.705968,27.601308 53.411568,28.304948 53.899608,29.151668 C54.385688,28.306908 55.091288,27.601308 55.938008,27.113268 C55.091288,26.625228 54.385688,25.919628 53.899608,25.074868 C53.411568,25.919628 52.705968,26.625228 51.861208,27.113268 M53.899608,31.115588 C53.450768,31.115588 53.048968,30.839228 52.880408,30.413908 C52.470768,29.375108 51.637768,28.542108 50.600928,28.132468 C50.173648,27.963908 49.897288,27.562108 49.897288,27.113268 C49.897288,26.664428 50.173648,26.262628 50.600928,26.094068 C51.637768,25.682468 52.470768,24.851428 52.880408,23.814588 C53.215568,22.963948 54.579728,22.958068 54.920768,23.814588 C55.330408,24.851428 56.159488,25.682468 57.200248,26.094068 C57.625568,26.262628 57.899968,26.664428 57.899968,27.113268 C57.899968,27.562108 57.625568,27.963908 57.200248,28.132468 C56.159488,28.544068 55.330408,29.375108 54.920768,30.411948 C54.748288,30.839228 54.350408,31.115588 53.899608,31.115588"
              id="Fill-47" fill="#333333"></path>
          </g>
        </g>
      </g>
    </g>
  </g>
</svg>
