<svg width="56" height="56" viewBox="0 0 56 56" fill="none" xmlns="http://www.w3.org/2000/svg">
<path d="M18.3627 38.3312L18.9592 24.2385H20.6493L21.1961 38.3312H18.3627Z" fill="white"/>
<path d="M20.3014 24.6093L20.8482 37.9073H18.7604L19.3072 24.6093H20.3014ZM20.9973 23.8676H18.6113L18.0148 38.702H21.6435L20.9973 23.8676Z" fill="#333333"/>
<path d="M14.6843 19.9471C15.0323 19.8412 15.3802 19.7882 15.7282 19.7882C16.7721 19.7882 17.816 20.212 18.5616 20.9538C19.6055 21.9604 20.1026 23.4968 19.9037 24.9803L14.6843 19.9471Z" fill="#FFD014"/>
<path d="M15.7281 20.212C16.6726 20.212 17.617 20.5829 18.313 21.2716C19.1083 22.0133 19.5557 23.0729 19.5557 24.1855L15.4299 20.212C15.579 20.212 15.6784 20.212 15.7281 20.212ZM15.7281 19.4173C15.1316 19.4173 14.5351 19.5233 13.9386 19.7882L20.1025 25.7749C20.5996 24.0266 20.1522 22.0133 18.8101 20.6888C17.965 19.8411 16.8217 19.4173 15.7281 19.4173Z" fill="#333333"/>
<path d="M19.9037 25.351C20.699 24.0795 22.0412 23.3378 23.433 23.3378C24.8746 23.3378 26.2167 24.1325 26.9623 25.351H19.9037Z" fill="#FFD014"/>
<path d="M23.433 23.7086C24.4769 23.7086 25.471 24.1855 26.2167 24.9802H20.6493C21.3949 24.1855 22.3891 23.7086 23.433 23.7086ZM23.433 22.9139C21.5938 22.9139 20.0031 24.0795 19.2574 25.7219H27.6085C26.8629 24.0795 25.2722 22.9139 23.433 22.9139Z" fill="#333333"/>
<path d="M20.0033 24.9272C19.6057 23.4968 19.9039 21.9074 20.7987 20.7418C21.594 19.6822 22.787 19.0994 24.0794 19.0994C24.2286 19.0994 24.3777 19.0994 24.5268 19.0994L20.0033 24.9272Z" fill="#FFD014"/>
<path d="M23.7313 19.5232L20.202 24.0795C20.1026 22.9669 20.4009 21.8543 21.0471 21.0067C21.743 20.159 22.6875 19.6292 23.7313 19.5232ZM24.0793 18.7285C22.7372 18.7285 21.4447 19.3113 20.5003 20.5298C19.3073 22.0133 19.1581 24.0795 19.8541 25.7219L25.1729 18.8875C24.8249 18.7815 24.4273 18.7285 24.0793 18.7285Z" fill="#333333"/>
<path d="M20.0032 25.1392C20.2517 23.6557 21.1465 22.3842 22.4389 21.7484C22.9857 21.4835 23.5822 21.3246 24.1787 21.3246C24.974 21.3246 25.7694 21.5895 26.4653 22.0133L20.0032 25.1392Z" fill="#FFD014"/>
<path d="M24.1787 21.6955C24.6758 21.6955 25.1729 21.8014 25.6203 21.9604L20.55 24.3974C20.8979 23.3908 21.6436 22.4902 22.588 22.0663C23.0851 21.8544 23.6319 21.6955 24.1787 21.6955ZM24.1787 20.9537C23.5325 20.9537 22.8863 21.1127 22.2898 21.3776C20.5997 22.1723 19.6055 23.9206 19.5558 25.7749L27.1612 22.1193C26.3659 21.3246 25.2723 20.9537 24.1787 20.9537Z" fill="#333333"/>
<path d="M12.5966 25.351C13.3919 24.0795 14.734 23.3378 16.1259 23.3378C17.5674 23.3378 18.9096 24.1325 19.6552 25.351H12.5966Z" fill="#FFD014"/>
<path d="M16.1755 23.7086C17.2194 23.7086 18.2136 24.1855 18.9592 24.9802H13.3918C14.0878 24.1855 15.1317 23.7086 16.1755 23.7086ZM16.1755 22.9139C14.3363 22.9139 12.7456 24.0795 12 25.7219H20.3511C19.6054 24.0795 18.0148 22.9139 16.1755 22.9139Z" fill="#333333"/>
<path d="M18.8101 26.7816C19.2768 26.7816 19.6552 26.3783 19.6552 25.8809C19.6552 25.3835 19.2768 24.9802 18.8101 24.9802C18.3434 24.9802 17.9651 25.3835 17.9651 25.8809C17.9651 26.3783 18.3434 26.7816 18.8101 26.7816Z" fill="#632ED8"/>
<path d="M18.8102 25.404C19.0587 25.404 19.2576 25.6159 19.2576 25.8808C19.2576 26.1457 19.0587 26.3577 18.8102 26.3577C18.5617 26.3577 18.3628 26.1457 18.3628 25.8808C18.3628 25.6159 18.5617 25.404 18.8102 25.404ZM18.8102 24.6093C18.164 24.6093 17.6172 25.1921 17.6172 25.8808C17.6172 26.5696 18.164 27.1524 18.8102 27.1524C19.4564 27.1524 20.0032 26.5696 20.0032 25.8808C20.0032 25.1921 19.5061 24.6093 18.8102 24.6093Z" fill="#333333"/>
<path d="M20.699 26.0398C21.1657 26.0398 21.544 25.6366 21.544 25.1392C21.544 24.6418 21.1657 24.2385 20.699 24.2385C20.2323 24.2385 19.8539 24.6418 19.8539 25.1392C19.8539 25.6366 20.2323 26.0398 20.699 26.0398Z" fill="#632ED8"/>
<path d="M20.6991 24.6093C20.9476 24.6093 21.1464 24.8213 21.1464 25.0862C21.1464 25.3511 20.9476 25.563 20.6991 25.563C20.4505 25.563 20.2517 25.3511 20.2517 25.0862C20.2517 24.8213 20.4505 24.6093 20.6991 24.6093ZM20.6991 23.8676C20.0528 23.8676 19.506 24.4504 19.506 25.1391C19.506 25.8279 20.0528 26.4107 20.6991 26.4107C21.3453 26.4107 21.8921 25.8279 21.8921 25.1391C21.8921 24.4504 21.3453 23.8676 20.6991 23.8676Z" fill="#333333"/>
<path d="M43.6147 43.5762H25.9681L19.158 29.7484H36.8046L43.6147 43.5762Z" fill="#632ED8"/>
<path d="M43.6147 44H25.9681C25.819 44 25.7195 43.894 25.6201 43.788L18.8597 29.9072C18.81 29.8013 18.81 29.6423 18.8597 29.5364C18.9094 29.4304 19.0586 29.3245 19.158 29.3245H36.8046C36.9537 29.3245 37.0531 29.4304 37.1525 29.5364L43.9626 43.4172C44.0124 43.5231 44.0124 43.6821 43.9626 43.788C43.8632 43.894 43.7638 44 43.6147 44ZM26.1669 43.2053H42.9685L36.6058 30.1192H19.7545L26.1669 43.2053Z" fill="#333333"/>
<path d="M19.158 29.7484L12.3976 43.5762H25.9681L19.158 29.7484Z" fill="white"/>
<path d="M25.9682 43.9999H12.3977C12.2485 43.9999 12.1491 43.9469 12.0994 43.788C12.0497 43.682 12.0497 43.5231 12.0994 43.4171L18.9095 29.5363C19.0586 29.2714 19.4563 29.2714 19.5557 29.5363L26.2664 43.4171C26.3161 43.5231 26.3161 43.682 26.2664 43.788C26.2167 43.8939 26.0676 43.9999 25.9682 43.9999ZM12.9942 43.2052H25.3716L19.1581 30.5959L12.9942 43.2052Z" fill="#333333"/>
<path d="M19.158 44C18.9592 44 18.8101 43.841 18.8101 43.6291V29.7483C18.8101 29.5364 18.9592 29.3774 19.158 29.3774C19.3569 29.3774 19.506 29.5364 19.506 29.7483V43.6291C19.5557 43.788 19.3569 44 19.158 44Z" fill="#333333"/>
<path d="M28.0559 33.6159C25.0236 33.6159 22.0908 32.6623 19.5557 30.8609C19.4066 30.755 19.3568 30.4901 19.4563 30.3311C19.5557 30.1722 19.8042 30.1192 19.9534 30.2252C22.3394 31.9205 25.1231 32.8742 28.0062 32.8742C31.1875 32.8742 34.2198 31.7616 36.7549 29.7483C36.904 29.6424 37.1526 29.6424 37.252 29.8013C37.3514 29.9603 37.3514 30.2252 37.2023 30.3311C34.5677 32.5033 31.3864 33.6159 28.0559 33.6159Z" fill="#333333"/>
<path d="M19.8539 31.3377C20.2107 31.3377 20.5001 31.0294 20.5001 30.649C20.5001 30.2686 20.2107 29.9603 19.8539 29.9603C19.497 29.9603 19.2076 30.2686 19.2076 30.649C19.2076 31.0294 19.497 31.3377 19.8539 31.3377Z" fill="#FFD014"/>
<path d="M22.8861 33.3509C23.243 33.3509 23.5323 33.0426 23.5323 32.6622C23.5323 32.2818 23.243 31.9734 22.8861 31.9734C22.5292 31.9734 22.2399 32.2818 22.2399 32.6622C22.2399 33.0426 22.5292 33.3509 22.8861 33.3509Z" fill="#FFD014"/>
<path d="M26.5645 34.1457C26.9214 34.1457 27.2108 33.8373 27.2108 33.4569C27.2108 33.0766 26.9214 32.7682 26.5645 32.7682C26.2077 32.7682 25.9183 33.0766 25.9183 33.4569C25.9183 33.8373 26.2077 34.1457 26.5645 34.1457Z" fill="#FFD014"/>
<path d="M30.3921 34.1457C30.749 34.1457 31.0383 33.8373 31.0383 33.4569C31.0383 33.0766 30.749 32.7682 30.3921 32.7682C30.0352 32.7682 29.7458 33.0766 29.7458 33.4569C29.7458 33.8373 30.0352 34.1457 30.3921 34.1457Z" fill="#FFD014"/>
<path d="M33.7226 33.086C34.0795 33.086 34.3688 32.7777 34.3688 32.3973C34.3688 32.0169 34.0795 31.7086 33.7226 31.7086C33.3657 31.7086 33.0764 32.0169 33.0764 32.3973C33.0764 32.7777 33.3657 33.086 33.7226 33.086Z" fill="#FFD014"/>
<path d="M36.6057 31.5496C36.9626 31.5496 37.2519 31.2412 37.2519 30.8609C37.2519 30.4805 36.9626 30.1721 36.6057 30.1721C36.2488 30.1721 35.9595 30.4805 35.9595 30.8609C35.9595 31.2412 36.2488 31.5496 36.6057 31.5496Z" fill="#FFD014"/>
<path d="M38.269 20.5298C39.779 20.5298 41.003 19.2252 41.003 17.6159C41.003 16.0066 39.779 14.702 38.269 14.702C36.7591 14.702 35.535 16.0066 35.535 17.6159C35.535 19.2252 36.7591 20.5298 38.269 20.5298Z" fill="#FFD014"/>
<path d="M38.2691 20.9007C36.5293 20.9007 35.1375 19.4172 35.1375 17.5629C35.1375 15.7086 36.5293 14.2252 38.2691 14.2252C40.0089 14.2252 41.4008 15.7086 41.4008 17.5629C41.4008 19.4172 39.9592 20.9007 38.2691 20.9007ZM38.2691 15.0728C36.9767 15.0728 35.8831 16.1854 35.8831 17.6159C35.8831 18.9934 36.927 20.1589 38.2691 20.1589C39.5615 20.1589 40.6551 19.0464 40.6551 17.6159C40.6054 16.1854 39.5615 15.0728 38.2691 15.0728Z" fill="#333333"/>
<path d="M38.2691 13.5894C38.0703 13.5894 37.9211 13.4305 37.9211 13.2185V12.3709C37.9211 12.1589 38.0703 12 38.2691 12C38.4679 12 38.6171 12.1589 38.6171 12.3709V13.2185C38.6171 13.4305 38.4679 13.5894 38.2691 13.5894Z" fill="#333333"/>
<path d="M38.2691 23.1788C38.0703 23.1788 37.9211 23.0199 37.9211 22.808V21.9603C37.9211 21.7484 38.0703 21.5894 38.2691 21.5894C38.4679 21.5894 38.6171 21.7484 38.6171 21.9603V22.808C38.6171 23.0199 38.4679 23.1788 38.2691 23.1788Z" fill="#333333"/>
<path d="M41.1523 14.9139C41.0528 14.9139 40.9534 14.8609 40.9037 14.808C40.7546 14.649 40.7546 14.3841 40.9037 14.2782L41.4505 13.6954C41.5996 13.5364 41.8482 13.5364 41.9476 13.6954C42.0967 13.8543 42.0967 14.1192 41.9476 14.2252L41.4008 14.755C41.3511 14.8609 41.2517 14.9139 41.1523 14.9139Z" fill="#333333"/>
<path d="M34.7895 21.6424C34.69 21.6424 34.5906 21.5895 34.5409 21.5365C34.3918 21.3775 34.3918 21.1126 34.5409 21.0067L35.0877 20.4239C35.2368 20.265 35.4854 20.265 35.5848 20.4239C35.7339 20.5828 35.7339 20.8477 35.5848 20.9537L35.038 21.5365C34.9883 21.6424 34.8889 21.6424 34.7895 21.6424Z" fill="#333333"/>
<path d="M43.1406 17.9867H42.3453C42.1464 17.9867 41.9973 17.8278 41.9973 17.6159C41.9973 17.4039 42.1464 17.245 42.3453 17.245H43.1406C43.3395 17.245 43.4886 17.4039 43.4886 17.6159C43.4886 17.8278 43.3395 17.9867 43.1406 17.9867Z" fill="#333333"/>
<path d="M34.1433 17.9867H33.348C33.1491 17.9867 33 17.8278 33 17.6159C33 17.4039 33.1491 17.245 33.348 17.245H34.1433C34.3421 17.245 34.4913 17.4039 34.4913 17.6159C34.4913 17.8278 34.3421 17.9867 34.1433 17.9867Z" fill="#333333"/>
<path d="M41.6991 21.6424C41.5996 21.6424 41.5002 21.5895 41.4505 21.5365L40.9037 20.9537C40.7546 20.7948 40.7546 20.5299 40.9037 20.4239C41.0528 20.265 41.3014 20.265 41.4008 20.4239L41.9476 21.0067C42.0967 21.1656 42.0967 21.4305 41.9476 21.5365C41.8979 21.6424 41.7985 21.6424 41.6991 21.6424Z" fill="#333333"/>
<path d="M35.3859 14.9139C35.2865 14.9139 35.1871 14.8609 35.1374 14.808L34.5906 14.2252C34.4415 14.0662 34.4415 13.8013 34.5906 13.6954C34.7397 13.5364 34.9883 13.5364 35.0877 13.6954L35.6345 14.2782C35.7836 14.4371 35.7836 14.702 35.6345 14.808C35.5351 14.8609 35.4357 14.9139 35.3859 14.9139Z" fill="#333333"/>
</svg>
