<?xml version="1.0" encoding="UTF-8"?>
<svg width="108px" height="108px" viewBox="0 0 108 108" version="1.1" xmlns="http://www.w3.org/2000/svg"
>
  <title>19</title>
  <g id="2021" stroke="none" stroke-width="1" fill="none" fill-rule="evenodd">
    <g id="GUEST_PC_Main" transform="translate(-681.000000, -683.000000)">
      <g id="19" transform="translate(681.000000, 683.000000)">
        <rect id="Rectangle-2-Copy-6" fill="#FFFFF" x="0" y="0" width="107.8" height="107.8" rx="31.36"></rect>
        <g id="icon_19_m" transform="translate(25.480000, 26.480000)">
          <polygon id="Fill-1" fill="#FFC800"
                   points="0.71736 28.177736 58.08068 28.177736 58.08068 21.006096 0.71736 21.006096"></polygon>
          <path
            d="M0,28.893136 L58.8,28.893136 L58.8,20.286776 L0,20.286776 L0,28.893136 Z M1.43472,27.460376 L57.36528,27.460376 L57.36528,21.723456 L1.43472,21.723456 L1.43472,27.460376 Z"
            id="Fill-2" fill="#333333"></path>
          <polygon id="Fill-3" fill="#632ED8"
                   points="7.89096 46.329296 50.91296 46.329296 50.91296 28.177736 7.89096 28.177736"></polygon>
          <path
            d="M8.60636,45.611936 L50.19756,45.611936 L50.19756,28.895096 L8.60636,28.895096 L8.60636,45.611936 Z M7.16968,47.046656 L51.63032,47.046656 L51.63032,27.460376 L7.16968,27.460376 L7.16968,47.046656 Z"
            id="Fill-4" fill="#333333"></path>
          <polygon id="Fill-5" fill="#333333"
                   points="18.765432 21.25776 17.418912 20.75404 22.799112 6.41272 24.143672 6.91644"></polygon>
          <g id="Group-20" transform="translate(1.960000, 0.539776)">
            <path
              d="M20.859496,8.019144 L20.859496,8.019144 C19.920656,7.697704 19.424776,6.678504 19.746216,5.741624 L20.906536,2.350824 C21.226016,1.413944 22.247176,0.914144 23.186016,1.235584 C24.120936,1.557024 24.620736,2.576224 24.299296,3.513104 L23.137016,6.903904 C22.815576,7.840784 21.798336,8.340584 20.859496,8.019144"
              id="Fill-6" fill="#FFFFFF"></path>
            <path
              d="M21.090972,7.340592 C21.651532,7.528752 22.268932,7.232792 22.459052,6.672232 L23.621332,3.279472 C23.715412,3.008992 23.695812,2.716952 23.570372,2.458232 C23.442972,2.199512 23.223452,2.007432 22.952972,1.913352 C22.672692,1.819272 22.386532,1.838872 22.129772,1.966272 C21.873012,2.091712 21.678972,2.311232 21.584892,2.583672 L20.422612,5.974472 C20.230532,6.535032 20.530412,7.146552 21.090972,7.340592 M21.437892,8.832152 C21.169372,8.832152 20.893012,8.789032 20.628412,8.698872 L20.626452,8.696912 C19.317172,8.248072 18.615492,6.817272 19.066292,5.509952 L20.230532,2.117192 C20.446132,1.484112 20.896932,0.972552 21.500612,0.676592 C22.104292,0.382592 22.782452,0.339472 23.417492,0.557032 C24.050572,0.774592 24.562132,1.225392 24.858092,1.827112 C25.152092,2.430792 25.195212,3.110912 24.973732,3.745952 L23.815372,7.136752 C23.458652,8.177512 22.482572,8.832152 21.437892,8.832152"
              id="Fill-8" fill="#333333"></path>
            <polygon id="Fill-10" fill="#333333"
                     points="38.074568 20.717984 32.696328 6.376664 34.040888 5.872944 39.421088 20.214264"></polygon>
            <path
              d="M34.020504,8.019144 L34.020504,8.019144 C34.957384,7.697704 35.455224,6.678504 35.133784,5.741624 L33.973464,2.350824 C33.652024,1.413944 32.632824,0.914144 31.693984,1.235584 C30.759064,1.557024 30.259264,2.576224 30.580704,3.513104 L31.742984,6.903904 C32.064424,7.840784 33.081664,8.340584 34.020504,8.019144"
              id="Fill-12" fill="#FFFFFF"></path>
            <path
              d="M32.276888,1.855924 C32.159288,1.855924 32.043648,1.873564 31.928008,1.912764 C31.657528,2.006844 31.436048,2.200884 31.310608,2.459604 C31.183208,2.716364 31.165568,3.008404 31.255728,3.280844 L32.419968,6.673604 C32.612048,7.234164 33.227488,7.530124 33.788048,7.340004 C34.350568,7.147924 34.650448,6.534444 34.456408,5.975844 L33.296088,2.583084 C33.202008,2.310644 33.006008,2.091124 32.749248,1.965684 C32.600288,1.893164 32.439568,1.855924 32.276888,1.855924 M33.443088,8.833524 C32.398408,8.833524 31.420368,8.176924 31.065608,7.138124 L29.903328,3.745364 C29.685768,3.112284 29.726928,2.430204 30.022888,1.828484 C30.316888,1.226764 30.830408,0.774004 31.463488,0.556444 C32.092648,0.340844 32.776688,0.382004 33.378408,0.676004 C33.982088,0.971964 34.434848,1.483524 34.650448,2.118564 L35.814688,5.509364 C36.263528,6.818644 35.563808,8.249444 34.254528,8.698284 L34.252568,8.698284 C33.986008,8.790404 33.709648,8.833524 33.443088,8.833524"
              id="Fill-14" fill="#333333"></path>
            <path
              d="M54.032104,39.447156 C36.266664,28.723996 18.499264,51.299276 0.733824,40.431076 L0.733824,40.468316 C2.068584,43.055516 3.405304,45.452596 4.742024,47.688956 C3.405304,48.941396 2.068584,50.033116 0.733824,50.936676 L0.733824,51.120916 C18.538464,62.010676 36.343104,39.315836 54.147744,50.205596 C52.763984,47.577236 51.378264,45.152716 49.994504,42.898716 C51.341024,41.575716 52.685584,40.417356 54.032104,39.447156"
              id="Fill-16" fill="#FFFFFF"></path>
            <path
              d="M2.055648,51.150512 C18.929288,59.937192 35.806848,40.041232 52.682448,48.667192 C51.598568,46.716992 50.514688,44.884392 49.430808,43.155672 C49.230888,42.838152 49.228928,42.481432 49.424928,42.281512 C50.479408,41.207432 51.535848,40.231352 52.592288,39.366992 C35.775488,30.872352 18.960648,50.597792 2.143848,41.942432 C3.200288,43.884792 4.254768,45.715432 5.311208,47.446112 C5.507208,47.765592 5.507208,48.122312 5.305328,48.316352 C4.221448,49.368872 3.139528,50.319472 2.055648,51.150512 M54.146568,50.923152 C36.341928,40.031432 18.537288,62.730192 0.732648,51.836512 C0.336728,51.595432 0.015288,51.058392 0.015288,50.662472 L0.015288,50.478232 C0.015288,50.317512 0.066248,50.199912 0.166208,50.137192 C1.389248,49.359072 2.612288,48.420232 3.835328,47.340272 C2.610328,45.221512 1.385328,42.961632 0.160328,40.539072 C0.066248,40.352872 0.015288,40.166672 0.015288,40.011832 C0.015288,39.615912 0.336728,39.472832 0.732648,39.713912 C18.500048,50.582112 36.265488,28.004872 54.032888,38.729992 C54.303368,38.894632 54.550328,39.208232 54.673808,39.529672 C54.795328,39.851112 54.767888,40.125512 54.603248,40.235272 C53.368448,41.076112 52.133648,42.079632 50.898848,43.226232 C52.170888,45.366552 53.442928,47.657792 54.713008,50.123472 C54.881568,50.450792 54.910968,50.762432 54.791408,50.930992 C54.669888,51.095632 54.422928,51.091712 54.146568,50.923152"
              id="Fill-18" fill="#333333"></path>
          </g>
        </g>
      </g>
    </g>
  </g>
</svg>
