<?xml version="1.0" encoding="UTF-8"?>
<svg width="108px" height="108px" viewBox="0 0 108 108" version="1.1" xmlns="http://www.w3.org/2000/svg"
     xmlns:xlink="http://www.w3.org/1999/xlink">
  <title>22</title>
  <defs>
    <polygon id="path-1" points="0 43.118432 62.72196 43.118432 62.72196 0.000392 0 0.000392"></polygon>
  </defs>
  <g id="2021" stroke="none" stroke-width="1" fill="none" fill-rule="evenodd">
    <g id="GUEST_PC_Main" transform="translate(-1131.000000, -683.000000)">
      <g id="22" transform="translate(1131.000000, 683.000000)">
        <rect id="Rectangle-2-Copy-18" fill="#FFFFF" x="0" y="0" width="107.8" height="107.8" rx="31.36"></rect>
        <g id="icon_22_m" transform="translate(23.520000, 33.320000)">
          <path
            d="M60.600456,42.401072 L60.179056,42.401072 C59.404856,42.401072 58.775696,41.773872 58.775696,40.999672 L58.775696,22.906912 L62.001856,22.906912 L62.001856,40.999672 C62.001856,41.773872 61.374656,42.401072 60.600456,42.401072"
            id="Fill-1" fill="#FFFFFF"></path>
          <path
            d="M59.495016,23.624272 L59.495016,40.999672 C59.495016,41.375992 59.800776,41.681752 60.179056,41.681752 L60.600456,41.681752 C60.976776,41.681752 61.284496,41.375992 61.284496,40.999672 L61.284496,23.624272 L59.495016,23.624272 Z M60.600456,43.118432 L60.179056,43.118432 C59.008936,43.118432 58.058336,42.167832 58.058336,40.999672 L58.058336,22.906912 C58.058336,22.509032 58.379776,22.187592 58.777656,22.187592 L62.001856,22.187592 C62.397776,22.187592 62.721176,22.509032 62.721176,22.906912 L62.721176,40.999672 C62.721176,42.167832 61.768616,43.118432 60.600456,43.118432 L60.600456,43.118432 Z"
            id="Fill-3" fill="#333333"></path>
          <path
            d="M2.54212,42.401072 L2.12072,42.401072 C1.34652,42.401072 0.71736,41.773872 0.71736,40.999672 L0.71736,22.906912 L3.94352,22.906912 L3.94352,40.999672 C3.94352,41.773872 3.31632,42.401072 2.54212,42.401072"
            id="Fill-5" fill="#FFFFFF"></path>
          <path
            d="M1.43668,23.624272 L1.43668,40.999672 C1.43668,41.375992 1.74244,41.681752 2.12072,41.681752 L2.54212,41.681752 C2.91844,41.681752 3.22616,41.375992 3.22616,40.999672 L3.22616,23.624272 L1.43668,23.624272 Z M2.54212,43.118432 L2.12072,43.118432 C0.9506,43.118432 0,42.167832 0,40.999672 L0,22.906912 C0,22.509032 0.32144,22.187592 0.71736,22.187592 L3.94352,22.187592 C4.33944,22.187592 4.66284,22.509032 4.66284,22.906912 L4.66284,40.999672 C4.66284,42.167832 3.71028,43.118432 2.54212,43.118432 L2.54212,43.118432 Z"
            id="Fill-7" fill="#333333"></path>
          <mask id="mask-2" fill="white">
            <use xlink:href="#path-1"></use>
          </mask>
          <g id="Clip-10"></g>
          <polygon id="Fill-9" fill="#FFFFFF" mask="url(#mask-2)"
                   points="0.71736 22.857912 62.00264 22.857912 62.00264 16.407552 0.71736 16.407552"></polygon>
          <path
            d="M1.43668,22.138592 L61.28332,22.138592 L61.28332,17.124912 L1.43668,17.124912 L1.43668,22.138592 Z M62.00264,23.575272 L0.71736,23.575272 C0.32144,23.575272 0,23.253832 0,22.857912 L0,16.409512 C0,16.013592 0.32144,15.690192 0.71736,15.690192 L62.00264,15.690192 C62.39856,15.690192 62.72,16.013592 62.72,16.409512 L62.72,22.857912 C62.72,23.253832 62.39856,23.575272 62.00264,23.575272 L62.00264,23.575272 Z"
            id="Fill-11" fill="#333333" mask="url(#mask-2)"></path>
          <path
            d="M33.753748,4.072096 L28.967428,4.072096 L28.967428,2.835336 C28.967428,1.533896 30.021908,0.477456 31.323348,0.477456 L31.395868,0.477456 C32.699268,0.477456 33.753748,1.533896 33.753748,2.835336 L33.753748,4.072096 Z"
            id="Fill-12" fill="#FFC800" mask="url(#mask-2)"></path>
          <path
            d="M29.445276,3.592484 L33.275116,3.592484 L33.275116,2.833964 C33.275116,1.797124 32.432316,0.956284 31.397436,0.956284 C30.288076,0.956284 29.445276,1.797124 29.445276,2.833964 L29.445276,3.592484 Z M34.233556,4.550924 L28.486836,4.550924 L28.486836,2.833964 C28.486836,1.269884 29.760836,-0.000196 31.322956,-0.000196 C32.959556,-0.000196 34.233556,1.269884 34.233556,2.833964 L34.233556,4.550924 Z"
            id="Fill-13" fill="#333333" mask="url(#mask-2)"></path>
          <polyline id="Fill-14" fill="#333333" mask="url(#mask-2)"
                    points="31.958388 13.709416 31.958388 4.072096 30.762788 4.072096 30.762788 13.709416"></polyline>
          <path
            d="M31.958388,13.709416 C31.766308,13.658456 31.568348,13.625136 31.360588,13.625136 C31.152828,13.625136 30.954868,13.658456 30.762788,13.709416 C29.731828,13.975976 28.967428,14.905016 28.967428,16.020256 L33.753748,16.020256 C33.753748,14.905016 32.989348,13.975976 31.958388,13.709416"
            id="Fill-15" fill="#632ED8" mask="url(#mask-2)"></path>
          <path
            d="M29.506428,15.541036 L33.214748,15.541036 C33.042268,14.884436 32.524828,14.351316 31.836868,14.172956 C31.466428,14.076916 31.252788,14.076916 30.882348,14.172956 C30.196348,14.351316 29.676948,14.884436 29.506428,15.541036 L29.506428,15.541036 Z M34.233948,16.499476 L28.487228,16.499476 L28.487228,16.019276 C28.487228,14.715876 29.373148,13.575156 30.641268,13.245876 C31.176348,13.108676 31.544828,13.108676 32.077948,13.245876 C33.346068,13.575156 34.233948,14.715876 34.233948,16.019276 L34.233948,16.499476 Z"
            id="Fill-16" fill="#333333" mask="url(#mask-2)"></path>
          <path
            d="M23.670528,30.641072 L7.541688,30.641072 L7.541688,17.620792 C7.541688,14.045752 10.440528,11.146912 14.017528,11.146912 L17.194688,11.146912 C20.771688,11.146912 23.670528,14.045752 23.670528,17.620792 L23.670528,30.641072 Z"
            id="Fill-17" fill="#FFC800" mask="url(#mask-2)"></path>
          <path
            d="M8.2614,29.92332 L22.9516,29.92332 L22.9516,17.6204 C22.9516,14.44716 20.36832,11.86584 17.19508,11.86584 L14.01792,11.86584 C10.84272,11.86584 8.2614,14.44716 8.2614,17.6204 L8.2614,29.92332 Z M24.38828,31.36 L6.82472,31.36 L6.82472,17.6204 C6.82472,13.65532 10.05284,10.42916 14.01792,10.42916 L17.19508,10.42916 C21.16212,10.42916 24.38828,13.65532 24.38828,17.6204 L24.38828,31.36 Z"
            id="Fill-18" fill="#333333" mask="url(#mask-2)"></path>
          <line x1="7.542668" y1="30.641072" x2="7.542668" y2="42.401072" id="Fill-19" fill="#FFC800"
                mask="url(#mask-2)"></line>
          <polygon id="Fill-20" fill="#333333" mask="url(#mask-2)"
                   points="6.82472 42.401072 8.2614 42.401072 8.2614 30.641072 6.82472 30.641072"></polygon>
          <line x1="23.670528" y1="30.641072" x2="23.670528" y2="42.401072" id="Fill-21" fill="#FFC800"
                mask="url(#mask-2)"></line>
          <polygon id="Fill-22" fill="#333333" mask="url(#mask-2)"
                   points="22.9516 42.401072 24.38828 42.401072 24.38828 30.641072 22.9516 30.641072"></polygon>
          <path
            d="M55.17792,30.641072 L39.04908,30.641072 L39.04908,17.620792 C39.04908,14.045752 41.94792,11.146912 45.52492,11.146912 L48.70404,11.146912 C52.27908,11.146912 55.17792,14.045752 55.17792,17.620792 L55.17792,30.641072 Z"
            id="Fill-23" fill="#FFC800" mask="url(#mask-2)"></path>
          <path
            d="M39.768792,29.92332 L54.458992,29.92332 L54.458992,17.6204 C54.458992,14.44716 51.877672,11.86584 48.702472,11.86584 L45.525312,11.86584 C42.352072,11.86584 39.768792,14.44716 39.768792,17.6204 L39.768792,29.92332 Z M55.895672,31.36 L38.332112,31.36 L38.332112,17.6204 C38.332112,13.65532 41.560232,10.42916 45.525312,10.42916 L48.702472,10.42916 C52.669512,10.42916 55.895672,13.65532 55.895672,17.6204 L55.895672,31.36 Z"
            id="Fill-24" fill="#333333" mask="url(#mask-2)"></path>
          <line x1="39.05006" y1="30.641072" x2="39.05006" y2="42.401072" id="Fill-25" fill="#FFC800"
                mask="url(#mask-2)"></line>
          <polygon id="Fill-26" fill="#333333" mask="url(#mask-2)"
                   points="38.33172 42.401072 39.7684 42.401072 39.7684 30.641072 38.33172 30.641072"></polygon>
          <line x1="55.17792" y1="30.641072" x2="55.17792" y2="42.401072" id="Fill-27" fill="#FFC800"
                mask="url(#mask-2)"></line>
          <polygon id="Fill-28" fill="#333333" mask="url(#mask-2)"
                   points="54.4586 42.401072 55.89528 42.401072 55.89528 30.641072 54.4586 30.641072"></polygon>
        </g>
      </g>
    </g>
  </g>
</svg>
