<?xml version="1.0" encoding="utf-8"?>
<!-- Generator: Adobe Illustrator 25.4.4, SVG Export Plug-In . SVG Version: 6.00 Build 0)  -->
<svg version="1.1" id="Layer_1" xmlns="http://www.w3.org/2000/svg" x="0px"
     y="0px"
     viewBox="0 0 108 108" style="enable-background:new 0 0 108 108;" xml:space="preserve">
<style type="text/css">
	.st0{fill-rule:evenodd;clip-rule:evenodd;fill:NONE;}
	.st1{fill:#FFFFFF;}
	.st2{fill:#333333;}
	.st3{opacity:0.2;}
	.st4{fill:none;}
	.st5{fill:#632ED8;}
	.st6{fill:#FFC800;}
	.st7{opacity:0.6;fill:#FFFFFF;}
</style>
  <g id="_x32_021">
	<g id="GUEST_PC_Main" transform="translate(-1281.000000, -481.000000)">
		<g id="_x31_5" transform="translate(1281.000000, 481.000000)">
			<path id="Rectangle-2-Copy" class="st0" d="M31.5,0.1h45.1c17.3,0,31.4,14,31.4,31.4v45.1c0,17.3-14,31.4-31.4,31.4H31.5
				C14.1,107.8,0.1,93.8,0.1,76.4v-45C0.1,14.1,14.1,0.1,31.5,0.1z"/>
		</g>
	</g>
</g>
  <g>
	<g>
		<path class="st1" d="M85.4,85.4H54V38.3c0-8.7,7-15.7,15.7-15.7h0c8.7,0,15.7,7,15.7,15.7V85.4z"/>
    <path class="st2" d="M86.2,86.2H53.3V38.3c0-9.1,7.4-16.4,16.4-16.4s16.4,7.4,16.4,16.4V86.2z M54.7,84.7h29.9V38.3
			c0-8.3-6.7-15-15-15c-8.3,0-15,6.7-15,15V84.7z"/>
	</g>
    <g class="st3">
		<g>
			<polygon class="st1" points="69.4,72.6 69.4,61.9 75,61.9 75,70.8 80.9,76.8 77,80.7 			"/>
      <path class="st2" d="M77,81.5C77,81.5,77,81.5,77,81.5c-0.2,0-0.4-0.1-0.5-0.2l-7.6-8.1c-0.1-0.1-0.2-0.3-0.2-0.5V61.9
				c0-0.4,0.3-0.7,0.7-0.7H75c0.4,0,0.7,0.3,0.7,0.7v8.6l5.7,5.7c0.1,0.1,0.2,0.3,0.2,0.5s-0.1,0.4-0.2,0.5l-4,4
				C77.3,81.4,77.2,81.5,77,81.5z M70.1,72.3l6.9,7.3l2.9-2.9l-5.4-5.4c-0.1-0.1-0.2-0.3-0.2-0.5v-8.2h-4.1V72.3z"/>
		</g>
      <g>

				<rect x="63.8" y="61.9" transform="matrix(-1 -4.586832e-11 4.586832e-11 -1 133.183 142.6196)" class="st1"
              width="5.6" height="18.8"/>
        <path class="st2" d="M69.4,81.5h-5.6c-0.4,0-0.7-0.3-0.7-0.7V61.9c0-0.4,0.3-0.7,0.7-0.7h5.6c0.4,0,0.7,0.3,0.7,0.7v18.8
				C70.1,81.1,69.8,81.5,69.4,81.5z M64.5,80h4.1V62.6h-4.1V80z"/>
		</g>
      <g>
			<circle class="st1" cx="73.9" cy="63.9" r="1.7"/>
        <path class="st2" d="M73.9,66.4c-1.4,0-2.5-1.1-2.5-2.5s1.1-2.5,2.5-2.5s2.5,1.1,2.5,2.5S75.2,66.4,73.9,66.4z M73.9,62.9
				c-0.6,0-1,0.5-1,1s0.5,1,1,1s1-0.5,1-1S74.4,62.9,73.9,62.9z"/>
		</g>
      <circle class="st4" cx="51.6" cy="49.1" r="1.7"/>
      <g>
			<path class="st5" d="M57.4,56.9c1.2,1,2.9,0.9,3.9-0.2l2.1-2.4v8h11l1.3,1.1l5.5-6.2c1-1.2,0.9-2.9-0.2-3.9L75.3,48l0,0
				c-0.6-0.7-1.5-1.1-2.5-1.1h-5.9c-1.2,0-2.3,0.6-2.9,1.5l0,0l-4.8,5.3l-5.6-5l-2.4,2.7L57.4,56.9z M78.2,55.4l-2.1,2.3v-4.2
				L78.2,55.4z"/>
        <path class="st2" d="M75.8,64.2c-0.2,0-0.4-0.1-0.5-0.2l-1.1-1H63.5c-0.4,0-0.7-0.3-0.7-0.7v-6l-0.8,0.9c-1.3,1.5-3.5,1.6-5,0.3
				l-6.2-5.5c-0.1-0.1-0.2-0.3-0.2-0.5s0.1-0.4,0.2-0.5l2.4-2.7c0.3-0.3,0.7-0.3,1-0.1l5.1,4.5l4.2-4.7c0.7-1.1,2.1-1.8,3.4-1.8h5.9
				c1.2,0,2.3,0.5,3,1.3l5.8,5.2c1.5,1.3,1.6,3.5,0.3,5l-5.5,6.2C76.2,64.1,76,64.2,75.8,64.2z M64.3,61.5h10.3
				c0.2,0,0.4,0.1,0.5,0.2l0.7,0.7l5.1-5.7c0.8-0.8,0.7-2.2-0.2-2.9l-5.9-5.3c-0.5-0.6-1.3-0.9-2-0.9h-5.9c-0.9,0-1.8,0.5-2.2,1.2
				c0,0,0,0.1-0.1,0.1l-4.8,5.3c-0.1,0.1-0.3,0.2-0.5,0.2c-0.2,0-0.4-0.1-0.5-0.2l-5.1-4.5l-1.4,1.6l5.7,5.1l0,0
				c0.8,0.8,2.1,0.7,2.9-0.2l2.1-2.4c0.2-0.2,0.5-0.3,0.8-0.2c0.3,0.1,0.5,0.4,0.5,0.7V61.5z M76.1,58.5c-0.1,0-0.2,0-0.3,0
				c-0.3-0.1-0.5-0.4-0.5-0.7v-4.2c0-0.3,0.2-0.6,0.4-0.7c0.3-0.1,0.6-0.1,0.8,0.1l2.1,1.9c0.1,0.1,0.2,0.3,0.2,0.5
				c0,0.2-0.1,0.4-0.2,0.5l-2.1,2.3C76.5,58.4,76.3,58.5,76.1,58.5z M76.8,55.2v0.6l0.3-0.3L76.8,55.2z"/>
		</g>
      <g>
			<g>
				<path class="st1" d="M65.4,37.8l0,7.2c0,2.2,1.8,4,4,4h1.3c2.2,0,4-1.8,4-4v-7.2H65.4z"/>
        <path class="st2" d="M70.7,49.7h-1.3c-2.6,0-4.8-2.1-4.8-4.8v-7.2c0-0.4,0.3-0.7,0.7-0.7h9.4c0.4,0,0.7,0.3,0.7,0.7v7.2
					C75.5,47.6,73.4,49.7,70.7,49.7z M66.1,38.5v6.4c0,1.8,1.5,3.3,3.3,3.3h1.3c1.8,0,3.3-1.5,3.3-3.3v-6.4H66.1z"/>
			</g>
        <g>
				<path class="st6" d="M65.4,40.8c0.6,0.4,1.3,0.7,2.1,0.7c1.3,0,2.4-0.7,2.9-1.7c0.5,1,1.5,1.7,2.7,1.7c0.6,0,1.2-0.2,1.7-0.5
					c0.8-0.5,1.3-1.4,1.3-2.4c0-1.6-1.4-2.9-3-2.9c-0.3,0-0.6,0.1-0.9,0.1c-0.3-0.9-1.1-1.6-2.2-1.6c-0.7,0-1.4,0.3-1.8,0.8
					c-0.3-0.1-0.6-0.1-0.9-0.1c-1.9,0-3.4,1.5-3.4,3.3C64,39.2,64.6,40.2,65.4,40.8z"/>
          <path class="st2" d="M73.1,42.2c-1.1,0-2.1-0.4-2.8-1.2c-1.4,1.3-3.8,1.5-5.4,0.4l0,0c-1-0.8-1.6-1.9-1.6-3.2c0-2.2,1.9-4,4.1-4
					c0.2,0,0.4,0,0.6,0.1c0.6-0.5,1.3-0.8,2-0.8c1.1,0,2.1,0.6,2.6,1.5c0.1,0,0.3,0,0.4,0c2.1,0,3.8,1.6,3.8,3.6
					c0,1.2-0.6,2.4-1.7,3C74.6,42,73.8,42.2,73.1,42.2z M70.4,39.1C70.4,39.1,70.4,39.1,70.4,39.1c0.3,0,0.5,0.2,0.7,0.4
					c0.4,0.8,1.2,1.2,2.1,1.2c0.5,0,0.9-0.1,1.3-0.4c0.6-0.4,1-1.1,1-1.8c0-1.2-1-2.2-2.3-2.2c-0.2,0-0.4,0-0.6,0.1
					c-0.4,0.1-0.8-0.1-0.9-0.5c-0.2-0.6-0.8-1.1-1.5-1.1c-0.5,0-0.9,0.2-1.2,0.6c-0.2,0.2-0.5,0.3-0.8,0.2c-0.3-0.1-0.5-0.1-0.7-0.1
					c-1.5,0-2.7,1.1-2.7,2.5c0,0.8,0.4,1.5,1,2l0,0c0.5,0.3,1,0.5,1.6,0.5c0.9,0,1.8-0.5,2.3-1.3C69.9,39.2,70.1,39.1,70.4,39.1z"/>
			</g>
        <g>
				<path class="st2"
              d="M68.7,42.3c-0.4,0-0.7,0.3-0.7,0.7s0.3,0.7,0.7,0.7s0.7-0.3,0.7-0.7S69.1,42.3,68.7,42.3L68.7,42.3z"/>
          <path class="st2"
                d="M71.5,42.3c-0.4,0-0.7,0.3-0.7,0.7s0.3,0.7,0.7,0.7c0.4,0,0.7-0.3,0.7-0.7S71.8,42.3,71.5,42.3L71.5,42.3z"
          />
			</g>
        <g>
				<g>
					<path class="st1" d="M70.1,46.4c-0.8,0-1.4-0.6-1.4-1.4h2.8C71.5,45.8,70.8,46.4,70.1,46.4z"/>
          <path class="st2" d="M71.5,45h-2.8c0,0.7,0.6,1.4,1.4,1.4S71.5,45.8,71.5,45L71.5,45z"/>
				</g>
			</g>
		</g>
      <g>
			<path class="st6" d="M61.6,84h7.7c0.1,0,0.2-0.1,0.2-0.2v-2.9c0-0.1-0.1-0.2-0.2-0.2h-4.7c-1.7,0-3.1,1.4-3.1,3.1v0
				C61.4,83.9,61.5,84,61.6,84z"/>
        <path class="st2" d="M69.2,84.7h-7.7c-0.5,0-0.9-0.4-0.9-0.9c0-2.1,1.7-3.8,3.8-3.8h4.7c0.5,0,0.9,0.4,0.9,0.9v2.9
				C70.1,84.3,69.7,84.7,69.2,84.7z M62.2,83.2h6.5v-1.8h-4.2C63.4,81.5,62.4,82.2,62.2,83.2z"/>
		</g>
      <g>
			<path class="st6" d="M77.7,84.6l5.4-5.4c0.1-0.1,0.1-0.2,0-0.2L81,76.9c-0.1-0.1-0.2-0.1-0.2,0l-3.4,3.4c-1.2,1.2-1.2,3.2,0,4.4
				v0C77.5,84.6,77.6,84.6,77.7,84.6z"/>
        <path class="st2" d="M77.5,85.4c-0.2,0-0.5-0.1-0.6-0.3c-1.5-1.5-1.5-3.9,0-5.4l3.4-3.4c0.3-0.3,0.9-0.3,1.3,0l2.1,2.1
				c0.4,0.4,0.4,0.9,0,1.3l-5.4,5.4c0,0,0,0,0,0C78,85.3,77.8,85.4,77.5,85.4z M80.9,77.8l-3,3c-0.8,0.8-0.9,2-0.3,2.9l4.6-4.6
				L80.9,77.8z"/>
		</g>
	</g>
    <g>
		<g>
			<polygon class="st1" points="36.3,72.6 36.3,61.9 30.7,61.9 30.7,70.8 24.8,76.8 28.7,80.7 			"/>
      <path class="st2" d="M28.7,81.5c-0.2,0-0.4-0.1-0.5-0.2l-4-4c-0.3-0.3-0.3-0.8,0-1l5.7-5.7v-8.6c0-0.4,0.3-0.7,0.7-0.7h5.6
				c0.4,0,0.7,0.3,0.7,0.7v10.7c0,0.2-0.1,0.4-0.2,0.5l-7.6,8.1C29.1,81.4,29,81.5,28.7,81.5C28.8,81.5,28.7,81.5,28.7,81.5z
				 M25.8,76.8l2.9,2.9l6.9-7.3v-9.7h-4.1v8.2c0,0.2-0.1,0.4-0.2,0.5L25.8,76.8z"/>
		</g>
      <g>
			<rect x="36.3" y="61.9" class="st1" width="5.6" height="18.8"/>
        <path class="st2" d="M41.9,81.5h-5.6c-0.4,0-0.7-0.3-0.7-0.7V61.9c0-0.4,0.3-0.7,0.7-0.7h5.6c0.4,0,0.7,0.3,0.7,0.7v18.8
				C42.6,81.1,42.3,81.5,41.9,81.5z M37.1,80h4.1V62.6h-4.1V80z"/>
		</g>
      <g>
			<circle class="st1" cx="31.8" cy="63.9" r="1.7"/>
        <path class="st2" d="M31.8,66.4c-1.4,0-2.5-1.1-2.5-2.5s1.1-2.5,2.5-2.5s2.5,1.1,2.5,2.5S33.2,66.4,31.8,66.4z M31.8,62.9
				c-0.6,0-1,0.5-1,1s0.5,1,1,1s1-0.5,1-1S32.4,62.9,31.8,62.9z"/>
		</g>
      <g>
			<circle class="st1" cx="54.1" cy="49.1" r="1.7"/>
        <path class="st2" d="M54.1,51.6c-1.4,0-2.5-1.1-2.5-2.5s1.1-2.5,2.5-2.5s2.5,1.1,2.5,2.5S55.5,51.6,54.1,51.6z M54.1,48.1
				c-0.6,0-1,0.5-1,1s0.5,1,1,1s1-0.5,1-1S54.7,48.1,54.1,48.1z"/>
		</g>
      <g>
			<path class="st5" d="M54.5,51.4l-2.4-2.7l-5.6,5l-4.8-5.3l0,0c-0.6-0.9-1.7-1.5-2.9-1.5h-5.9c-1,0-1.9,0.4-2.5,1.1l0,0l-5.9,5.3
				c-1.2,1-1.2,2.8-0.2,3.9l5.5,6.2l1.3-1.1h11v-8l2.1,2.4c1,1.2,2.8,1.2,3.9,0.2L54.5,51.4z M29.6,53.5v4.2l-2.1-2.3L29.6,53.5z"/>
        <path class="st2" d="M29.9,64.2C29.9,64.2,29.9,64.2,29.9,64.2c-0.2,0-0.4-0.1-0.5-0.2l-5.5-6.2c-1.3-1.5-1.2-3.7,0.3-5l5.9-5.3
				c0.7-0.8,1.8-1.3,3-1.3h5.9c1.4,0,2.7,0.7,3.4,1.8l4.2,4.7l5.1-4.5c0.3-0.3,0.8-0.2,1,0.1l2.4,2.7c0.1,0.1,0.2,0.3,0.2,0.5
				s-0.1,0.4-0.2,0.5l-6.2,5.5c-0.7,0.6-1.6,1-2.6,0.9c-0.9-0.1-1.8-0.5-2.4-1.2l-0.8-0.9v6c0,0.4-0.3,0.7-0.7,0.7H31.4l-1.1,1
				C30.2,64.1,30.1,64.2,29.9,64.2z M32.9,47.6c-0.7,0-1.5,0.3-1.9,0.9l-5.9,5.3c-0.8,0.8-0.9,2.1-0.2,2.9l5.1,5.7l0.7-0.7
				c0.1-0.1,0.3-0.2,0.5-0.2h10.3v-7.2c0-0.3,0.2-0.6,0.5-0.7c0.3-0.1,0.6,0,0.8,0.2l2.1,2.4c0.8,0.8,2.1,0.9,2.9,0.2l5.7-5.1
				L52,49.7l-5.1,4.5c-0.1,0.1-0.3,0.2-0.5,0.2c-0.2,0-0.4-0.1-0.5-0.2l-4.8-5.3c0,0-0.1-0.1-0.1-0.1c-0.5-0.7-1.3-1.2-2.2-1.2H32.9
				z M29.6,58.5c-0.2,0-0.4-0.1-0.5-0.2L27,55.9c-0.1-0.1-0.2-0.3-0.2-0.5c0-0.2,0.1-0.4,0.2-0.5l2.1-1.9c0.2-0.2,0.5-0.2,0.8-0.1
				c0.3,0.1,0.4,0.4,0.4,0.7v4.2c0,0.3-0.2,0.6-0.5,0.7C29.8,58.5,29.7,58.5,29.6,58.5z M28.6,55.5l0.3,0.3v-0.6L28.6,55.5z"/>
		</g>
      <g>
			<g>
				<path class="st1" d="M40.3,37.8l0,7.2c0,2.2-1.8,4-4,4H35c-2.2,0-4-1.8-4-4v-7.2H40.3z"/>
        <path class="st2" d="M36.3,49.7H35c-2.6,0-4.8-2.1-4.8-4.8v-7.2c0-0.4,0.3-0.7,0.7-0.7h9.4c0.4,0,0.7,0.3,0.7,0.7v7.2
					C41.1,47.6,38.9,49.7,36.3,49.7z M31.7,38.5v6.4c0,1.8,1.5,3.3,3.3,3.3h1.3c1.8,0,3.3-1.5,3.3-3.3v-6.4H31.7z"/>
			</g>
        <g>
				<path class="st6" d="M40.3,40.8c-0.6,0.4-1.3,0.7-2.1,0.7c-1.3,0-2.4-0.7-2.9-1.7c-0.5,1-1.5,1.7-2.7,1.7
					c-0.6,0-1.2-0.2-1.7-0.5c-0.8-0.5-1.3-1.4-1.3-2.4c0-1.6,1.4-2.9,3-2.9c0.3,0,0.6,0.1,0.9,0.1c0.3-0.9,1.1-1.6,2.2-1.6
					c0.7,0,1.4,0.3,1.8,0.8c0.3-0.1,0.6-0.1,0.9-0.1c1.9,0,3.4,1.5,3.4,3.3C41.7,39.2,41.1,40.2,40.3,40.8z"/>
          <path class="st2" d="M38.3,42.2c-1.1,0-2.1-0.4-2.9-1.2c-0.7,0.7-1.7,1.2-2.8,1.2c-0.7,0-1.5-0.2-2.1-0.6
					c-1.1-0.7-1.7-1.8-1.7-3c0-2.1,1.9-3.9,4.2-3.6c0.5-0.9,1.5-1.5,2.6-1.5c0.8,0,1.5,0.3,2,0.8c0.2,0,0.4-0.1,0.6-0.1
					c2.3,0,4.1,1.8,4.1,4c0,1.3-0.6,2.4-1.6,3.2c0,0,0,0,0,0C40,41.9,39.2,42.2,38.3,42.2z M40.3,40.8L40.3,40.8L40.3,40.8z
					 M35.3,39.1c0.3,0,0.5,0.1,0.6,0.4c0.5,0.8,1.4,1.3,2.3,1.3c0.6,0,1.1-0.2,1.6-0.5c0.7-0.5,1-1.2,1-2c0-1.4-1.2-2.5-2.7-2.5
					c-0.2,0-0.4,0-0.7,0.1c-0.3,0.1-0.6,0-0.8-0.2c-0.3-0.4-0.7-0.6-1.2-0.6c-0.7,0-1.3,0.4-1.5,1.1c-0.1,0.4-0.5,0.6-0.9,0.5
					c-0.2-0.1-0.5-0.1-0.7-0.1c-1.3,0-2.3,1-2.3,2.2c0,0.7,0.4,1.4,1,1.8c0.4,0.2,0.8,0.4,1.3,0.4c0.9,0,1.7-0.5,2.1-1.2
					C34.8,39.2,35,39.1,35.3,39.1C35.3,39.1,35.3,39.1,35.3,39.1z"/>
			</g>
        <g>
				<path class="st2"
              d="M37,42.3c-0.4,0-0.7,0.3-0.7,0.7s0.3,0.7,0.7,0.7s0.7-0.3,0.7-0.7S37.4,42.3,37,42.3L37,42.3z"/>
          <path class="st2"
                d="M34.2,42.3c-0.4,0-0.7,0.3-0.7,0.7s0.3,0.7,0.7,0.7s0.7-0.3,0.7-0.7S34.6,42.3,34.2,42.3L34.2,42.3z"/>
			</g>
        <g>
				<g>
					<path class="st1" d="M35.6,46.4c0.8,0,1.4-0.6,1.4-1.4h-2.8C34.2,45.8,34.9,46.4,35.6,46.4z"/>
          <path class="st2" d="M37,45h-2.8c0,0.7,0.6,1.4,1.4,1.4S37,45.8,37,45L37,45z"/>
				</g>
			</g>
		</g>
      <g>
			<path class="st6" d="M44.1,84h-7.7c-0.1,0-0.2-0.1-0.2-0.2v-2.9c0-0.1,0.1-0.2,0.2-0.2h4.7c1.7,0,3.1,1.4,3.1,3.1v0
				C44.3,83.9,44.2,84,44.1,84z"/>
        <path class="st2" d="M44.1,84.7h-7.7c-0.5,0-0.9-0.4-0.9-0.9v-2.9c0-0.5,0.4-0.9,0.9-0.9h4.7c2.1,0,3.8,1.7,3.8,3.8
				C45.1,84.3,44.6,84.7,44.1,84.7z M37.1,83.2h6.5c-0.3-1-1.2-1.8-2.3-1.8h-4.2V83.2z"/>
		</g>
      <g>
			<path class="st6" d="M28,84.6l-5.4-5.4c-0.1-0.1-0.1-0.2,0-0.2l2.1-2.1c0.1-0.1,0.2-0.1,0.2,0l3.4,3.4c1.2,1.2,1.2,3.2,0,4.4l0,0
				C28.2,84.6,28.1,84.6,28,84.6z"/>
        <path class="st2" d="M28.2,85.4c-0.2,0-0.5-0.1-0.6-0.3l-5.4-5.4c-0.4-0.4-0.4-0.9,0-1.3l2.1-2.1c0.4-0.4,0.9-0.4,1.3,0l3.4,3.4
				c1.5,1.5,1.5,3.9,0,5.4C28.6,85.3,28.4,85.4,28.2,85.4z M23.6,79l4.6,4.6c0.5-0.9,0.4-2.1-0.3-2.9l-3-3L23.6,79z"/>
		</g>
	</g>
    <path class="st7" d="M79.8,44L61.7,62.1c-0.4,0.4-1,0.4-1.4,0h0c-0.4-0.4-0.4-1,0-1.4l18.1-18.1c0.4-0.4,1-0.4,1.4,0l0,0
		C80.2,43,80.2,43.6,79.8,44z"/>
    <path class="st7" d="M79.8,55.5L61.7,73.6c-0.4,0.4-1,0.4-1.4,0h0c-0.4-0.4-0.4-1,0-1.4l18.1-18.1c0.4-0.4,1-0.4,1.4,0l0,0
		C80.2,54.5,80.2,55.2,79.8,55.5z"/>
</g>
</svg>
