<svg width="25" height="24" viewBox="0 0 25 24" fill="none" xmlns="http://www.w3.org/2000/svg">
<path fill-rule="evenodd" clip-rule="evenodd" d="M3.99991 4.74C3.99991 2.75818 5.57967 1 7.72748 1H13.3852C14.5667 1 15.7637 1.43099 16.6678 2.30993L16.6788 2.32055L20.7473 6.38566C21.6493 7.26615 22.1074 8.55587 21.9785 9.75283V19.26C21.9785 21.2418 20.3987 23 18.2509 23H7.72748C5.57967 23 3.99991 21.2418 3.99991 19.26V4.74ZM7.72748 3C6.93325 3 5.99991 3.86182 5.99991 4.74V19.26C5.99991 20.1382 6.93325 21 7.72748 21H18.2509C19.0451 21 19.9885 19.8782 19.9885 19L19.9999 9.69C19.9999 9.64413 19.9941 9.5983 19.9999 9.55278C20.0693 9.01302 19.5883 7.92115 19.155 7.5L19.1441 7.48938L15.4999 3.86531C15.0467 3.42736 14.012 3 13.3852 3H7.72748Z" fill="black"/>
<path fill-rule="evenodd" clip-rule="evenodd" d="M7.99991 17C7.99991 16.4477 8.44762 16 8.99991 16L12.9999 16C13.5522 16 13.9999 16.4477 13.9999 17C13.9999 17.5523 13.5522 18 12.9999 18H8.99991C8.44762 18 7.99991 17.5523 7.99991 17Z" fill="black"/>
<path fill-rule="evenodd" clip-rule="evenodd" d="M7.99991 14C7.99991 13.4477 8.44762 13 8.99991 13H15.9999C16.5522 13 16.9999 13.4477 16.9999 14C16.9999 14.5523 16.5522 15 15.9999 15H8.99991C8.44762 15 7.99991 14.5523 7.99991 14Z" fill="black"/>
</svg>
