<?xml version="1.0" encoding="UTF-8"?>
<svg width="108px" height="108px" viewBox="0 0 108 108" version="1.1" xmlns="http://www.w3.org/2000/svg"
>
  <title>16</title>
  <g id="2021" stroke="none" stroke-width="1" fill="none" fill-rule="evenodd">
    <g id="GUEST_PC_Main" transform="translate(-1431.000000, -481.000000)">
      <g id="16" transform="translate(1431.000000, 481.000000)">
        <rect id="Rectangle-2-Copy-4" fill="#FFFFF" x="0" y="0" width="107.8" height="107.8" rx="31.36"></rect>
        <g id="icon_16_m" transform="translate(33.320000, 23.520000)">
          <path
            d="M34.78804,62.002444 L8.33196,62.002444 C4.12188,62.002444 0.70952,58.590084 0.70952,54.381964 L0.70952,20.056484 C0.70952,15.848364 4.12188,12.436004 8.33196,12.436004 L34.78804,12.436004 C38.99616,12.436004 42.40852,15.848364 42.40852,20.056484 L42.40852,54.381964 C42.40852,58.590084 38.99616,62.002444 34.78804,62.002444"
            id="Fill-1" fill="#FFFFFF"></path>
          <path
            d="M8.29276,13.15356 C4.50408,13.15356 1.421,16.268 1.421,20.09588 L1.421,54.341 C1.421,58.16888 4.50408,61.28332 8.29276,61.28332 L34.82724,61.28332 C38.61592,61.28332 41.699,58.16888 41.699,54.341 L41.699,20.09588 C41.699,16.268 38.61592,13.15356 34.82724,13.15356 L8.29276,13.15356 Z M34.82724,62.72 L8.29276,62.72 C3.72008,62.72 0,58.96268 0,54.341 L0,20.09588 C0,15.47616 3.72008,11.71688 8.29276,11.71688 L34.82724,11.71688 C39.39992,11.71688 43.12,15.47616 43.12,20.09588 L43.12,54.341 C43.12,58.96268 39.39992,62.72 34.82724,62.72 L34.82724,62.72 Z"
            id="Fill-3" fill="#333333"></path>
          <path
            d="M34.524028,34.991096 C34.524028,32.595976 33.267668,30.498776 31.380188,29.309056 C30.578548,26.492536 27.993308,24.426696 24.921988,24.426696 C23.710708,24.426696 22.579788,24.750096 21.599788,25.310656 C20.762868,24.754016 19.759348,24.426696 18.679388,24.426696 C16.566508,24.426696 14.751548,25.669336 13.904828,27.458816 C10.872708,28.109536 8.595188,30.802576 8.595188,34.030696 C8.595188,35.771176 9.263548,37.352896 10.349388,38.546536 C9.843708,39.489296 9.555588,40.567296 9.555588,41.711936 C9.555588,45.426136 12.566148,48.434736 16.278388,48.434736 C18.140388,48.434736 19.824028,47.678176 21.041188,46.455136 C22.471988,47.686016 24.326148,48.434736 26.360628,48.434736 C30.868628,48.434736 34.524028,44.781296 34.524028,40.271336 C34.524028,39.299176 34.345668,38.372096 34.034028,37.505776 C34.347628,36.727656 34.524028,35.880936 34.524028,34.991096"
            id="Fill-5" fill="#FFC800"></path>
          <path
            d="M21.042168,45.7366 C21.208768,45.7366 21.375368,45.7954 21.510608,45.91104 C22.863008,47.07528 24.585848,47.7162 26.359648,47.7162 C30.465848,47.7162 33.805688,44.37636 33.805688,40.27212 C33.805688,39.42344 33.654768,38.5728 33.356848,37.7496 C33.296088,37.583 33.300008,37.40072 33.366648,37.23608 C33.658688,36.51676 33.805688,35.7602 33.805688,34.98992 C33.805688,32.92212 32.757088,31.02484 30.998968,29.91352 C30.848048,29.81944 30.738288,29.6744 30.689288,29.50388 C29.958208,26.93824 27.586608,25.14484 24.921008,25.14484 C23.886128,25.14484 22.859088,25.41924 21.953568,25.93276 C21.718368,26.068 21.424368,26.05624 21.202888,25.90924 C20.450248,25.40944 19.578048,25.14484 18.678408,25.14484 C16.924208,25.14484 15.307208,26.17384 14.554568,27.76732 C14.458528,27.9692 14.274288,28.11424 14.056728,28.16128 C11.308808,28.74928 9.313528,31.21692 9.313528,34.03148 C9.313528,35.52108 9.870168,36.95188 10.879568,38.0632 C11.085368,38.2886 11.124568,38.61788 10.981488,38.88444 C10.518928,39.75076 10.273928,40.7288 10.273928,41.71272 C10.273928,45.02316 12.966968,47.7162 16.277408,47.7162 C17.886568,47.7162 19.397728,47.08704 20.532568,45.94828 C20.673688,45.80716 20.857928,45.7366 21.042168,45.7366 M26.359648,49.15288 C24.454528,49.15288 22.600368,48.53352 21.075488,47.40064 C19.734848,48.53352 18.055128,49.15288 16.277408,49.15288 C12.175128,49.15288 8.837248,45.815 8.837248,41.71272 C8.837248,40.65824 9.064608,39.6116 9.495808,38.6512 C8.449168,37.33604 7.876848,35.71316 7.876848,34.03148 C7.876848,30.66224 10.185728,27.69088 13.415808,26.83828 C14.462448,24.92728 16.491048,23.70816 18.678408,23.70816 C19.717208,23.70816 20.726608,23.97472 21.624288,24.48236 C22.647408,23.97472 23.780288,23.70816 24.921008,23.70816 C28.133448,23.70816 31.004848,25.80928 31.992688,28.84924 C34.033048,30.2428 35.242368,32.51836 35.242368,34.98992 C35.242368,35.85428 35.091448,36.70492 34.797448,37.51832 C35.091448,38.41992 35.242368,39.34308 35.242368,40.27212 C35.242368,45.1682 31.257688,49.15288 26.359648,49.15288"
            id="Fill-7" fill="#333333"></path>
          <path
            d="M20.631744,32.558344 C19.651744,34.565384 17.595704,35.951104 15.210384,35.951104 C14.359744,35.951104 13.552224,35.755104 12.819184,35.439544 L12.819184,42.366184 C12.819184,46.588024 16.172744,50.010184 20.310304,50.010184 L22.807344,50.010184 C26.946864,50.010184 30.302384,45.935344 30.302384,41.711544 L30.302384,33.075784 C29.124424,34.247864 27.499584,34.990704 25.706184,34.990704 C23.654064,34.990704 21.825384,34.040104 20.631744,32.558344"
            id="Fill-9" fill="#FFFFFF"></path>
          <path
            d="M13.536152,36.446788 L13.536152,42.365988 C13.536152,46.186028 16.576112,49.292628 20.311872,49.292628 L22.806952,49.292628 C26.417272,49.292628 29.584632,45.750908 29.584632,41.713308 L29.584632,34.569108 C26.887672,36.301748 23.091152,35.943068 20.764632,33.753748 C19.202512,36.027348 16.317392,37.185708 13.536152,36.446788 M22.806952,50.729308 L20.311872,50.729308 C15.782312,50.729308 12.101432,46.977868 12.101432,42.365988 L12.101432,35.439348 C12.101432,35.196308 12.222952,34.972868 12.424832,34.839588 C12.624752,34.706308 12.881512,34.682788 13.102992,34.778828 C15.813672,35.952868 18.773272,34.721988 19.986512,32.242588 C20.094312,32.023068 20.307952,31.872148 20.550992,31.844708 C20.801872,31.823148 21.037072,31.915268 21.189952,32.107348 C22.299312,33.483268 23.945712,34.273148 25.703832,34.273148 C27.238512,34.273148 28.688912,33.667508 29.794352,32.567948 C29.998192,32.362148 30.305912,32.299428 30.576392,32.413108 C30.844912,32.524828 31.019352,32.785508 31.019352,33.075588 L31.019352,41.713308 C31.019352,46.515308 27.181672,50.729308 22.806952,50.729308"
            id="Fill-11" fill="#333333"></path>
          <path
            d="M24.344964,37.871708 C23.633484,37.871708 23.057244,38.447948 23.057244,39.159428 C23.057244,39.868948 23.633484,40.445188 24.344964,40.445188 C25.054484,40.445188 25.630724,39.868948 25.630724,39.159428 C25.630724,38.447948 25.054484,37.871708 24.344964,37.871708"
            id="Fill-13" fill="#333333"></path>
          <path
            d="M19.196044,37.871708 C18.484564,37.871708 17.908324,38.447948 17.908324,39.159428 C17.908324,39.868948 18.484564,40.445188 19.196044,40.445188 C19.907524,40.445188 20.483764,39.868948 20.483764,39.159428 C20.483764,38.447948 19.907524,37.871708 19.196044,37.871708"
            id="Fill-15" fill="#333333"></path>
          <path
            d="M21.770504,45.594108 C23.191504,45.594108 24.343984,44.441628 24.343984,43.020628 L19.197024,43.020628 C19.197024,44.441628 20.349504,45.594108 21.770504,45.594108"
            id="Fill-17" fill="#FFFFFF"></path>
          <path
            d="M24.344964,43.019648 L19.196044,43.019648 C19.196044,44.442608 20.348524,45.593128 21.771484,45.593128 C23.192484,45.593128 24.344964,44.442608 24.344964,43.019648"
            id="Fill-19" fill="#333333"></path>
          <polygon id="Fill-21" fill="#333333"
                   points="9.033444 12.922868 8.157324 11.782148 21.559804 1.474508 34.962284 11.782148 34.086164 12.922868 21.559804 3.287508"></polygon>
          <path
            d="M23.058616,2.380224 C23.058616,3.297504 22.333416,4.042304 21.437696,4.042304 C20.543936,4.042304 19.818736,3.297504 19.818736,2.380224 C19.818736,1.462944 20.543936,0.718144 21.437696,0.718144 C22.333416,0.718144 23.058616,1.462944 23.058616,2.380224"
            id="Fill-23" fill="#632ED8"></path>
          <path
            d="M21.43848,1.43668 C20.94064,1.43668 20.53688,1.86004 20.53688,2.3814 C20.53688,2.9008 20.94064,3.32416 21.43848,3.32416 C21.93632,3.32416 22.34008,2.9008 22.34008,2.3814 C22.34008,1.86004 21.93632,1.43668 21.43848,1.43668 M21.43848,4.76084 C20.1488,4.76084 19.1002,3.69264 19.1002,2.3814 C19.1002,1.0682 20.1488,0 21.43848,0 C22.72816,0 23.77676,1.0682 23.77676,2.3814 C23.77676,3.69264 22.72816,4.76084 21.43848,4.76084"
            id="Fill-25" fill="#333333"></path>
        </g>
      </g>
    </g>
  </g>
</svg>
