<?xml version="1.0" encoding="UTF-8"?>
<svg width="108px" height="108px" viewBox="0 0 108 108" version="1.1" xmlns="http://www.w3.org/2000/svg"
     xmlns:xlink="http://www.w3.org/1999/xlink">
  <title>9</title>
  <defs>
    <polygon id="path-1" points="0 62.72 54.88196 62.72 54.88196 0 0 0"></polygon>
  </defs>
  <g id="2021" stroke="none" stroke-width="1" fill="none" fill-rule="evenodd">
    <g id="GUEST_PC_Main" transform="translate(-381.000000, -481.000000)">
      <g id="9" transform="translate(381.000000, 481.000000)">
        <rect id="Rectangle-2-Copy-6" fill="#FFFFF" x="0" y="0" width="107.8" height="107.8" rx="31.36"></rect>
        <g id="icon_9_m" transform="translate(27.440000, 23.520000)">
          <path
            d="M54.804148,61.52636 L42.203308,33.77864 L42.203308,22.50864 L40.511828,22.50864 L40.511828,33.7218 L27.883548,61.53028 C27.691468,61.94972 27.871788,62.44756 28.285348,62.6416 C28.696948,62.83564 29.184988,62.65336 29.375108,62.23392 L40.511828,37.71432 L40.511828,61.89288 C40.511828,62.34956 40.882268,62.72 41.344828,62.72 L41.370308,62.72 C41.828948,62.72 42.203308,62.34956 42.203308,61.89288 L42.203308,37.7692 L53.310628,62.23 C53.500748,62.64944 53.990748,62.83368 54.402348,62.63768 C54.815908,62.44364 54.996228,61.9458 54.804148,61.52636"
            id="Fill-1" fill="#333333"></path>
          <path
            d="M20.596072,61.52636 L11.732952,42.52024 L11.732952,22.50864 L10.039512,22.50864 L10.039512,42.51632 L10.033632,42.5124 L1.164632,61.52636 C0.968632,61.9458 1.154832,62.44364 1.578192,62.63768 C2.003512,62.83368 2.507232,62.64944 2.701272,62.22804 L10.039512,46.49708 L10.039512,61.88308 C10.039512,62.34368 10.419752,62.72 10.886232,62.72 C11.352712,62.72 11.732952,62.34368 11.732952,61.88308 L11.732952,46.51668 L19.059432,62.22804 C19.255432,62.64944 19.759152,62.83368 20.182512,62.63768 C20.607832,62.44364 20.792072,61.9458 20.596072,61.52636"
            id="Fill-3" fill="#333333"></path>
          <mask id="mask-2" fill="white">
            <use xlink:href="#path-1"></use>
          </mask>
          <g id="Clip-6"></g>
          <polygon id="Fill-5" fill="#632ED8" mask="url(#mask-2)"
                   points="29.498 24.18248 53.18852 24.18248 53.18852 0.7252 29.498 0.7252"></polygon>
          <path
            d="M30.23104,23.45728 L52.45548,23.45728 L52.45548,1.45236 L30.23104,1.45236 L30.23104,23.45728 Z M53.18852,24.90964 L29.498,24.90964 C29.09228,24.90964 28.76496,24.58428 28.76496,24.18248 L28.76496,0.7252 C28.76496,0.32536 29.09228,0 29.498,0 L53.18852,0 C53.59228,0 53.92156,0.32536 53.92156,0.7252 L53.92156,24.18248 C53.92156,24.58428 53.59228,24.90964 53.18852,24.90964 L53.18852,24.90964 Z"
            id="Fill-7" fill="#333333" mask="url(#mask-2)"></path>
          <path
            d="M21.038248,22.508248 C21.038248,28.060928 16.493008,32.561088 10.885448,32.561088 C5.277888,32.561088 0.734608,28.060928 0.734608,22.508248 C0.734608,16.955568 5.277888,12.455408 10.885448,12.455408 C16.493008,12.455408 21.038248,16.955568 21.038248,22.508248"
            id="Fill-8" fill="#FFC800" mask="url(#mask-2)"></path>
          <path
            d="M10.886036,13.18198 C5.692036,13.18198 1.466276,17.36462 1.466276,22.50766 C1.466276,27.6507 5.692036,31.8353 10.886036,31.8353 C16.076116,31.8353 20.305796,27.6507 20.305796,22.50766 C20.305796,17.36462 16.076116,13.18198 10.886036,13.18198 M10.886036,33.28766 C4.882556,33.28766 0.000196,28.45234 0.000196,22.50766 C0.000196,16.56494 4.882556,11.72766 10.886036,11.72766 C16.889516,11.72766 21.771876,16.56494 21.771876,22.50766 C21.771876,28.45234 16.889516,33.28766 10.886036,33.28766"
            id="Fill-9" fill="#333333" mask="url(#mask-2)"></path>
        </g>
      </g>
    </g>
  </g>
</svg>
