<svg width="56" height="56" viewBox="0 0 56 56" fill="none" xmlns="http://www.w3.org/2000/svg">
<path d="M28 56C12.54 56 0 43.46 0 28C0 12.54 12.54 0 28 0C43.46 0 56 12.54 56 28C56 43.46 43.46 56 28 56Z" fill="#FAFAFA"/>
<path d="M14.6143 41.6054H41.3965V23.7417C41.3965 23.7417 41.3965 23.5604 41.3965 23.3791C41.3005 23.3151 41.2151 23.2404 41.2151 23.2404L27.9947 13.4074L14.7957 23.2511C14.7957 23.2511 14.6996 23.3151 14.6143 23.3897C14.6143 23.6137 14.6143 23.827 14.6143 23.827V41.6054Z" fill="#FFC800"/>
<path d="M41.7702 40.0483H14.2197V23.6457H14.9987V39.2591H40.9913V23.6457H41.7702V40.0483Z" fill="#333333"/>
<path d="M41.3965 37.1475H14.6143V41.5841H41.3965V37.1475Z" fill="#632ED8"/>
<path d="M41.3754 41.968H14.6145C14.4011 41.968 14.2197 41.7974 14.2197 41.5734V37.1368C14.2197 36.9236 14.3905 36.7422 14.6145 36.7422H41.3968C41.6102 36.7422 41.7916 36.9129 41.7916 37.1368V41.5734C41.7702 41.7974 41.5995 41.968 41.3754 41.968ZM14.9987 41.1895H41.002V37.5315H14.9987V41.1895Z" fill="#333333"/>
<path d="M12.3838 22.4193L27.9943 10.4L43.6049 22.4193V25.4375L27.9943 13.4075L12.3838 25.4375V22.4193Z" fill="#632ED8"/>
<path d="M43.6052 25.8214C43.5198 25.8214 43.4345 25.7894 43.3705 25.736L27.9947 13.898L12.6189 25.736C12.5015 25.832 12.3414 25.8427 12.2134 25.7787C12.0747 25.7147 12 25.5761 12 25.4268V22.4193C12 22.3019 12.0534 22.1846 12.1494 22.11L27.7599 10.08C27.8986 9.97334 28.1014 9.97334 28.2401 10.08L43.8506 22.11C43.9466 22.1846 44 22.3019 44 22.4193V25.4268C44 25.5761 43.9146 25.7147 43.7866 25.7787C43.7226 25.8107 43.6692 25.8214 43.6052 25.8214ZM27.9947 13.0128C28.08 13.0128 28.1654 13.0448 28.2294 13.0982L43.2104 24.6376V22.6112L27.9947 10.8905L12.7683 22.6112V24.6376L27.7599 13.0982C27.8239 13.0448 27.9093 13.0128 27.9947 13.0128Z" fill="#333333"/>
<path d="M25.2525 27.4318H21.8487C21.7314 27.4318 21.646 27.3358 21.646 27.2292V24.3283C21.646 23.2725 22.4996 22.4193 23.556 22.4193C24.6123 22.4193 25.4659 23.2725 25.4659 24.3283V27.2292C25.4553 27.3358 25.3592 27.4318 25.2525 27.4318Z" fill="white"/>
<path d="M25.2523 27.8157H21.8485C21.5177 27.8157 21.251 27.5491 21.251 27.2185V24.3176C21.251 23.0485 22.286 22.0247 23.5451 22.0247C24.8148 22.0247 25.8392 23.0592 25.8392 24.3176V27.2185C25.8392 27.5491 25.5724 27.8157 25.2523 27.8157ZM22.0299 27.0372H25.0602V24.3283C25.0602 23.4964 24.3774 22.8139 23.5451 22.8139C22.7128 22.8139 22.0299 23.4964 22.0299 24.3283V27.0372Z" fill="#333333"/>
<path d="M34.1407 27.4318H30.7369C30.6195 27.4318 30.5342 27.3358 30.5342 27.2292V24.3283C30.5342 23.2725 31.3878 22.4193 32.4441 22.4193C33.5005 22.4193 34.3541 23.2725 34.3541 24.3283V27.2292C34.3434 27.3358 34.2581 27.4318 34.1407 27.4318Z" fill="white"/>
<path d="M34.1405 27.8157H30.7367C30.4059 27.8157 30.1392 27.5491 30.1392 27.2185V24.3176C30.1392 23.0485 31.1742 22.0247 32.4333 22.0247C33.703 22.0247 34.7274 23.0592 34.7274 24.3176V27.2185C34.738 27.5491 34.4713 27.8157 34.1405 27.8157ZM30.9288 27.0372H33.9591V24.3283C33.9591 23.4964 33.2762 22.8139 32.4439 22.8139C31.6116 22.8139 30.9288 23.4964 30.9288 24.3283V27.0372Z" fill="#333333"/>
<path d="M30.7795 41.6054H25.1989C25.0175 41.6054 24.8682 41.4561 24.8682 41.2748V34.3213C24.8682 32.5936 26.266 31.1965 27.9945 31.1965C29.7231 31.1965 31.1209 32.5936 31.1209 34.3213V41.2748C31.1209 41.4561 30.9715 41.6054 30.7795 41.6054Z" fill="white"/>
<path d="M30.7905 42H25.21C24.8152 42 24.4844 41.6801 24.4844 41.2748V34.3213C24.4844 32.3803 26.0636 30.8126 27.9949 30.8126C29.9369 30.8126 31.5054 32.391 31.5054 34.3213V41.2748C31.5054 41.6801 31.1853 42 30.7905 42ZM27.9949 31.5911C26.4904 31.5911 25.2633 32.8176 25.2633 34.3213V41.2748L30.7265 41.2215V34.3213C30.7265 32.8176 29.4994 31.5911 27.9949 31.5911Z" fill="#333333"/>
</svg>
