<svg width="12" height="12" viewBox="0 0 12 12" fill="none" xmlns="http://www.w3.org/2000/svg">
<path d="M8.15 2C7.3 2 6.55 2.34393 6 2.98266C5.45 2.34393 4.7 2 3.85 2C2.3 2 1 3.27746 1 4.80058C1 4.89884 1 4.99711 1 5.09538C1.2 7.40462 3.7 9.32081 5.15 10.2543C5.4 10.4017 5.7 10.5 6 10.5C6.3 10.5 6.6 10.4017 6.85 10.2543C8.3 9.32081 10.8 7.40462 11 5.14451C11 5.04624 11 4.94798 11 4.84971C11 3.27746 9.7 2 8.15 2ZM10 4.99711C9.85 6.96243 7.35 8.73121 6.3 9.36994C6.1 9.46821 5.9 9.46821 5.7 9.36994C4.65 8.68208 2.2 6.91329 2 4.94798C2 4.94798 2 4.84971 2 4.80058C2 3.81792 2.85 2.98266 3.85 2.98266C4.6 2.98266 5.25 3.42486 5.55 4.06358C5.6 4.26012 5.8 4.35838 6 4.35838C6.2 4.35838 6.4 4.26012 6.45 4.06358C6.75 3.42486 7.4 2.98266 8.15 2.98266C9.15 2.98266 10 3.81792 10 4.80058C10 4.84971 10 4.94798 10 4.99711Z" fill="#333333"/>
</svg>
