<svg width="12" height="12" viewBox="0 0 12 12" fill="none" xmlns="http://www.w3.org/2000/svg">
<path fill-rule="evenodd" clip-rule="evenodd" d="M5.52973 0.516858C8.19692 0.294418 10.4437 2.30118 10.4999 4.88866L10.5 4.89952C10.5 5.80396 10.2167 6.64926 9.71457 7.37516L9.70957 7.38226L7.17175 10.918C7.16672 10.9251 7.1615 10.9319 7.15611 10.9387C6.57276 11.6684 5.42549 11.7133 4.86495 10.9159L2.3263 7.37891C1.66456 6.4407 1.31682 5.25619 1.59803 4.00261C1.94479 2.12293 3.58373 0.739194 5.51447 0.518366C5.51955 0.517785 5.52464 0.517282 5.52973 0.516858ZM5.62049 1.51277C4.07516 1.69265 2.83419 2.79274 2.57996 4.19209C2.57866 4.19924 2.57721 4.20636 2.5756 4.21345C2.36372 5.14645 2.61248 6.04886 3.14233 6.80086L5.68247 10.3399C5.81783 10.5334 6.15544 10.5787 6.36807 10.3228L8.89455 6.8028C9.28554 6.23623 9.4989 5.59067 9.50002 4.90494C9.45373 2.91581 7.72499 1.34141 5.62049 1.51277Z" fill="#333333"/>
<path fill-rule="evenodd" clip-rule="evenodd" d="M6.00005 3.94995C5.47538 3.94995 5.05005 4.37528 5.05005 4.89995C5.05005 5.42462 5.47538 5.84995 6.00005 5.84995C6.52472 5.84995 6.95005 5.42462 6.95005 4.89995C6.95005 4.37528 6.52472 3.94995 6.00005 3.94995ZM4.05005 4.89995C4.05005 3.823 4.92309 2.94995 6.00005 2.94995C7.077 2.94995 7.95005 3.823 7.95005 4.89995C7.95005 5.97691 7.077 6.84995 6.00005 6.84995C4.92309 6.84995 4.05005 5.97691 4.05005 4.89995Z" fill="#333333"/>
<path fill-rule="evenodd" clip-rule="evenodd" d="M6.00005 3.94995C5.47538 3.94995 5.05005 4.37528 5.05005 4.89995C5.05005 5.42462 5.47538 5.84995 6.00005 5.84995C6.52472 5.84995 6.95005 5.42462 6.95005 4.89995C6.95005 4.37528 6.52472 3.94995 6.00005 3.94995ZM4.05005 4.89995C4.05005 3.823 4.92309 2.94995 6.00005 2.94995C7.077 2.94995 7.95005 3.823 7.95005 4.89995C7.95005 5.97691 7.077 6.84995 6.00005 6.84995C4.92309 6.84995 4.05005 5.97691 4.05005 4.89995Z" fill="#333333"/>
<path fill-rule="evenodd" clip-rule="evenodd" d="M6.00005 3.94995C5.47538 3.94995 5.05005 4.37528 5.05005 4.89995C5.05005 5.42462 5.47538 5.84995 6.00005 5.84995C6.52472 5.84995 6.95005 5.42462 6.95005 4.89995C6.95005 4.37528 6.52472 3.94995 6.00005 3.94995ZM4.05005 4.89995C4.05005 3.823 4.92309 2.94995 6.00005 2.94995C7.077 2.94995 7.95005 3.823 7.95005 4.89995C7.95005 5.97691 7.077 6.84995 6.00005 6.84995C4.92309 6.84995 4.05005 5.97691 4.05005 4.89995Z" fill="#333333"/>
</svg>
