<?xml version="1.0" encoding="UTF-8"?>
<svg width="108px" height="108px" viewBox="0 0 108 108" version="1.1" xmlns="http://www.w3.org/2000/svg"
     xmlns:xlink="http://www.w3.org/1999/xlink">
  <title>6</title>
  <defs>
    <polygon id="path-1" points="0.216972 0.98 14.154532 0.98 14.154532 18.562572 0.216972 18.562572"></polygon>
    <polygon id="path-3" points="0.523312 0.98 14.460872 0.98 14.460872 18.562572 0.523312 18.562572"></polygon>
  </defs>
  <g id="2021" stroke="none" stroke-width="1" fill="none" fill-rule="evenodd">
    <g id="GUEST_PC_Main" transform="translate(-1131.000000, -279.000000)">
      <g id="6" transform="translate(1131.000000, 279.000000)">
        <rect id="Rectangle-2-Copy-4" fill="#FFFFF" x="0" y="0" width="107.8" height="107.8" rx="31.36"></rect>
        <g id="icon_6_m" transform="translate(23.520000, 23.520000)">
          <g id="Group-3" transform="translate(13.720000, 0.980392)">
            <mask id="mask-2" fill="white">
              <use xlink:href="#path-1"></use>
            </mask>
            <g id="Clip-2"></g>
            <path
              d="M14.154532,18.562572 L0.216972,18.562572 L0.216972,7.949172 C0.216972,4.101692 3.337292,0.979412 7.184772,0.979412 C11.034212,0.979412 14.154532,4.101692 14.154532,7.949172 L14.154532,18.562572 Z"
              id="Fill-1" fill="#632ED8" mask="url(#mask-2)"></path>
          </g>
          <path
            d="M20.90536,1.960392 C17.05788,1.960392 13.9356,5.080712 13.9356,8.930152 L13.9356,19.543552 L27.87512,19.543552 L27.87512,8.930152 C27.87512,5.080712 24.7548,1.960392 20.90536,1.960392 M20.90536,3.430392 C23.93748,3.430392 26.40512,5.898032 26.40512,8.930152 L26.40512,18.073552 L15.4056,18.073552 L15.4056,8.930152 C15.4056,5.898032 17.87324,3.430392 20.90536,3.430392"
            id="Fill-4" fill="#333333"></path>
          <g id="Group-8" transform="translate(34.320000, 0.980392)">
            <mask id="mask-4" fill="white">
              <use xlink:href="#path-3"></use>
            </mask>
            <g id="Clip-7"></g>
            <path
              d="M14.460872,18.562572 L0.523312,18.562572 L0.523312,7.949172 C0.523312,4.101692 3.643632,0.979412 7.493072,0.979412 C11.340552,0.979412 14.460872,4.101692 14.460872,7.949172 L14.460872,18.562572 Z"
              id="Fill-6" fill="#FFFFFF" mask="url(#mask-4)"></path>
          </g>
          <path
            d="M41.8117,1.960392 C37.96422,1.960392 34.8439,5.080712 34.8439,8.930152 L34.8439,19.543552 L48.78146,19.543552 L48.78146,8.930152 C48.78146,5.080712 45.66114,1.960392 41.8117,1.960392 M41.8117,3.430392 C44.84382,3.430392 47.31146,5.898032 47.31146,8.930152 L47.31146,18.073552 L36.3139,18.073552 L36.3139,8.930152 C36.3139,5.898032 38.77958,3.430392 41.8117,3.430392"
            id="Fill-9" fill="#333333"></path>
          <path
            d="M48.71776,45.037272 L14.00028,45.037272 C6.26808,45.037272 0,38.769192 0,31.035032 L0,27.391392 C0,19.657232 6.26808,13.389152 14.00028,13.389152 L48.71776,13.389152 C56.44996,13.389152 62.72,19.657232 62.72,27.391392 L62.72,31.035032 C62.72,38.769192 56.44996,45.037272 48.71776,45.037272"
            id="Fill-11" fill="#FFC800"></path>
          <path
            d="M48.71776,13.389348 L14.00028,13.389348 C6.26808,13.389348 0,19.657428 0,27.391588 L0,31.035228 C0,38.769388 6.26808,45.037468 14.00028,45.037468 L48.71776,45.037468 C56.44996,45.037468 62.72,38.769388 62.72,31.035228 L62.72,27.391588 C62.72,19.657428 56.44996,13.389348 48.71776,13.389348 M48.71776,14.859348 C55.62676,14.859348 61.25,20.480628 61.25,27.391588 L61.25,31.035228 C61.25,37.946188 55.62676,43.567468 48.71776,43.567468 L14.00028,43.567468 C7.09128,43.567468 1.47,37.946188 1.47,31.035228 L1.47,27.391588 C1.47,20.480628 7.09128,14.859348 14.00028,14.859348 L48.71776,14.859348"
            id="Fill-13" fill="#333333"></path>
          <path
            d="M27.874532,51.191084 L13.936972,51.191084 L13.936972,40.577684 C13.936972,36.730204 17.057292,33.609884 20.904772,33.609884 C24.754212,33.609884 27.874532,36.730204 27.874532,40.577684 L27.874532,51.191084 Z"
            id="Fill-15" fill="#FFFFFF"></path>
          <path
            d="M20.90536,33.609492 C17.05788,33.609492 13.9356,36.729812 13.9356,40.577292 L13.9356,51.190692 L27.87512,51.190692 L27.87512,40.577292 C27.87512,36.729812 24.7548,33.609492 20.90536,33.609492 M20.90536,35.079492 C23.93748,35.079492 26.40512,37.545172 26.40512,40.577292 L26.40512,49.720692 L15.4056,49.720692 L15.4056,40.577292 C15.4056,37.545172 17.87324,35.079492 20.90536,35.079492"
            id="Fill-17" fill="#333333"></path>
          <path
            d="M48.780872,51.191084 L34.843312,51.191084 L34.843312,40.577684 C34.843312,36.730204 37.963632,33.609884 41.813072,33.609884 C45.660552,33.609884 48.780872,36.730204 48.780872,40.577684 L48.780872,51.191084 Z"
            id="Fill-19" fill="#632ED8"></path>
          <path
            d="M41.8117,33.609492 C37.96422,33.609492 34.8439,36.729812 34.8439,40.577292 L34.8439,51.190692 L48.78146,51.190692 L48.78146,40.577292 C48.78146,36.729812 45.66114,33.609492 41.8117,33.609492 M41.8117,35.079492 C44.84382,35.079492 47.31146,37.545172 47.31146,40.577292 L47.31146,49.720692 L36.3139,49.720692 L36.3139,40.577292 C36.3139,37.545172 38.77958,35.079492 41.8117,35.079492"
            id="Fill-21" fill="#333333"></path>
          <polygon id="Fill-23" fill="#333333"
                   points="13.936384 61.740392 12.193944 61.740392 13.936384 51.191672 15.678824 51.191672"></polygon>
          <polygon id="Fill-25" fill="#333333"
                   points="29.616384 61.740392 27.873944 61.740392 26.133464 51.191672 27.873944 51.191672"></polygon>
          <polygon id="Fill-27" fill="#333333"
                   points="34.843508 61.740392 33.101068 61.740392 34.843508 51.191672 36.585948 51.191672"></polygon>
          <polygon id="Fill-29" fill="#333333"
                   points="50.523508 61.740392 48.781068 61.740392 47.038628 51.191672 48.781068 51.191672"></polygon>
        </g>
      </g>
    </g>
  </g>
</svg>
