<svg width="28" height="16" viewBox="0 0 28 16" fill="none" xmlns="http://www.w3.org/2000/svg">
<rect width="28" height="13" rx="6.5" fill="#632ED8"/>
<path d="M10.3133 9H9.40703L6.72734 5.13281H6.68047V9H5.66484V3.34375H6.58672L9.25078 7.21094H9.30547V3.34375H10.3133V9ZM11.1602 3.34375H14.8398V4.19531H12.1758V5.74219H14.6445V6.59375H12.1758V8.14062H14.8555V9H11.1602V3.34375ZM15.218 3.34375H16.3117L17.3352 7.50781H17.3898L18.4758 3.34375H19.4758L20.5695 7.51562H20.6164L21.6398 3.34375H22.7336L21.1398 9H20.132L18.9992 5.02344H18.9602L17.8195 9H16.8117L15.218 3.34375Z" fill="white"/>
<path d="M22 16L18 12H22V16Z" fill="#632ED8"/>
</svg>
