<?xml version="1.0" encoding="UTF-8"?>
<svg width="108px" height="108px" viewBox="0 0 108 108" version="1.1" xmlns="http://www.w3.org/2000/svg"
     xmlns:xlink="http://www.w3.org/1999/xlink">
  <title>18</title>
  <defs>
    <polygon id="path-1" points="0.00015387954 0.59094 62.72 0.59094 62.72 15.68 0.00015387954 15.68"></polygon>
  </defs>
  <g id="2021" stroke="none" stroke-width="1" fill="none" fill-rule="evenodd">
    <g id="GUEST_PC_Main" transform="translate(-531.000000, -683.000000)">
      <g id="18" transform="translate(531.000000, 683.000000)">
        <rect id="Rectangle-2-Copy-16" fill="#FFFFF" x="0" y="0" width="107.8" height="107.8" rx="31.36"></rect>
        <g id="icon_18_m" transform="translate(23.520000, 25.480000)">
          <path
            d="M49.805756,35.819392 L49.805756,48.431992 C51.973516,49.631512 54.029556,51.009392 55.930756,52.565632 L55.930756,35.819392 L49.805756,35.819392 Z"
            id="Fill-1" fill="#FDFFFF"></path>
          <path
            d="M50.523508,48.011964 C52.173828,48.946884 53.747708,49.977844 55.217708,51.089164 L55.217708,36.536164 L50.523508,36.536164 L50.523508,48.011964 Z M55.935068,53.282404 C55.772388,53.282404 55.611668,53.229484 55.482308,53.121684 C53.643828,51.622284 51.619148,50.256164 49.459228,49.060564 C49.227948,48.933164 49.088788,48.692084 49.088788,48.431404 L49.088788,35.818804 C49.088788,35.422884 49.410228,35.103404 49.806148,35.103404 L55.935068,35.103404 C56.329028,35.103404 56.650468,35.422884 56.650468,35.818804 L56.650468,52.567004 C56.650468,52.843364 56.493668,53.096204 56.240828,53.213804 C56.144788,53.260844 56.040908,53.282404 55.935068,53.282404 L55.935068,53.282404 Z"
            id="Fill-3" fill="#333333"></path>
          <path
            d="M55.146952,22.776964 C58.257472,21.802844 60.531072,18.937324 60.531072,15.509284 C60.531072,11.285484 57.101072,7.861364 52.871392,7.861364 C48.639752,7.861364 45.209752,11.285484 45.209752,15.509284 C45.209752,18.937324 47.481392,21.802844 50.593872,22.776964 C47.481392,23.749124 45.209752,26.614644 45.209752,30.042684 C45.209752,34.266484 48.639752,37.690604 52.871392,37.690604 C57.101072,37.690604 60.531072,34.266484 60.531072,30.042684 C60.531072,26.614644 58.257472,23.749124 55.146952,22.776964"
            id="Fill-5" fill="#632ED8"></path>
          <path
            d="M52.871196,8.579312 C49.041356,8.579312 45.928876,11.687872 45.928876,15.511832 C45.928876,18.536112 47.888876,21.180152 50.809276,22.093512 C51.109156,22.185632 51.312996,22.461992 51.312996,22.777552 C51.312996,23.089192 51.109156,23.367512 50.809276,23.461592 C47.888876,24.372992 45.928876,27.018992 45.928876,30.043272 C45.928876,33.865272 49.041356,36.973832 52.871196,36.973832 C56.699076,36.973832 59.811556,33.865272 59.811556,30.043272 C59.811556,27.018992 57.849596,24.372992 54.931156,23.461592 C54.629316,23.367512 54.427436,23.089192 54.427436,22.777552 C54.427436,22.461992 54.629316,22.185632 54.931156,22.093512 C57.849596,21.180152 59.811556,18.536112 59.811556,15.511832 C59.811556,11.687872 56.699076,8.579312 52.871196,8.579312 M52.871196,38.408552 C48.249516,38.408552 44.492196,34.655152 44.492196,30.043272 C44.492196,26.973912 46.160156,24.229912 48.780676,22.777552 C46.160156,21.323232 44.492196,18.579232 44.492196,15.511832 C44.492196,10.897992 48.249516,7.144592 52.871196,7.144592 C57.488956,7.144592 61.248236,10.897992 61.248236,15.511832 C61.248236,18.579232 59.580276,21.323232 56.959756,22.777552 C59.580276,24.229912 61.248236,26.973912 61.248236,30.043272 C61.248236,34.655152 57.488956,38.408552 52.871196,38.408552"
            id="Fill-7" fill="#333333"></path>
          <path
            d="M34.982276,6.000148 C34.672596,6.000148 34.372716,6.031508 34.082636,6.090308 C33.431916,3.020948 30.731036,0.715988 27.489196,0.715988 C25.482156,0.715988 23.700516,1.615628 22.465716,3.017028 C21.407316,2.066428 20.025516,1.470588 18.494756,1.470588 C15.290156,1.470588 12.693156,4.012708 12.530476,7.201628 C11.730796,6.460748 10.674356,6.000148 9.502276,6.000148 C7.018956,6.000148 5.007996,8.026788 5.007996,10.529708 C5.007996,13.028708 7.018956,15.057308 9.502276,15.057308 C11.703356,15.057308 13.526156,13.465788 13.916196,11.362708 C15.015756,12.687668 16.648436,13.548108 18.494756,13.548108 C20.025516,13.548108 21.407316,12.952268 22.465716,12.003628 C23.700516,13.403068 25.482156,14.302708 27.489196,14.302708 C28.902356,14.302708 30.211636,13.861708 31.297476,13.111028 C32.108916,14.287028 33.455436,15.057308 34.982276,15.057308 C37.465596,15.057308 39.478516,13.028708 39.478516,10.529708 C39.478516,8.026788 37.465596,6.000148 34.982276,6.000148"
            id="Fill-9" fill="#FFFFFF"></path>
          <path
            d="M31.296692,12.39504 C31.339812,12.39504 31.380972,12.39896 31.424092,12.4068 C31.612252,12.44012 31.778852,12.54792 31.886652,12.70472 C32.596172,13.7298 33.752572,14.34132 34.981492,14.34132 C37.064972,14.34132 38.760372,12.63024 38.760372,10.52912 C38.760372,8.17516 36.580852,6.31708 34.224932,6.79336 C33.836852,6.8796 33.460532,6.62676 33.378212,6.23868 C32.790212,3.45548 30.314732,1.43472 27.488412,1.43472 C25.767532,1.43472 24.174052,2.16384 23.005892,3.49076 C22.878492,3.63188 22.698172,3.72008 22.508052,3.73184 C22.317932,3.7436 22.127812,3.67696 21.986692,3.54956 C21.006692,2.67148 19.767972,2.18736 18.495932,2.18736 C15.699012,2.18736 13.394052,4.40608 13.249012,7.23828 C13.235292,7.5166 13.060852,7.75964 12.802132,7.86352 C12.545372,7.97132 12.247452,7.9184 12.043612,7.72828 C11.338012,7.0756 10.436412,6.71692 9.503452,6.71692 C7.419972,6.71692 5.724572,8.428 5.724572,10.52912 C5.724572,12.63024 7.419972,14.34132 9.503452,14.34132 C11.316452,14.34132 12.876612,13.034 13.209812,11.23276 C13.260772,10.96032 13.464612,10.73884 13.737052,10.67024 C14.005572,10.60164 14.291732,10.6918 14.470092,10.90544 C16.324252,13.13788 19.822852,13.41228 21.986692,11.46992 C22.127812,11.34252 22.319892,11.27784 22.508052,11.28764 C22.698172,11.29744 22.878492,11.38564 23.005892,11.52872 C25.003132,13.79252 28.460572,14.2002 30.889012,12.52244 C31.008572,12.43816 31.151652,12.39504 31.296692,12.39504 M34.981492,15.77604 C33.511492,15.77604 32.115972,15.14296 31.134012,14.06104 C28.395892,15.6114 24.732652,15.17236 22.406132,12.97324 C19.987492,14.74508 16.514372,14.60788 14.242732,12.70472 C13.413652,14.53928 11.579092,15.77604 9.503452,15.77604 C6.628132,15.77604 4.287892,13.42012 4.287892,10.52912 C4.287892,7.63616 6.628132,5.2822 9.503452,5.2822 C10.377612,5.2822 11.230212,5.5076 11.990692,5.929 C12.698252,2.94588 15.352092,0.7546 18.495932,0.7546 C19.895372,0.7546 21.259532,1.20736 22.406132,2.04624 C23.787932,0.73892 25.606812,0 27.488412,0 C30.765532,0 33.664372,2.18932 34.614972,5.29592 C37.625532,5.07444 40.197052,7.51464 40.197052,10.52912 C40.197052,13.42012 37.858772,15.77604 34.981492,15.77604"
            id="Fill-11" fill="#333333"></path>
          <g id="Group-15" transform="translate(0.000000, 43.119608)">
            <mask id="mask-2" fill="white">
              <use xlink:href="#path-1"></use>
            </mask>
            <g id="Clip-14"></g>
            <path
              d="M0.718732,15.67902 C0.548212,15.67902 0.375732,15.61826 0.238532,15.49478 C-0.057428,15.23018 -0.080948,14.77742 0.185612,14.48342 C8.129492,5.65362 19.493572,0.59094 31.359412,0.59094 C43.225252,0.59094 54.587372,5.65362 62.537132,14.48342 C62.801732,14.77742 62.776252,15.23018 62.484212,15.49478 C62.184332,15.76134 61.735492,15.73782 61.466972,15.4399 C53.793572,6.9139 42.819532,2.0237 31.359412,2.0237 C19.899292,2.0237 8.925252,6.9139 1.251852,15.4399 C1.110732,15.59866 0.914732,15.67902 0.718732,15.67902"
              id="Fill-13" fill="#333333" mask="url(#mask-2)"></path>
          </g>
          <path
            d="M13.254696,48.745984 C12.856816,48.745984 12.535376,48.424544 12.535376,48.028624 L12.535376,39.880904 C12.535376,39.484984 12.856816,39.163544 13.254696,39.163544 C13.650616,39.163544 13.972056,39.484984 13.972056,39.880904 L13.972056,48.028624 C13.972056,48.424544 13.650616,48.745984 13.254696,48.745984"
            id="Fill-16" fill="#333333"></path>
          <path
            d="M18.770136,36.520876 C17.386376,37.914436 15.140216,37.914436 13.756456,36.520876 C12.370736,35.127316 12.370736,32.867436 13.756456,31.473876 C15.140216,30.080316 17.386376,30.080316 18.770136,31.473876 C20.155856,32.867436 20.155856,35.127316 18.770136,36.520876"
            id="Fill-18" fill="#FFC800"></path>
          <path
            d="M16.262708,31.145184 C15.508108,31.145184 14.798588,31.441144 14.265468,31.978184 C13.160028,33.091464 13.160028,34.902504 14.265468,36.015784 C15.331708,37.091824 17.191748,37.091824 18.261908,36.015784 C19.367348,34.902504 19.367348,33.091464 18.261908,31.978184 C17.726828,31.441144 17.017308,31.145184 16.262708,31.145184 M16.262708,38.283504 C15.121988,38.283504 14.051828,37.836624 13.246268,37.025184 C11.586148,35.355264 11.586148,32.638704 13.246268,30.968784 C14.857388,29.347864 17.671948,29.347864 19.281108,30.968784 C20.939268,32.638704 20.939268,35.355264 19.281108,37.025184 C18.475548,37.836624 17.403428,38.283504 16.262708,38.283504"
            id="Fill-20" fill="#333333"></path>
          <path
            d="M12.753328,42.577864 C11.367608,43.971424 9.123408,43.971424 7.737688,42.577864 C6.353928,41.184304 6.353928,38.924424 7.737688,37.530864 C9.123408,36.137304 11.367608,36.137304 12.753328,37.530864 C14.139048,38.924424 14.139048,41.184304 12.753328,42.577864"
            id="Fill-22" fill="#FFC800"></path>
          <path
            d="M10.2459,37.202172 C9.4913,37.202172 8.78178,37.498132 8.2467,38.035172 C7.14322,39.148452 7.14322,40.959492 8.2467,42.072772 C9.3149,43.148812 11.1769,43.148812 12.24314,42.072772 C13.34858,40.959492 13.34858,39.148452 12.24314,38.035172 C11.71002,37.498132 11.0005,37.202172 10.2459,37.202172 M10.2459,44.340492 C9.10518,44.340492 8.03306,43.893612 7.2275,43.082172 C5.56934,41.412252 5.56934,38.695692 7.2275,37.025772 C8.83862,35.406812 11.65318,35.404852 13.26234,37.025772 C14.92246,38.695692 14.92246,41.412252 13.26234,43.082172 C12.45678,43.893612 11.38662,44.340492 10.2459,44.340492"
            id="Fill-24" fill="#333333"></path>
          <path
            d="M12.753328,36.520876 C11.367608,37.914436 9.123408,37.914436 7.737688,36.520876 C6.353928,35.127316 6.353928,32.867436 7.737688,31.473876 C9.123408,30.080316 11.367608,30.080316 12.753328,31.473876 C14.139048,32.867436 14.139048,35.127316 12.753328,36.520876"
            id="Fill-26" fill="#FFC800"></path>
          <path
            d="M10.2459,31.145184 C9.4913,31.145184 8.78178,31.441144 8.2467,31.978184 C7.14126,33.091464 7.14126,34.902504 8.2467,36.015784 C9.3149,37.093784 11.1769,37.093784 12.24314,36.015784 C13.34858,34.902504 13.34858,33.091464 12.24314,31.978184 C11.71002,31.441144 11.0005,31.145184 10.2459,31.145184 M10.2459,38.283504 C9.10518,38.283504 8.03306,37.836624 7.2275,37.025184 C5.56934,35.355264 5.56934,32.638704 7.2275,30.968784 C8.83862,29.347864 11.65318,29.347864 13.26234,30.968784 C14.92246,32.638704 14.92246,35.355264 13.26234,37.025184 C12.45678,37.836624 11.38662,38.283504 10.2459,38.283504"
            id="Fill-28" fill="#333333"></path>
          <path
            d="M18.770136,42.577864 C17.386376,43.971424 15.140216,43.971424 13.756456,42.577864 C12.370736,41.184304 12.370736,38.924424 13.756456,37.530864 C15.140216,36.137304 17.386376,36.137304 18.770136,37.530864 C20.155856,38.924424 20.155856,41.184304 18.770136,42.577864"
            id="Fill-30" fill="#FFC800"></path>
          <path
            d="M16.262708,37.202172 C15.508108,37.202172 14.798588,37.498132 14.265468,38.035172 C13.160028,39.148452 13.160028,40.959492 14.265468,42.072772 C15.331708,43.146852 17.191748,43.146852 18.261908,42.072772 C19.365388,40.959492 19.365388,39.148452 18.261908,38.035172 C17.726828,37.498132 17.017308,37.202172 16.262708,37.202172 M16.262708,44.340492 C15.121988,44.340492 14.051828,43.893612 13.246268,43.082172 C11.586148,41.412252 11.586148,38.695692 13.246268,37.025772 C14.857388,35.404852 17.671948,35.406812 19.281108,37.025772 C20.939268,38.695692 20.939268,41.412252 19.281108,43.082172 C18.475548,43.893612 17.403428,44.340492 16.262708,44.340492"
            id="Fill-32" fill="#333333"></path>
          <path
            d="M15.260756,39.044572 C14.153356,40.159812 12.356036,40.159812 11.248636,39.044572 C10.141236,37.929332 10.141236,36.122212 11.248636,35.006972 C12.356036,33.891732 14.153356,33.891732 15.260756,35.006972 C16.368156,36.122212 16.368156,37.929332 15.260756,39.044572"
            id="Fill-34" fill="#632ED8"></path>
          <path
            d="M13.254696,34.887216 C12.688256,34.887216 12.157096,35.108696 11.757256,35.512456 C10.928176,36.347416 10.928176,37.705696 11.757256,38.540656 C12.558896,39.344256 13.950496,39.344256 14.750176,38.540656 C15.581216,37.705696 15.581216,36.347416 14.750176,35.512456 C14.350336,35.108696 13.819176,34.887216 13.254696,34.887216 M13.254696,40.598656 C12.304096,40.598656 11.410336,40.226256 10.738056,39.550056 C9.356256,38.158456 9.356256,35.892696 10.738056,34.501096 C12.080656,33.150656 14.426776,33.150656 15.769376,34.501096 C17.153136,35.892696 17.153136,38.158456 15.769376,39.550056 C15.097096,40.226256 14.203336,40.598656 13.254696,40.598656"
            id="Fill-36" fill="#333333"></path>
        </g>
      </g>
    </g>
  </g>
</svg>
