<?xml version="1.0" encoding="UTF-8"?>
<svg width="108px" height="108px" viewBox="0 0 108 108" version="1.1" xmlns="http://www.w3.org/2000/svg"
     xmlns:xlink="http://www.w3.org/1999/xlink">
  <title>20</title>
  <defs>
    <polygon id="path-1" points="0.000196 0 62.72 0 62.72 62.72 0.000196 62.72"></polygon>
  </defs>
  <g id="2021" stroke="none" stroke-width="1" fill="none" fill-rule="evenodd">
    <g id="GUEST_PC_Main" transform="translate(-831.000000, -683.000000)">
      <g id="20" transform="translate(831.000000, 683.000000)">
        <rect id="Rectangle-2-Copy-7" fill="#FFFFF" x="0" y="0" width="107.8" height="107.8" rx="31.36"></rect>
        <g id="icon_20_m" transform="translate(23.520000, 23.520000)">
          <polygon id="Fill-1" fill="#FFFFFF"
                   points="18.3358 43.61588 29.30396 43.61588 29.30396 37.48696 18.3358 37.48696"></polygon>
          <g id="Group-16">
            <mask id="mask-2" fill="white">
              <use xlink:href="#path-1"></use>
            </mask>
            <g id="Clip-3"></g>
            <path
              d="M19.05512,42.89656 L28.58464,42.89656 L28.58464,38.20432 L19.05512,38.20432 L19.05512,42.89656 Z M29.30396,44.33324 L18.3358,44.33324 C17.93988,44.33324 17.61844,44.0118 17.61844,43.61588 L17.61844,37.48696 C17.61844,37.09104 17.93988,36.76764 18.3358,36.76764 L29.30396,36.76764 C29.69988,36.76764 30.02132,37.09104 30.02132,37.48696 L30.02132,43.61588 C30.02132,44.0118 29.69988,44.33324 29.30396,44.33324 L29.30396,44.33324 Z"
              id="Fill-2" fill="#333333" mask="url(#mask-2)"></path>
            <polygon id="Fill-4" fill="#FFFFFF" mask="url(#mask-2)"
                     points="33.41408 43.61588 44.38224 43.61588 44.38224 37.48696 33.41408 37.48696"></polygon>
            <path
              d="M34.13536,42.89656 L43.66096,42.89656 L43.66096,38.20432 L34.13536,38.20432 L34.13536,42.89656 Z M44.38224,44.33324 L33.418,44.33324 C33.02012,44.33324 32.69868,44.0118 32.69868,43.61588 L32.69868,37.48696 C32.69868,37.09104 33.02012,36.76764 33.418,36.76764 L44.38224,36.76764 C44.77816,36.76764 45.10156,37.09104 45.10156,37.48696 L45.10156,43.61588 C45.10156,44.0118 44.77816,44.33324 44.38224,44.33324 L44.38224,44.33324 Z"
              id="Fill-5" fill="#333333" mask="url(#mask-2)"></path>
            <path
              d="M42.08414,51.27654 C42.08414,57.19966 37.2841,62.00166 31.35902,62.00166 C25.43786,62.00166 20.63586,57.19966 20.63586,51.27654 C20.63586,45.35342 25.43786,40.55142 31.35902,40.55142 C37.2841,40.55142 42.08414,45.35342 42.08414,51.27654"
              id="Fill-6" fill="#FFC800" mask="url(#mask-2)"></path>
            <path
              d="M31.359608,41.26976 C25.844168,41.26976 21.355768,45.75816 21.355768,51.27556 C21.355768,56.79492 25.844168,61.28332 31.359608,61.28332 C36.873088,61.28332 41.363448,56.79492 41.363448,51.27556 C41.363448,45.75816 36.873088,41.26976 31.359608,41.26976 M31.359608,62.72 C25.050368,62.72 19.917128,57.58676 19.917128,51.27556 C19.917128,44.96632 25.050368,39.83308 31.359608,39.83308 C37.668848,39.83308 42.802088,44.96632 42.802088,51.27556 C42.802088,57.58676 37.668848,62.72 31.359608,62.72"
              id="Fill-7" fill="#333333" mask="url(#mask-2)"></path>
            <path
              d="M19.101964,32.077556 C18.992204,32.077556 18.884404,32.054036 18.780524,32.001116 L9.588124,27.406876 C9.235324,27.228516 9.092244,26.797316 9.266684,26.442556 C9.445044,26.085836 9.880164,25.944716 10.232964,26.121116 L19.423404,30.717316 C19.778164,30.893716 19.921244,31.326876 19.742884,31.679676 C19.619404,31.932516 19.366564,32.077556 19.101964,32.077556"
              id="Fill-8" fill="#333333" mask="url(#mask-2)"></path>
            <path
              d="M14.506352,62.719804 C14.110432,62.719804 13.788992,62.398364 13.788992,62.000484 L13.788992,29.827084 C13.788992,29.431164 14.110432,29.109724 14.506352,29.109724 C14.904232,29.109724 15.225672,29.431164 15.225672,29.827084 L15.225672,62.000484 C15.225672,62.398364 14.904232,62.719804 14.506352,62.719804"
              id="Fill-9" fill="#333333" mask="url(#mask-2)"></path>
            <path
              d="M9.91074,62.719804 C9.8147,62.719804 9.71866,62.700204 9.62654,62.661004 C9.26394,62.506164 9.09538,62.082804 9.25022,61.718244 L13.84642,50.993124 C13.9601,50.728524 14.21882,50.558004 14.50694,50.558004 C14.79506,50.558004 15.05378,50.728524 15.16746,50.995084 L19.7617,61.718244 C19.91654,62.082804 19.74994,62.506164 19.38538,62.661004 C19.02474,62.815844 18.59746,62.651204 18.44262,62.282724 L14.50694,53.100124 L10.57126,62.284684 C10.45366,62.557124 10.18906,62.719804 9.91074,62.719804"
              id="Fill-10" fill="#333333" mask="url(#mask-2)"></path>
            <path
              d="M43.617252,32.077556 C43.352652,32.077556 43.099812,31.932516 42.976332,31.679676 C42.797972,31.326876 42.941052,30.893716 43.295812,30.717316 L52.486252,26.121116 C52.841012,25.944716 53.276132,26.085836 53.452532,26.442556 C53.626972,26.797316 53.483892,27.228516 53.131092,27.406876 L43.938692,32.001116 C43.834812,32.054036 43.727012,32.077556 43.617252,32.077556"
              id="Fill-11" fill="#333333" mask="url(#mask-2)"></path>
            <path
              d="M48.212864,62.719804 C47.814984,62.719804 47.493544,62.398364 47.493544,62.000484 L47.493544,29.827084 C47.493544,29.431164 47.814984,29.109724 48.212864,29.109724 C48.608784,29.109724 48.930224,29.431164 48.930224,29.827084 L48.930224,62.000484 C48.930224,62.398364 48.608784,62.719804 48.212864,62.719804"
              id="Fill-12" fill="#333333" mask="url(#mask-2)"></path>
            <path
              d="M52.808672,62.719804 C52.530352,62.719804 52.265752,62.557124 52.148152,62.284684 L48.212472,53.100124 L44.274832,62.282724 C44.121952,62.649244 43.692712,62.815844 43.334032,62.661004 C42.969472,62.506164 42.802872,62.082804 42.957712,61.718244 L47.551952,50.995084 C47.781272,50.465884 48.643672,50.465884 48.872992,50.993124 L53.469192,61.718244 C53.624032,62.082804 53.455472,62.506164 53.092872,62.661004 C53.000752,62.700204 52.904712,62.719804 52.808672,62.719804"
              id="Fill-13" fill="#333333" mask="url(#mask-2)"></path>
            <path
              d="M57.406244,62.001072 L57.406244,31.360392 C57.406244,16.973992 45.744244,5.313952 31.359804,5.313952 C16.975364,5.313952 5.315324,16.973992 5.315324,31.360392 L5.315324,62.001072 L0.717164,62.001072 L0.717164,31.360392 C0.717164,14.435792 14.437164,0.717752 31.359804,0.717752 C48.284404,0.717752 62.002444,14.435792 62.002444,31.360392 L62.002444,62.001072 L57.406244,62.001072 Z"
              id="Fill-14" fill="#632ED8" mask="url(#mask-2)"></path>
            <path
              d="M58.122036,61.28332 L61.283516,61.28332 L61.283516,31.36 C61.283516,14.85876 47.859476,1.43668 31.360196,1.43668 C14.860916,1.43668 1.434916,14.85876 1.434916,31.36 L1.434916,61.28332 L4.596396,61.28332 L4.596396,31.36 C4.596396,16.6012 16.601396,4.5962 31.360196,4.5962 C46.117036,4.5962 58.122036,16.6012 58.122036,31.36 L58.122036,61.28332 Z M62.000876,62.72 L57.404676,62.72 C57.008756,62.72 56.687316,62.39856 56.687316,62.00068 L56.687316,31.36 C56.687316,17.39304 45.325196,6.03288 31.360196,6.03288 C17.395196,6.03288 6.033076,17.39304 6.033076,31.36 L6.033076,62.00068 C6.033076,62.39856 5.711636,62.72 5.315716,62.72 L0.717556,62.72 C0.321636,62.72 0.000196,62.39856 0.000196,62.00068 L0.000196,31.36 C0.000196,14.06692 14.065156,0 31.360196,0 C48.651316,0 62.720196,14.06692 62.720196,31.36 L62.720196,62.00068 C62.720196,62.39856 62.398756,62.72 62.000876,62.72 L62.000876,62.72 Z"
              id="Fill-15" fill="#333333" mask="url(#mask-2)"></path>
          </g>
        </g>
      </g>
    </g>
  </g>
</svg>
