<?xml version="1.0" encoding="UTF-8"?>
<svg width="108px" height="108px" viewBox="0 0 108 108" version="1.1" xmlns="http://www.w3.org/2000/svg"
     xmlns:xlink="http://www.w3.org/1999/xlink">
  <title>21</title>
  <defs>
    <polygon id="path-1" points="0 43.118432 62.72196 43.118432 62.72196 0.000392 0 0.000392"></polygon>
  </defs>
  <g id="2021" stroke="none" stroke-width="1" fill="none" fill-rule="evenodd">
    <g id="GUEST_PC_Main" transform="translate(-981.000000, -683.000000)">
      <g id="21" transform="translate(981.000000, 683.000000)">
        <rect id="Rectangle-2-Copy-17" fill="#FFFFF" x="0" y="0" width="107.8" height="107.8" rx="31.36"></rect>
        <g id="icon_21_m" transform="translate(23.520000, 33.320000)">
          <path
            d="M39.314072,16.216844 L23.406712,16.216844 C22.630552,16.216844 22.001392,15.587684 22.001392,14.811524 L22.001392,6.650084 C22.001392,5.873924 22.630552,5.244764 23.406712,5.244764 L39.314072,5.244764 C40.090232,5.244764 40.719392,5.873924 40.719392,6.650084 L40.719392,14.811524 C40.719392,15.587684 40.090232,16.216844 39.314072,16.216844"
            id="Fill-1" fill="#FFFFFF"></path>
          <path
            d="M23.4073,5.963104 C23.02902,5.963104 22.71934,6.270824 22.71934,6.651064 L22.71934,14.812504 C22.71934,15.190784 23.02902,15.498504 23.4073,15.498504 L39.3127,15.498504 C39.69294,15.498504 40.00066,15.190784 40.00066,14.812504 L40.00066,6.651064 C40.00066,6.270824 39.69294,5.963104 39.3127,5.963104 L23.4073,5.963104 Z M39.3127,16.935184 L23.4073,16.935184 C22.23522,16.935184 21.28462,15.982624 21.28462,14.812504 L21.28462,6.651064 C21.28462,5.478984 22.23522,4.526424 23.4073,4.526424 L39.3127,4.526424 C40.48478,4.526424 41.43734,5.478984 41.43734,6.651064 L41.43734,14.812504 C41.43734,15.982624 40.48478,16.935184 39.3127,16.935184 L39.3127,16.935184 Z"
            id="Fill-3" fill="#333333"></path>
          <path
            d="M2.54212,42.401072 L2.12072,42.401072 C1.34652,42.401072 0.71736,41.773872 0.71736,40.999672 L0.71736,22.906912 L3.94352,22.906912 L3.94352,40.999672 C3.94352,41.773872 3.31632,42.401072 2.54212,42.401072"
            id="Fill-5" fill="#FFFFFF"></path>
          <path
            d="M1.43668,23.624272 L1.43668,40.999672 C1.43668,41.375992 1.74244,41.681752 2.12072,41.681752 L2.54212,41.681752 C2.91844,41.681752 3.22616,41.375992 3.22616,40.999672 L3.22616,23.624272 L1.43668,23.624272 Z M2.54212,43.118432 L2.12072,43.118432 C0.9506,43.118432 0,42.167832 0,40.999672 L0,22.906912 C0,22.509032 0.32144,22.187592 0.71736,22.187592 L3.94352,22.187592 C4.33944,22.187592 4.66284,22.509032 4.66284,22.906912 L4.66284,40.999672 C4.66284,42.167832 3.71028,43.118432 2.54212,43.118432 L2.54212,43.118432 Z"
            id="Fill-7" fill="#333333"></path>
          <path
            d="M60.600456,42.401072 L60.179056,42.401072 C59.404856,42.401072 58.775696,41.773872 58.775696,40.999672 L58.775696,22.906912 L62.001856,22.906912 L62.001856,40.999672 C62.001856,41.773872 61.374656,42.401072 60.600456,42.401072"
            id="Fill-9" fill="#FFFFFF"></path>
          <path
            d="M59.495016,23.624272 L59.495016,40.999672 C59.495016,41.375992 59.800776,41.681752 60.179056,41.681752 L60.600456,41.681752 C60.976776,41.681752 61.284496,41.375992 61.284496,40.999672 L61.284496,23.624272 L59.495016,23.624272 Z M60.600456,43.118432 L60.179056,43.118432 C59.008936,43.118432 58.058336,42.167832 58.058336,40.999672 L58.058336,22.906912 C58.058336,22.509032 58.379776,22.187592 58.777656,22.187592 L62.001856,22.187592 C62.397776,22.187592 62.721176,22.509032 62.721176,22.906912 L62.721176,40.999672 C62.721176,42.167832 61.768616,43.118432 60.600456,43.118432 L60.600456,43.118432 Z"
            id="Fill-11" fill="#333333"></path>
          <mask id="mask-2" fill="white">
            <use xlink:href="#path-1"></use>
          </mask>
          <g id="Clip-14"></g>
          <polygon id="Fill-13" fill="#FFFFFF" mask="url(#mask-2)"
                   points="0.71736 22.857912 62.00264 22.857912 62.00264 16.407552 0.71736 16.407552"></polygon>
          <path
            d="M1.43668,22.138592 L61.28332,22.138592 L61.28332,17.124912 L1.43668,17.124912 L1.43668,22.138592 Z M62.00264,23.575272 L0.71736,23.575272 C0.32144,23.575272 0,23.253832 0,22.857912 L0,16.409512 C0,16.013592 0.32144,15.690192 0.71736,15.690192 L62.00264,15.690192 C62.39856,15.690192 62.72,16.013592 62.72,16.409512 L62.72,22.857912 C62.72,23.253832 62.39856,23.575272 62.00264,23.575272 L62.00264,23.575272 Z"
            id="Fill-15" fill="#333333" mask="url(#mask-2)"></path>
          <path
            d="M54.744368,4.072096 L49.907088,4.072096 L49.907088,2.847096 C49.907088,1.537816 50.967448,0.477456 52.276728,0.477456 L52.376688,0.477456 C53.684008,0.477456 54.744368,1.537816 54.744368,2.847096 L54.744368,4.072096 Z"
            id="Fill-16" fill="#FFC800" mask="url(#mask-2)"></path>
          <path
            d="M50.385132,3.592484 L54.265932,3.592484 L54.265932,2.847684 C54.265932,1.803004 53.417252,0.956284 52.374532,0.956284 C51.233812,0.956284 50.385132,1.803004 50.385132,2.847684 L50.385132,3.592484 Z M55.224372,4.550924 L49.428652,4.550924 L49.428652,2.847684 C49.428652,1.275764 50.704612,-0.000196 52.276532,-0.000196 C53.946452,-0.000196 55.224372,1.275764 55.224372,2.847684 L55.224372,4.550924 Z"
            id="Fill-17" fill="#333333" mask="url(#mask-2)"></path>
          <polyline id="Fill-18" fill="#333333" mask="url(#mask-2)"
                    points="52.924116 13.708436 52.924116 4.071116 51.726556 4.071116 51.726556 13.708436"></polyline>
          <path
            d="M52.924116,13.708436 C52.732036,13.659436 52.534076,13.624156 52.326316,13.624156 C52.116596,13.624156 51.918636,13.659436 51.726556,13.708436 C50.695596,13.976956 49.931196,14.904036 49.931196,16.021236 L54.719476,16.021236 C54.719476,14.904036 53.955076,13.976956 52.924116,13.708436"
            id="Fill-19" fill="#632ED8" mask="url(#mask-2)"></path>
          <path
            d="M50.472156,15.541036 L54.178516,15.541036 C54.007996,14.884436 53.490556,14.351316 52.804556,14.172956 C52.438036,14.078876 52.218516,14.076916 51.846116,14.172956 C51.162076,14.351316 50.642676,14.884436 50.472156,15.541036 L50.472156,15.541036 Z M55.197716,16.499476 L49.452956,16.499476 L49.452956,16.019276 C49.452956,14.715876 50.338876,13.575156 51.606996,13.245876 C52.142076,13.108676 52.514476,13.108676 53.043676,13.245876 C54.311796,13.575156 55.197716,14.715876 55.197716,16.019276 L55.197716,16.499476 Z"
            id="Fill-20" fill="#333333" mask="url(#mask-2)"></path>
          <path
            d="M39.424224,30.641072 L23.295384,30.641072 L23.295384,17.620792 C23.295384,14.045752 26.194224,11.146912 29.771224,11.146912 L32.948384,11.146912 C36.525384,11.146912 39.424224,14.045752 39.424224,17.620792 L39.424224,30.641072 Z"
            id="Fill-21" fill="#632ED8" mask="url(#mask-2)"></path>
          <path
            d="M24.015096,29.92332 L38.705296,29.92332 L38.705296,17.6204 C38.705296,14.44716 36.122016,11.86584 32.948776,11.86584 L29.771616,11.86584 C26.598376,11.86584 24.015096,14.44716 24.015096,17.6204 L24.015096,29.92332 Z M40.141976,31.36 L22.578416,31.36 L22.578416,17.6204 C22.578416,13.65532 25.806536,10.42916 29.771616,10.42916 L32.948776,10.42916 C36.915816,10.42916 40.141976,13.65532 40.141976,17.6204 L40.141976,31.36 Z"
            id="Fill-22" fill="#333333" mask="url(#mask-2)"></path>
          <line x1="23.296364" y1="30.641072" x2="23.296364" y2="42.401072" id="Fill-23" fill="#FFC800"
                mask="url(#mask-2)"></line>
          <polygon id="Fill-24" fill="#333333" mask="url(#mask-2)"
                   points="22.57724 42.401072 24.01392 42.401072 24.01392 30.641072 22.57724 30.641072"></polygon>
          <line x1="39.424224" y1="30.641072" x2="39.424224" y2="42.401072" id="Fill-25" fill="#FFC800"
                mask="url(#mask-2)"></line>
          <polygon id="Fill-26" fill="#333333" mask="url(#mask-2)"
                   points="38.70412 42.401072 40.1408 42.401072 40.1408 30.641072 38.70412 30.641072"></polygon>
        </g>
      </g>
    </g>
  </g>
</svg>
