<?xml version="1.0" encoding="UTF-8"?>
<svg width="108px" height="108px" viewBox="0 0 108 108" version="1.1" xmlns="http://www.w3.org/2000/svg"
     xmlns:xlink="http://www.w3.org/1999/xlink">
  <title>12</title>
  <defs>
    <polygon id="path-1" points="0.61544 0.850436 11.1426 0.850436 11.1426 16.64 0.61544 16.64"></polygon>
    <polygon id="path-3" points="0.23382 0.351812 10.76 0.351812 10.76 21.404172 0.23382 21.404172"></polygon>
    <polygon id="path-5" points="0.23382 0.35142 10.76 0.35142 10.76 21.40378 0.23382 21.40378"></polygon>
    <polygon id="path-7" points="0 58.799804 62.72 58.799804 62.72 -0.000196 0 -0.000196"></polygon>
  </defs>
  <g id="2021" stroke="none" stroke-width="1" fill="none" fill-rule="evenodd">
    <g id="GUEST_PC_Main" transform="translate(-831.000000, -481.000000)">
      <g id="12" transform="translate(831.000000, 481.000000)">
        <rect id="Rectangle-2-Copy-2" fill="#FFFFF" x="0" y="0" width="107.8" height="107.8" rx="31.36"></rect>
        <g id="icon_12_m" transform="translate(23.520000, 25.480000)">
          <g id="Group-3" transform="translate(25.480000, 42.159804)">
            <mask id="mask-2" fill="white">
              <use xlink:href="#path-1"></use>
            </mask>
            <g id="Clip-2"></g>
            <path
              d="M7.6342,16.640196 L4.1258,16.640196 C2.18736,16.640196 0.61544,15.068276 0.61544,13.131796 L0.61544,0.850436 L11.1426,0.850436 L11.1426,13.131796 C11.1426,15.068276 9.57264,16.640196 7.6342,16.640196"
              id="Fill-1" fill="#333333" mask="url(#mask-2)"></path>
          </g>
          <path
            d="M7.500332,29.06876 C7.500332,15.89168 18.182332,5.20968 31.359412,5.20968 C44.536492,5.20968 55.220452,15.89168 55.220452,29.06876 L59.693172,29.06876 C59.693172,13.42012 47.008052,0.735 31.359412,0.735 C15.710772,0.735 3.025652,13.42012 3.025652,29.06876 L7.500332,29.06876 Z"
            id="Fill-4" fill="#FFC800"></path>
          <path
            d="M55.94428,28.33376 L58.94896,28.33376 C58.55696,13.4554 46.33244,1.47 31.36,1.47 C16.38756,1.47 4.16304,13.4554 3.77104,28.33376 L6.77572,28.33376 C7.16576,15.10964 18.04376,4.47468 31.36,4.47468 C44.67624,4.47468 55.55424,15.10964 55.94428,28.33376 L55.94428,28.33376 Z M60.42876,29.80376 L54.48408,29.80376 L54.48408,29.06876 C54.48408,16.317 44.11176,5.94468 31.36,5.94468 C18.60824,5.94468 8.23592,16.317 8.23592,29.06876 L8.23592,29.80376 L2.29124,29.80376 L2.29124,29.06876 C2.29124,13.03988 15.33112,0 31.36,0 C47.38888,0 60.42876,13.03988 60.42876,29.06876 L60.42876,29.80376 Z"
            id="Fill-6" fill="#333333"></path>
          <path
            d="M5.262796,47.883976 L5.262796,47.883976 C2.356116,47.883976 0.000196,45.528056 0.000196,42.621376 L0.000196,32.094216 C0.000196,29.187536 2.356116,26.831616 5.262796,26.831616 C8.169476,26.831616 10.527356,29.187536 10.527356,32.094216 L10.527356,42.621376 C10.527356,45.528056 8.169476,47.883976 5.262796,47.883976"
            id="Fill-8" fill="#632ED8"></path>
          <path
            d="M5.262796,26.831224 C2.356116,26.831224 0.000196,29.189104 0.000196,32.095784 L0.000196,42.620984 C0.000196,45.527664 2.356116,47.883584 5.262796,47.883584 C8.169476,47.883584 10.527356,45.527664 10.527356,42.620984 L10.527356,32.095784 C10.527356,29.189104 8.169476,26.831224 5.262796,26.831224 M5.262796,28.301224 C7.354116,28.301224 9.057356,30.002504 9.057356,32.095784 L9.057356,42.620984 C9.057356,44.712304 7.354116,46.413584 5.262796,46.413584 C3.171476,46.413584 1.470196,44.712304 1.470196,42.620984 L1.470196,32.095784 C1.470196,30.002504 3.171476,28.301224 5.262796,28.301224"
            id="Fill-10" fill="#333333"></path>
          <g id="Group-14" transform="translate(51.960000, 26.479804)">
            <mask id="mask-4" fill="white">
              <use xlink:href="#path-3"></use>
            </mask>
            <g id="Clip-13"></g>
            <path
              d="M5.49642,21.404172 L5.49642,21.404172 C2.58974,21.404172 0.23382,19.048252 0.23382,16.141572 L0.23382,5.614412 C0.23382,2.707732 2.58974,0.351812 5.49642,0.351812 C8.4031,0.351812 10.76098,2.707732 10.76098,5.614412 L10.76098,16.141572 C10.76098,19.048252 8.4031,21.404172 5.49642,21.404172"
              id="Fill-12" fill="#632ED8" mask="url(#mask-4)"></path>
          </g>
          <g id="Group-17" transform="translate(51.960000, 26.479804)">
            <mask id="mask-6" fill="white">
              <use xlink:href="#path-5"></use>
            </mask>
            <g id="Clip-16"></g>
            <path
              d="M5.49642,0.35142 C2.58974,0.35142 0.23382,2.7093 0.23382,5.61598 L0.23382,16.14118 C0.23382,19.04786 2.58974,21.40378 5.49642,21.40378 C8.4031,21.40378 10.76098,19.04786 10.76098,16.14118 L10.76098,5.61598 C10.76098,2.7093 8.4031,0.35142 5.49642,0.35142 M5.49642,1.82142 C7.58774,1.82142 9.29098,3.5227 9.29098,5.61598 L9.29098,16.14118 C9.29098,18.2325 7.58774,19.93378 5.49642,19.93378 C3.4051,19.93378 1.70382,18.2325 1.70382,16.14118 L1.70382,5.61598 C1.70382,3.5227 3.4051,1.82142 5.49642,1.82142"
              id="Fill-15" fill="#333333" mask="url(#mask-6)"></path>
          </g>
          <path
            d="M40.132176,48.273624 L22.588216,48.273624 L22.588216,27.805344 C22.588216,24.575264 25.206776,21.956704 28.436856,21.956704 L34.283536,21.956704 C37.513616,21.956704 40.132176,24.575264 40.132176,27.805344 L40.132176,48.273624 Z"
            id="Fill-18" fill="#FFFFFF"></path>
          <path
            d="M34.283732,21.957096 L28.437052,21.957096 C25.206972,21.957096 22.588412,24.575656 22.588412,27.805736 L22.588412,48.274016 L40.132372,48.274016 L40.132372,27.805736 C40.132372,24.575656 37.513812,21.957096 34.283732,21.957096 M34.283732,23.427096 C36.698452,23.427096 38.662372,25.391016 38.662372,27.805736 L38.662372,46.804016 L24.058412,46.804016 L24.058412,27.805736 C24.058412,25.391016 26.022332,23.427096 28.437052,23.427096 L34.283732,23.427096"
            id="Fill-20" fill="#333333"></path>
          <mask id="mask-8" fill="white">
            <use xlink:href="#path-7"></use>
          </mask>
          <g id="Clip-23"></g>
          <polygon id="Fill-22" fill="#333333" mask="url(#mask-8)"
                   points="32.83196 30.001524 38.6806 30.001524 38.6806 28.531524 32.83196 28.531524"></polygon>
          <polygon id="Fill-24" fill="#333333" mask="url(#mask-8)"
                   points="32.82216 41.698804 38.66884 41.698804 38.66884 40.228804 32.82216 40.228804"></polygon>
          <polygon id="Fill-25" fill="#333333" mask="url(#mask-8)"
                   points="32.82216 35.850164 38.66884 35.850164 38.66884 34.380164 32.82216 34.380164"></polygon>
        </g>
      </g>
    </g>
  </g>
</svg>
