<?xml version="1.0" encoding="utf-8"?>
<!-- Generator: Adobe Illustrator 25.4.4, SVG Export Plug-In . SVG Version: 6.00 Build 0)  -->
<svg version="1.1" id="Layer_1" xmlns="http://www.w3.org/2000/svg" x="0px"
     y="0px"
     viewBox="0 0 108 108" style="enable-background:new 0 0 108 108;" xml:space="preserve">
<style type="text/css">
	.st0{fill-rule:evenodd;clip-rule:evenodd;fill:NONE;}
	.st1{fill:#632ED8;}
	.st2{fill:#333333;}
	.st3{fill:#FFFFFF;}
	.st4{fill:#FFC800;}
</style>
  <g>
	<g id="_x32_021">
		<g id="GUEST_PC_Main" transform="translate(-1281.000000, -481.000000)">
			<g id="_x31_5" transform="translate(1281.000000, 481.000000)">
				<path id="Rectangle-2-Copy" class="st0" d="M31.5,0.1h45.1c17.3,0,31.4,14,31.4,31.4v45.1c0,17.3-14,31.4-31.4,31.4H31.5
					C14.1,107.8,0.1,93.8,0.1,76.4v-45C0.1,14.1,14.1,0.1,31.5,0.1z"/>
			</g>
		</g>
	</g>
    <ellipse transform="matrix(0.9852 -0.1716 0.1716 0.9852 -5.6768 6.9032)" class="st1" cx="37.1" cy="36.3" rx="5.6"
             ry="13.2"/>
    <g>
		<path class="st2" d="M39.8,51.5c-0.1,0-0.3,0-0.4-0.1c-4.6-3.2-7.7-8-8.7-13.5c-1-5.5,0.3-11.1,3.6-15.7c0.2-0.3,0.7-0.4,1-0.2
			c4.6,3.2,7.7,8,8.7,13.5l0,0c1,5.5-0.3,11.1-3.6,15.7C40.2,51.4,40,51.5,39.8,51.5z M35.1,23.6c-2.7,4.1-3.8,9.1-2.9,13.9
			c0.9,4.9,3.5,9.2,7.5,12.1c2.7-4.1,3.8-9,2.9-13.9l0,0C41.7,30.9,39,26.6,35.1,23.6z"/>
	</g>
    <ellipse transform="matrix(0.8627 -0.5057 0.5057 0.8627 -17.0989 21.8624)" class="st1" cx="31.7" cy="42.4" rx="5.5"
             ry="13.6"/>
    <g>
		<path class="st2" d="M38.8,55.4c-0.1,0-0.1,0-0.2,0c-5.5-1.4-10-4.8-12.9-9.6c-2.8-4.8-3.6-10.5-2.1-15.9c0.1-0.4,0.5-0.6,0.9-0.5
			c5.5,1.4,10,4.8,12.9,9.6c2.8,4.8,3.6,10.5,2.1,15.9C39.5,55.2,39.2,55.4,38.8,55.4z M24.9,31c-1.1,4.8-0.4,9.8,2.1,14.1
			c2.5,4.3,6.5,7.4,11.2,8.8c1.1-4.8,0.4-9.8-2.1-14.1C33.7,35.4,29.7,32.3,24.9,31z"/>
	</g>
    <g>
		<polygon class="st3" points="44.5,77.5 33,77.5 30.2,54.6 47.3,54.6 		"/>
      <path class="st2" d="M44.5,78.2H33c-0.4,0-0.7-0.3-0.7-0.6l-2.9-22.9c0-0.2,0-0.4,0.2-0.6s0.3-0.2,0.6-0.2h17.1
			c0.2,0,0.4,0.1,0.6,0.2s0.2,0.4,0.2,0.6l-2.9,22.9C45.2,77.9,44.8,78.2,44.5,78.2z M33.7,76.7h10.1l2.7-21.4H31L33.7,76.7z"/>
	</g>
    <g>
		<g>
			<path class="st1" d="M42.6,85.4L42.6,85.4c-1.1,0-2-0.9-2-2v-6h4v6C44.6,84.5,43.7,85.4,42.6,85.4z"/>
      <path class="st2" d="M42.6,86.2c-1.5,0-2.7-1.2-2.7-2.7v-6c0-0.4,0.3-0.7,0.7-0.7h4c0.4,0,0.7,0.3,0.7,0.7v6
				C45.3,84.9,44.1,86.2,42.6,86.2z M41.3,78.2v5.2c0,0.7,0.6,1.3,1.3,1.3s1.3-0.6,1.3-1.3v-5.2H41.3z"/>
		</g>
      <g>
			<path class="st1" d="M82.3,85.4L82.3,85.4c-1.1,0-2-0.9-2-2v-6h4v6C84.3,84.5,83.4,85.4,82.3,85.4z"/>
        <path class="st2" d="M82.3,86.2c-1.5,0-2.7-1.2-2.7-2.7v-6c0-0.4,0.3-0.7,0.7-0.7h4c0.4,0,0.7,0.3,0.7,0.7v6
				C85.1,84.9,83.8,86.2,82.3,86.2z M81.1,78.2v5.2c0,0.7,0.6,1.3,1.3,1.3c0.7,0,1.3-0.6,1.3-1.3v-5.2H81.1z"/>
		</g>
      <g>
			<path class="st4" d="M80.3,71.5H44.6V55.6c0-4.4,3.6-8,8-8h19.9c4.4,0,8,3.6,8,8V71.5z"/>
        <path class="st2" d="M80.3,72.2H44.6c-0.4,0-0.7-0.3-0.7-0.7V55.6c0-4.8,3.9-8.7,8.7-8.7h19.9c4.8,0,8.7,3.9,8.7,8.7v15.9
				C81.1,71.9,80.8,72.2,80.3,72.2z M45.3,70.8h34.3V55.6c0-4-3.2-7.2-7.2-7.2H52.5c-4,0-7.2,3.2-7.2,7.2V70.8z"/>
		</g>
      <g>
			<path class="st3" d="M76.8,64c-4.5-0.9-9.2-1.3-13.9-1.3S53.5,63.1,49,64l-4.5,1.5v8h36.3v-8.8L76.8,64z"/>
        <path class="st2" d="M80.8,74.2H44.6c-0.4,0-0.7-0.3-0.7-0.7v-8c0-0.3,0.2-0.6,0.5-0.7l4.5-1.5c0,0,0.1,0,0.1,0
				c9.3-1.8,18.8-1.8,28.1,0l4,0.7c0.3,0.1,0.6,0.4,0.6,0.7v8.8C81.6,73.9,81.3,74.2,80.8,74.2z M45.3,72.8h34.8v-7.4l-3.4-0.6
				c0,0,0,0,0,0c-9.1-1.7-18.4-1.8-27.5,0l-3.9,1.4V72.8z"/>
		</g>
      <g>
			<path class="st4" d="M80.3,58.6c-2.2,0-4,1.8-4,4v8.9H48.5v-8.9c0-2.2-1.8-4-4-4c-2.2,0-4,1.8-4,4v8.9v8h8h27.8h8v-8v-8.9
				C84.3,60.4,82.5,58.6,80.3,58.6z"/>
        <path class="st2" d="M84.3,80.2H40.6c-0.4,0-0.7-0.3-0.7-0.7V62.6c0-2.6,2.1-4.7,4.7-4.7s4.7,2.1,4.7,4.7v8.2h26.4v-8.2
				c0-2.6,2.1-4.7,4.7-4.7s4.7,2.1,4.7,4.7v16.9C85.1,79.9,84.7,80.2,84.3,80.2z M41.3,78.7h42.3V62.6c0-1.8-1.5-3.2-3.2-3.2
				c-1.8,0-3.2,1.5-3.2,3.2v8.9c0,0.4-0.3,0.7-0.7,0.7H48.5c-0.4,0-0.7-0.3-0.7-0.7v-8.9c0-1.8-1.5-3.2-3.2-3.2
				c-1.8,0-3.2,1.5-3.2,3.2V78.7z"/>
		</g>
	</g>
    <ellipse transform="matrix(0.5057 -0.8627 0.8627 0.5057 -14.9109 60.0941)" class="st1" cx="45" cy="43.1" rx="12.5"
             ry="5.3"/>
    <g>
		<path class="st2" d="M38.3,55.2c-0.3,0-0.6-0.2-0.7-0.5c-1.4-5-0.7-10.3,2-14.8l0,0c2.6-4.5,6.9-7.7,11.9-8.9
			c0.4-0.1,0.8,0.1,0.9,0.5c1.4,5,0.7,10.3-2,14.8c-2.6,4.5-6.9,7.7-11.9,8.9C38.4,55.2,38.4,55.2,38.3,55.2z M40.8,40.6L40.8,40.6
			c-2.3,3.9-3,8.5-2,12.9c4.4-1.3,8-4.1,10.3-8.1c2.3-3.9,3-8.5,2-12.9C46.8,33.8,43.1,36.7,40.8,40.6z"/>
	</g>
</g>
</svg>
