<?xml version="1.0" encoding="UTF-8"?>
<svg width="108px" height="108px" viewBox="0 0 108 108" version="1.1" xmlns="http://www.w3.org/2000/svg"
>
  <title>7</title>
  <g id="2021" stroke="none" stroke-width="1" fill="none" fill-rule="evenodd">
    <g id="GUEST_PC_Main" transform="translate(-1281.000000, -279.000000)">
      <g id="7" transform="translate(1281.000000, 279.000000)">
        <rect id="Rectangle-2-Copy-5" fill="#FFFFF" x="0" y="0" width="107.8" height="107.8" rx="31.36"></rect>
        <g id="icon_7_m" transform="translate(23.520000, 23.520000)">
          <polygon id="Fill-1" fill="#FFFFFF"
                   points="0.71932 43.80796 62.00264 43.80796 62.00264 0.71932 0.71932 0.71932"></polygon>
          <g id="Group-12">
            <path
              d="M1.43668,43.0906 L61.28332,43.0906 L61.28332,1.43668 L1.43668,1.43668 L1.43668,43.0906 Z M62.00264,44.52728 L0.71932,44.52728 C0.32144,44.52728 0,44.20584 0,43.80796 L0,0.71932 C0,0.32144 0.32144,0 0.71932,0 L62.00264,0 C62.39856,0 62.72,0.32144 62.72,0.71932 L62.72,43.80796 C62.72,44.20584 62.39856,44.52728 62.00264,44.52728 L62.00264,44.52728 Z"
              id="Fill-2" fill="#333333"></path>
            <path
              d="M19.420856,42.611772 L17.986136,42.611772 L17.986136,29.685572 C17.986136,29.495452 18.060616,29.311212 18.195856,29.177932 L26.812016,20.559812 L27.829256,21.575092 L19.420856,29.983492 L19.420856,42.611772 Z"
              id="Fill-4" fill="#333333"></path>
            <path
              d="M28.936656,21.06706 C28.936656,22.25678 27.972336,23.22306 26.782616,23.22306 C25.592896,23.22306 24.628576,22.25678 24.628576,21.06706 C24.628576,19.87734 25.592896,18.91302 26.782616,18.91302 C27.972336,18.91302 28.936656,19.87734 28.936656,21.06706"
              id="Fill-5" fill="#FFC800"></path>
            <path
              d="M26.78242,19.630576 C25.99058,19.630576 25.34574,20.275416 25.34574,21.067256 C25.34574,21.859096 25.99058,22.503936 26.78242,22.503936 C27.57426,22.503936 28.2191,21.859096 28.2191,21.067256 C28.2191,20.275416 27.57426,19.630576 26.78242,19.630576 M26.78242,23.940616 C25.19874,23.940616 23.90906,22.650936 23.90906,21.067256 C23.90906,19.483576 25.19874,18.193896 26.78242,18.193896 C28.3661,18.193896 29.65578,19.483576 29.65578,21.067256 C29.65578,22.650936 28.3661,23.940616 26.78242,23.940616"
              id="Fill-6" fill="#333333"></path>
            <path
              d="M44.736216,42.611772 L43.301496,42.611772 L43.301496,29.983492 L34.893096,21.575092 L35.908376,20.559812 L44.526496,29.177932 C44.659776,29.311212 44.736216,29.495452 44.736216,29.685572 L44.736216,42.611772 Z"
              id="Fill-7" fill="#333333"></path>
            <path
              d="M33.784912,21.06706 C33.784912,22.25678 34.749232,23.22306 35.938952,23.22306 C37.128672,23.22306 38.092992,22.25678 38.092992,21.06706 C38.092992,19.87734 37.128672,18.91302 35.938952,18.91302 C34.749232,18.91302 33.784912,19.87734 33.784912,21.06706"
              id="Fill-8" fill="#FFC800"></path>
            <path
              d="M35.939344,19.630576 C35.147504,19.630576 34.502664,20.275416 34.502664,21.067256 C34.502664,21.859096 35.147504,22.503936 35.939344,22.503936 C36.731184,22.503936 37.376024,21.859096 37.376024,21.067256 C37.376024,20.275416 36.731184,19.630576 35.939344,19.630576 M35.939344,23.940616 C34.355664,23.940616 33.065984,22.650936 33.065984,21.067256 C33.065984,19.483576 34.355664,18.193896 35.939344,18.193896 C37.523024,18.193896 38.812704,19.483576 38.812704,21.067256 C38.812704,22.650936 37.523024,23.940616 35.939344,23.940616"
              id="Fill-9" fill="#333333"></path>
            <polygon id="Fill-10" fill="#632ED8"
                     points="9.81764 62.00264 52.90628 62.00264 52.90628 36.14828 9.81764 36.14828"></polygon>
            <path
              d="M10.53304,61.28528 L52.18696,61.28528 L52.18696,36.8676 L10.53304,36.8676 L10.53304,61.28528 Z M52.90628,62.72 L9.81568,62.72 C9.41976,62.72 9.09832,62.39856 9.09832,62.00264 L9.09832,36.14828 C9.09832,35.75236 9.41976,35.43092 9.81568,35.43092 L52.90628,35.43092 C53.3022,35.43092 53.62364,35.75236 53.62364,36.14828 L53.62364,62.00264 C53.62364,62.39856 53.3022,62.72 52.90628,62.72 L52.90628,62.72 Z"
              id="Fill-11" fill="#333333"></path>
          </g>
        </g>
      </g>
    </g>
  </g>
</svg>
