<svg width="10" height="10" viewBox="0 0 10 10" fill="none" xmlns="http://www.w3.org/2000/svg">
<path d="M9.91401 3.72387C9.77743 3.26974 9.36769 2.90643 8.91243 2.86102L7.00032 2.58854L6.13532 0.772021C5.90769 0.272478 5.49795 0 4.99716 0C4.49637 0 4.08663 0.272478 3.859 0.726608L2.994 2.54313L1.08189 2.86102C0.626627 2.95184 0.21689 3.26974 0.0803107 3.72387C-0.101795 4.22341 0.0347843 4.72295 0.398995 5.08626L1.81031 6.49406L1.49163 8.49223C1.40058 8.99177 1.62821 9.49131 2.03795 9.76379C2.26558 9.90003 2.49321 9.99086 2.76637 9.99086C2.994 9.99086 3.1761 9.94545 3.35821 9.85462L5.08821 8.90095L6.81822 9.85462C7.22795 10.0817 7.72874 10.0363 8.13848 9.76379C8.54822 9.49131 8.77585 8.99177 8.6848 8.49223L8.36611 6.49406L9.77743 5.08626C9.95954 4.72295 10.0961 4.178 9.91401 3.72387Z" fill="#333333"/>
</svg>
