<svg width="12" height="12" viewBox="0 0 12 12" fill="none" xmlns="http://www.w3.org/2000/svg">
<path d="M3.4 9.04998H1.75C1.65 9.04998 1.6 8.99998 1.55 8.94998C1.5 8.89997 1.45 8.79997 1.5 8.69998C1.8 7.84998 2.55 7.34998 3.4 7.34998C4.45 7.34998 5.3 6.44998 5.3 5.39998C5.3 4.34998 4.45 3.34998 3.4 3.34998C2.35 3.34998 1.5 4.24998 1.5 5.34998C1.5 5.84998 1.7 6.34998 2 6.69998C1.35 7.04998 0.849996 7.59998 0.549996 8.34998C0.449996 8.69998 0.499996 9.14998 0.749996 9.49998C0.999996 9.84998 1.35 10.05 1.75 10.05H3.4C3.7 10.05 3.9 9.84998 3.9 9.54998C3.9 9.24998 3.7 9.04998 3.4 9.04998ZM2.5 5.34998C2.5 4.79998 2.9 4.39998 3.4 4.39998C3.9 4.39998 4.3 4.84998 4.3 5.34998C4.3 5.89998 3.9 6.29998 3.4 6.29998C2.9 6.29998 2.5 5.84998 2.5 5.34998Z" fill="#333333"/>
<path d="M11.45 8.04995C11.1 7.09995 10.4 6.39995 9.60004 5.99995C10.05 5.59995 10.3 4.99995 10.3 4.29995C10.3 2.99995 9.30003 1.94995 8.10004 1.94995C6.90004 1.94995 5.90004 2.99995 5.90004 4.29995C5.90004 4.94995 6.15004 5.54995 6.60004 5.99995C5.80004 6.39995 5.10004 7.09995 4.75004 8.04995C4.50004 8.49995 4.60004 8.99995 4.85004 9.39995C5.10004 9.79995 5.55004 9.99995 6.00004 9.99995H10.15C10.6 9.99995 11.05 9.74995 11.3 9.39995C11.6 8.99995 11.65 8.49995 11.45 8.04995ZM6.85004 4.34995C6.85004 3.59995 7.40004 2.99995 8.05004 2.99995C8.70004 2.99995 9.25004 3.59995 9.25004 4.34995C9.25004 5.09995 8.70004 5.69995 8.05004 5.69995C7.40004 5.69995 6.85004 5.04995 6.85004 4.34995ZM10.45 8.84995C10.4 8.89995 10.3 9.04995 10.15 9.04995H6.00004C5.80004 9.04995 5.70004 8.89995 5.70004 8.84995C5.65004 8.79995 5.55004 8.59995 5.65004 8.39995C6.05004 7.34995 7.05004 6.64995 8.10004 6.64995C9.15004 6.64995 10.15 7.34995 10.55 8.39995C10.6 8.59995 10.5 8.79995 10.45 8.84995Z" fill="#333333"/>
</svg>
