<?xml version="1.0" encoding="UTF-8"?>
<svg width="108px" height="108px" viewBox="0 0 108 108" version="1.1" xmlns="http://www.w3.org/2000/svg"
>
  <title>15</title>
  <g id="2021" stroke="none" stroke-width="1" fill="none" fill-rule="evenodd">
    <g id="GUEST_PC_Main" transform="translate(-1281.000000, -481.000000)">
      <g id="15" transform="translate(1281.000000, 481.000000)">
        <rect id="Rectangle-2-Copy" fill="#FFFFF" x="0" y="0" width="107.8" height="107.8" rx="31.36"></rect>
        <g id="icon_15_m" transform="translate(23.520000, 27.440000)">
          <path
            d="M34.748056,5.410972 L31.359216,8.811572 L27.972336,5.410972 C21.735616,-0.849268 11.623976,-0.849268 5.387256,5.410972 C-0.849464,11.673172 -0.849464,21.825972 5.387256,28.086212 L8.774136,31.488772 L31.359216,54.164012 L53.946256,31.488772 L57.333136,28.086212 C63.569856,21.825972 63.569856,11.673172 57.333136,5.410972 C51.096416,-0.849268 40.984776,-0.849268 34.748056,5.410972"
            id="Fill-1" fill="#632ED8"></path>
          <path
            d="M16.681168,1.4308 C12.606328,1.4308 8.776488,3.02232 5.897248,5.91528 C-0.051352,11.88936 -0.051352,21.609 5.897248,27.58308 L31.359608,53.14736 L56.820008,27.58308 C62.772528,21.609 62.772528,11.88936 56.820008,5.91528 C53.944688,3.02232 50.114848,1.4308 46.040008,1.4308 C41.967128,1.4308 38.137288,3.02232 35.260008,5.91528 L31.871168,9.31588 C31.596768,9.58832 31.122448,9.58832 30.850008,9.31588 L27.461168,5.91528 C24.581928,3.02232 20.752088,1.4308 16.681168,1.4308 M31.359608,54.88 C31.169488,54.88 30.987208,54.8016 30.850008,54.66832 L4.876088,28.59052 C-1.625232,22.06176 -1.625232,11.4366 4.876088,4.90784 C8.029728,1.74244 12.220208,0 16.681168,0 C21.138208,0 25.328688,1.74244 28.482328,4.90784 L31.359608,7.79688 L34.236888,4.90784 C37.388568,1.74244 41.581008,0 46.040008,0 C50.500968,0 54.691448,1.74244 57.845088,4.90784 C64.344448,11.4366 64.344448,22.06176 57.845088,28.59052 L31.871168,54.66832 C31.733968,54.8016 31.551688,54.88 31.359608,54.88"
            id="Fill-3" fill="#333333"></path>
          <path
            d="M50.240484,19.585692 C48.217764,21.618212 44.936724,21.618212 42.914004,19.585692 C40.889324,17.553172 40.889324,14.256452 42.914004,12.223932 C44.936724,10.191412 48.217764,10.191412 50.240484,12.223932 C52.265164,14.256452 52.265164,17.553172 50.240484,19.585692"
            id="Fill-5" fill="#FFC800"></path>
          <path
            d="M46.577048,11.415432 L46.577048,11.415432 C45.385368,11.415432 44.266208,11.881912 43.425368,12.728632 C41.679008,14.478912 41.679008,17.330712 43.425368,19.080992 C44.266208,19.927712 45.385368,20.394192 46.577048,20.394192 C47.768728,20.394192 48.889848,19.927712 49.730688,19.080992 C51.475088,17.330712 51.475088,14.478912 49.730688,12.728632 C48.889848,11.881912 47.768728,11.415432 46.577048,11.415432 M46.577048,21.826952 L46.575088,21.826952 C44.999248,21.824992 43.517488,21.209552 42.402248,20.090392 C40.105128,17.781512 40.105128,14.028112 42.402248,11.721192 C43.517488,10.600072 44.999248,9.986592 46.575088,9.984632 L46.577048,9.984632 C48.154848,9.984632 49.638568,10.600072 50.751848,11.721192 C53.048968,14.028112 53.048968,17.781512 50.751848,20.090392 C49.638568,21.209552 48.154848,21.826952 46.577048,21.826952"
            id="Fill-7" fill="#333333"></path>
          <path
            d="M41.447336,28.41804 C39.424616,30.45056 36.143576,30.45056 34.120856,28.41804 C32.096176,26.38552 32.096176,23.09076 34.120856,21.05824 C36.143576,19.02572 39.424616,19.02572 41.447336,21.05824 C43.472016,23.09076 43.472016,26.38552 41.447336,28.41804"
            id="Fill-9" fill="#FFC800"></path>
          <path
            d="M37.783704,20.248956 C36.593984,20.248956 35.470904,20.715436 34.630064,21.562156 C32.887624,23.312436 32.887624,26.164236 34.630064,27.914516 C35.470904,28.761236 36.593984,29.227716 37.783704,29.227716 C38.973424,29.227716 40.094544,28.761236 40.933424,27.914516 C42.681744,26.164236 42.681744,23.312436 40.933424,21.562156 C40.094544,20.715436 38.973424,20.248956 37.783704,20.248956 L37.783704,20.248956 Z M37.783704,30.660476 C36.205904,30.660476 34.722184,30.043076 33.608904,28.921956 C31.313744,26.615036 31.313744,22.861636 33.608904,20.552756 C34.722184,19.433596 36.205904,18.818156 37.783704,18.818156 L37.785664,18.818156 C39.361504,18.818156 40.843264,19.433596 41.958504,20.552756 C44.255624,22.861636 44.255624,26.615036 41.958504,28.921956 C40.843264,30.043076 39.361504,30.658516 37.785664,30.660476 L37.783704,30.660476 Z"
            id="Fill-11" fill="#333333"></path>
          <path
            d="M41.447336,19.585692 C39.424616,21.618212 36.143576,21.618212 34.120856,19.585692 C32.096176,17.553172 32.096176,14.256452 34.120856,12.223932 C36.143576,10.191412 39.424616,10.191412 41.447336,12.223932 C43.472016,14.256452 43.472016,17.553172 41.447336,19.585692"
            id="Fill-13" fill="#FFC800"></path>
          <path
            d="M37.783704,11.415432 C36.593984,11.415432 35.470904,11.881912 34.630064,12.728632 C32.887624,14.478912 32.887624,17.330712 34.630064,19.080992 C35.470904,19.927712 36.593984,20.394192 37.783704,20.394192 C38.973424,20.394192 40.094544,19.927712 40.933424,19.080992 C42.681744,17.330712 42.681744,14.478912 40.933424,12.728632 C40.094544,11.881912 38.973424,11.415432 37.783704,11.415432 L37.783704,11.415432 Z M37.783704,21.826952 C36.205904,21.826952 34.722184,21.209552 33.608904,20.090392 C31.313744,17.781512 31.313744,14.028112 33.608904,11.721192 C34.722184,10.600072 36.205904,9.984632 37.783704,9.984632 L37.785664,9.984632 C39.361504,9.986592 40.843264,10.600072 41.958504,11.721192 C44.255624,14.028112 44.255624,17.781512 41.958504,20.090392 C40.843264,21.209552 39.361504,21.824992 37.785664,21.826952 L37.783704,21.826952 Z"
            id="Fill-15" fill="#333333"></path>
          <path
            d="M50.240484,28.41804 C48.217764,30.45056 44.936724,30.45056 42.914004,28.41804 C40.889324,26.38552 40.889324,23.09076 42.914004,21.05824 C44.936724,19.02572 48.217764,19.02572 50.240484,21.05824 C52.265164,23.09076 52.265164,26.38552 50.240484,28.41804"
            id="Fill-17" fill="#FFC800"></path>
          <path
            d="M46.577048,20.248956 L46.577048,20.248956 C45.385368,20.248956 44.266208,20.715436 43.425368,21.562156 C41.679008,23.312436 41.679008,26.164236 43.425368,27.914516 C44.266208,28.761236 45.385368,29.227716 46.577048,29.227716 C47.768728,29.227716 48.889848,28.761236 49.730688,27.914516 C51.475088,26.164236 51.475088,23.312436 49.730688,21.562156 C48.889848,20.715436 47.768728,20.248956 46.577048,20.248956 M46.577048,30.660476 L46.575088,30.660476 C44.999248,30.658516 43.517488,30.043076 42.402248,28.921956 C40.105128,26.615036 40.105128,22.861636 42.402248,20.552756 C43.517488,19.433596 44.999248,18.818156 46.575088,18.818156 L46.577048,18.818156 C48.154848,18.818156 49.638568,19.433596 50.751848,20.552756 C53.048968,22.861636 53.048968,26.615036 50.751848,28.921956 C49.638568,30.043076 48.154848,30.660476 46.577048,30.660476"
            id="Fill-19" fill="#333333"></path>
          <path
            d="M45.112732,23.265396 C43.493772,24.892196 40.869332,24.892196 39.250372,23.265396 C37.631412,21.638596 37.631412,19.002396 39.250372,17.377556 C40.869332,15.750756 43.493772,15.750756 45.112732,17.377556 C46.729732,19.002396 46.729732,21.638596 45.112732,23.265396"
            id="Fill-21" fill="#FFFFFF"></path>
          <path
            d="M42.180376,16.873444 C41.267016,16.873444 40.408536,17.232124 39.759776,17.880884 C38.421096,19.227404 38.421096,21.416724 39.759776,22.761284 C40.408536,23.412004 41.267016,23.770684 42.180376,23.770684 L42.182336,23.770684 C43.095696,23.770684 43.956136,23.412004 44.600976,22.761284 C45.941616,21.416724 45.941616,19.227404 44.600976,17.880884 C43.956136,17.232124 43.095696,16.873444 42.182336,16.873444 L42.180376,16.873444 Z M42.180376,25.201484 C40.880896,25.201484 39.659816,24.693844 38.740576,23.770684 C36.847216,21.867524 36.847216,18.774644 38.738616,16.873444 C39.659816,15.950284 40.880896,15.442644 42.180376,15.442644 L42.182336,15.442644 C43.481816,15.442644 44.704856,15.950284 45.624096,16.873444 C47.515496,18.774644 47.515496,21.867524 45.624096,23.770684 C44.704856,24.691884 43.481816,25.201484 42.182336,25.201484 L42.180376,25.201484 Z"
            id="Fill-23" fill="#333333"></path>
        </g>
      </g>
    </g>
  </g>
</svg>
